<svg width="26" height="27" viewBox="0 0 26 27" xmlns="http://www.w3.org/2000/svg">
<path d="M5.6875 0.090332C5.90299 0.090332 6.10965 0.175934 6.26202 0.328308C6.4144 0.480681 6.5 0.687344 6.5 0.902832V1.71533H19.5V0.902832C19.5 0.687344 19.5856 0.480681 19.738 0.328308C19.8903 0.175934 20.097 0.090332 20.3125 0.090332C20.528 0.090332 20.7347 0.175934 20.887 0.328308C21.0394 0.480681 21.125 0.687344 21.125 0.902832V1.71533H22.75C23.612 1.71533 24.4386 2.05774 25.0481 2.66724C25.6576 3.27673 26 4.10338 26 4.96533V22.8403C26 23.7023 25.6576 24.5289 25.0481 25.1384C24.4386 25.7479 23.612 26.0903 22.75 26.0903H3.25C2.38805 26.0903 1.5614 25.7479 0.951903 25.1384C0.34241 24.5289 0 23.7023 0 22.8403V4.96533C0 4.10338 0.34241 3.27673 0.951903 2.66724C1.5614 2.05774 2.38805 1.71533 3.25 1.71533H4.875V0.902832C4.875 0.687344 4.9606 0.480681 5.11298 0.328308C5.26535 0.175934 5.47201 0.090332 5.6875 0.090332V0.090332ZM1.625 6.59033V22.8403C1.625 23.2713 1.7962 23.6846 2.10095 23.9894C2.4057 24.2941 2.81902 24.4653 3.25 24.4653H22.75C23.181 24.4653 23.5943 24.2941 23.899 23.9894C24.2038 23.6846 24.375 23.2713 24.375 22.8403V6.59033H1.625Z"/>
</svg>
