<svg width="20" height="17" viewBox="0 0 20 17" fill="none" xmlns="http://www.w3.org/2000/svg">
<path d="M10.8379 9.00658L3.11354 10.0564C3.02474 10.0685 2.9414 10.0995 2.87191 10.1462C2.80242 10.1929 2.74923 10.2537 2.71769 10.3225L0.0543633 16.1431C-0.19997 16.6785 0.486115 17.1888 1.1158 16.9311L19.5755 9.40226C19.7031 9.3501 19.8103 9.27001 19.8853 9.17095C19.9603 9.07189 20 8.95777 20 8.84136C20 8.72494 19.9603 8.61082 19.8853 8.51177C19.8103 8.41271 19.7031 8.33262 19.5755 8.28046L1.1158 0.751583C0.486115 0.494765 -0.19997 1.00506 0.0543633 1.53961L2.71871 7.36026C2.75025 7.42905 2.80345 7.48985 2.87294 7.53655C2.94243 7.58324 3.02576 7.61419 3.11457 7.62628L10.8389 8.67614C10.8871 8.68242 10.931 8.7025 10.9626 8.73278C10.9943 8.76306 11.0117 8.80156 11.0117 8.84136C11.0117 8.88116 10.9943 8.91966 10.9626 8.94994C10.931 8.98022 10.8871 9.0003 10.8389 9.00658H10.8379Z" fill="#999999"/>
</svg>
