<svg width="84" height="70" viewBox="0 0 84 70" fill="none" xmlns="http://www.w3.org/2000/svg">
<path d="M24.4997 44.5938V21.375C24.4997 20.8227 24.052 20.375 23.4997 20.375H8.66634C4.08301 20.375 0.333008 23.8906 0.333008 28.1875V51.625C0.333008 55.9219 4.08301 59.4375 8.66634 59.4375H11.833C12.3853 59.4375 12.833 59.8852 12.833 60.4375V68.848C12.833 69.7235 13.8783 70.1763 14.5169 69.5776L25.0445 59.708C25.2299 59.5342 25.4744 59.4375 25.7285 59.4375H46.1663C50.7497 59.4375 54.4997 55.9219 54.4997 51.625V45.3544C54.4997 44.9207 54.1001 44.5986 53.6663 44.5977H24.5036C24.5014 44.5977 24.4997 44.5959 24.4997 44.5938ZM75.333 0.84375H37.833C33.2497 0.84375 29.4997 4.35938 29.4997 8.65625V38.9062C29.4997 39.4585 29.9474 39.9062 30.4997 39.9062H58.2709C58.5249 39.9062 58.7695 40.003 58.9548 40.1767L69.4824 50.0463C70.1211 50.6451 71.1663 50.1922 71.1663 49.3168V40.9062C71.1663 40.354 71.614 39.9062 72.1663 39.9062H75.333C79.9163 39.9062 83.6663 36.3945 83.6663 32.0938V8.65625C83.6663 4.35938 79.9163 0.84375 75.333 0.84375Z" fill="white"/>
</svg>
