<svg width="29" height="29" viewBox="0 0 29 29" fill="none" xmlns="http://www.w3.org/2000/svg">
<path d="M27.1562 12.9338V8.75017C27.1562 8.00425 26.8599 7.28888 26.3325 6.76144C25.805 6.23399 25.0897 5.93767 24.3438 5.93767H15.9062V4.09268C16.3352 3.70736 16.6094 3.1533 16.6094 2.53174C16.6094 1.9723 16.3871 1.43577 15.9916 1.04018C15.596 0.6446 15.0594 0.422363 14.5 0.422363C13.9406 0.422363 13.404 0.6446 13.0084 1.04018C12.6129 1.43577 12.3906 1.9723 12.3906 2.53174C12.3906 3.1533 12.6648 3.70736 13.0938 4.09268V5.93767H4.65625C3.91033 5.93767 3.19496 6.23399 2.66751 6.76144C2.14007 7.28888 1.84375 8.00425 1.84375 8.75017V12.9661L1.7425 12.9731C1.38797 12.9984 1.05619 13.1571 0.814023 13.4173C0.571859 13.6775 0.437313 14.0197 0.4375 14.3752V17.1877C0.4375 17.5606 0.585658 17.9183 0.849381 18.182C1.1131 18.4458 1.47079 18.5939 1.84375 18.5939V25.6252C1.84375 26.3711 2.14007 27.0865 2.66751 27.6139C3.19496 28.1414 3.91033 28.4377 4.65625 28.4377H24.3438C25.0897 28.4377 25.805 28.1414 26.3325 27.6139C26.8599 27.0865 27.1562 26.3711 27.1562 25.6252V18.5939C27.5292 18.5939 27.8869 18.4458 28.1506 18.182C28.4143 17.9183 28.5625 17.5606 28.5625 17.1877V14.4624C28.5788 14.2441 28.5441 14.0251 28.4612 13.8225C28.1772 13.1363 27.5683 12.9717 27.1562 12.9338ZM7.46875 14.3752C7.46875 12.8227 8.41375 11.5627 9.57812 11.5627C10.7425 11.5627 11.6875 12.8227 11.6875 14.3752C11.6875 15.9277 10.7425 17.1877 9.57812 17.1877C8.41375 17.1877 7.46875 15.9277 7.46875 14.3752ZM20.1222 22.8127C18.7145 22.8085 8.875 22.8127 8.875 22.8127V20.0002C8.875 20.0002 18.7202 19.9974 20.1278 20.0002L20.1222 22.8127ZM19.4219 17.1877C18.2575 17.1877 17.3125 15.9277 17.3125 14.3752C17.3125 12.8227 18.2575 11.5627 19.4219 11.5627C20.5863 11.5627 21.5312 12.8227 21.5312 14.3752C21.5312 15.9277 20.5863 17.1877 19.4219 17.1877Z" fill="#ECF4FF"/>
</svg>
