<svg width="19" height="15" viewBox="0 0 19 15" fill="none" xmlns="http://www.w3.org/2000/svg">
<path d="M18.0798 3.05078V11.2689C18.0798 11.8138 17.8634 12.3364 17.4781 12.7217C17.0928 13.107 16.5702 13.3234 16.0253 13.3234H3.69814C3.15325 13.3234 2.63067 13.107 2.24537 12.7217C1.86007 12.3364 1.64362 11.8138 1.64362 11.2689V3.05078" stroke="#92278F" stroke-width="1.38064" stroke-linecap="round" stroke-linejoin="round"/>
<path d="M18.0798 3.05062C18.0798 2.50573 17.8634 1.98315 17.4781 1.59785C17.0928 1.21255 16.5702 0.996094 16.0253 0.996094H3.69814C3.15325 0.996094 2.63067 1.21255 2.24537 1.59785C1.86007 1.98315 1.64362 2.50573 1.64362 3.05062L8.77282 7.50209C9.09935 7.70617 9.47666 7.81438 9.86172 7.81438C10.2468 7.81438 10.6241 7.70617 10.9506 7.50209L18.0798 3.05062Z" stroke="#92278F" stroke-width="1.38064" stroke-linecap="round" stroke-linejoin="round"/>
</svg>
