<svg width="21" height="21" viewBox="0 0 21 21"  xmlns="http://www.w3.org/2000/svg">
<path fill-rule="evenodd" clip-rule="evenodd" d="M0.391586 10.9351C0.391586 6.94046 0.391586 4.94316 1.34347 3.50456C1.76853 2.86216 2.31869 2.312 2.96109 1.88694C4.39969 0.935059 6.39699 0.935059 10.3916 0.935059C14.3862 0.935059 16.3835 0.935059 17.8221 1.88694C18.4645 2.312 19.0146 2.86216 19.4397 3.50456C20.3916 4.94316 20.3916 6.94046 20.3916 10.9351C20.3916 14.9297 20.3916 16.927 19.4397 18.3656C19.0146 19.008 18.4645 19.5581 17.8221 19.9832C16.3835 20.9351 14.3862 20.9351 10.3916 20.9351C6.39699 20.9351 4.39969 20.9351 2.96109 19.9832C2.31869 19.5581 1.76853 19.008 1.34347 18.3656C0.391586 16.927 0.391586 14.9297 0.391586 10.9351ZM15.5683 10.9356C15.5683 13.7948 13.2504 16.1127 10.3911 16.1127C7.5319 16.1127 5.21402 13.7948 5.21402 10.9356C5.21402 8.07633 7.5319 5.75845 10.3911 5.75845C13.2504 5.75845 15.5683 8.07633 15.5683 10.9356ZM10.3911 14.3611C12.283 14.3611 13.8167 12.8275 13.8167 10.9356C13.8167 9.04369 12.283 7.51002 10.3911 7.51002C8.49926 7.51002 6.96559 9.04369 6.96559 10.9356C6.96559 12.8275 8.49926 14.3611 10.3911 14.3611ZM15.7733 6.71549C16.4453 6.71549 16.9901 6.17069 16.9901 5.49865C16.9901 4.82661 16.4453 4.28181 15.7733 4.28181C15.1012 4.28181 14.5564 4.82661 14.5564 5.49865C14.5564 6.17069 15.1012 6.71549 15.7733 6.71549Z"/>
</svg>
