<svg width="21" height="21" viewBox="0 0 21 21"  xmlns="http://www.w3.org/2000/svg">
<path d="M0.0873718 3.25829C0.0873718 2.58488 0.312603 2.02932 0.763048 1.59162C1.21349 1.15391 1.79909 0.935059 2.5198 0.935059C3.22766 0.935059 3.80036 1.15053 4.23795 1.58152C4.6884 2.02597 4.91363 2.60508 4.91363 3.3189C4.91363 3.96536 4.69484 4.50407 4.25726 4.93506C3.80681 5.3795 3.21479 5.60173 2.48119 5.60173H2.46189C1.75403 5.60173 1.18133 5.3795 0.743743 4.93506C0.306156 4.49061 0.0873718 3.93168 0.0873718 3.25829ZM0.338337 20.9351V7.44011H4.62405V20.9351H0.338337ZM6.99857 20.9351H11.2843V13.3997C11.2843 12.9283 11.3358 12.5647 11.4387 12.3088C11.6189 11.8509 11.8924 11.4637 12.2592 11.1472C12.626 10.8307 13.0861 10.6724 13.6395 10.6724C15.0809 10.6724 15.8017 11.6893 15.8017 13.7229V20.9351H20.0874V13.1977C20.0874 11.2044 19.6369 9.69263 18.736 8.66233C17.8351 7.63203 16.6446 7.11688 15.1646 7.11688C13.5044 7.11688 12.2109 7.86435 11.2843 9.3593V9.39971H11.265L11.2843 9.3593V7.44011H6.99857C7.0243 7.87108 7.03718 9.21114 7.03718 11.4603C7.03718 13.7095 7.0243 16.8677 6.99857 20.9351Z" />
</svg>
