<svg width="155" height="57" viewBox="0 0 155 57" fill="none" xmlns="http://www.w3.org/2000/svg">
<path d="M15.744 1.54402H6.784C6.528 1.54402 6.272 1.28802 6.272 1.03202C6.272 0.712021 6.528 0.52002 6.784 0.52002H22.016C27.712 0.52002 30.784 1.54402 32.576 1.54402C35.264 1.54402 36.096 0.584023 37.12 0.584023C37.44 0.584023 37.568 0.77602 37.568 1.16002C37.568 1.48002 37.44 1.86402 37.44 2.69602C37.44 4.80802 40.256 9.16002 40.256 14.024C40.256 20.68 35.264 27.208 27.968 27.976V44.168C27.968 46.216 29.44 47.88 31.104 47.88C32.704 47.88 33.984 46.728 33.984 45.192C33.984 43.912 33.024 42.888 31.872 42.888C31.296 42.888 30.784 43.144 30.464 43.528C31.232 43.528 31.936 43.848 31.936 44.744C31.936 45.448 31.232 46.024 30.592 46.024C29.824 46.024 29.12 45.256 29.12 44.232C29.12 43.016 30.336 41.928 31.872 41.928C33.856 41.928 34.944 43.528 34.944 45.192C34.944 47.304 33.344 48.84 31.104 48.84C28.8 48.84 27.008 46.792 27.008 44.168V28.04H26.624C25.728 28.04 24.832 27.912 23.936 27.72V37.512C23.936 40.008 22.656 41.352 20.8 41.352C19.072 41.352 17.92 40.392 17.92 38.6C17.92 37.256 18.688 36.36 20.096 36.36C20.928 36.36 21.76 36.744 21.76 37.704C21.76 38.28 21.44 38.792 20.8 38.792C20.224 38.792 19.776 38.472 19.776 37.96C19.776 37.768 19.776 37.512 19.84 37.32C19.264 37.512 18.88 38.024 18.88 38.6C18.88 39.56 19.84 40.392 20.8 40.392C22.72 40.392 22.976 38.216 22.976 37.576V27.4C19.072 26.12 15.552 22.856 15.552 18.696C15.552 14.664 19.072 10.824 23.232 10.824C25.92 10.824 28.736 13 28.736 15.88C28.736 17.992 27.52 20.168 25.152 20.168C23.744 20.168 22.336 18.824 22.336 17.416C22.336 16.136 23.616 14.536 25.088 14.536C26.048 14.536 27.008 14.6 27.52 15.176C27.328 13.576 25.28 11.784 23.232 11.784C20.352 11.784 17.344 14.088 17.024 16.968C17.28 16.904 17.6 16.84 17.856 16.84C18.816 16.84 19.712 17.608 19.712 18.632C19.712 19.528 18.88 20.232 18.88 21.384C18.88 25.096 23.488 27.08 26.624 27.08C32.64 27.08 37.504 22.856 37.504 16.648C37.504 8.07202 30.528 1.80002 22.08 1.80002C9.664 1.80002 4.864 15.368 4.864 25.544C4.864 44.872 24.192 54.152 40.896 54.152C49.728 54.152 56.768 52.168 64.32 47.432C57.728 53.704 47.808 56.84 38.784 56.84C20.8 56.84 0 48.008 0 26.76C0 15.816 5.952 6.40802 15.744 1.54402Z" fill="url(#paint0_linear_27_4)"/>
<path d="M47.8895 18.952C48.7215 17.608 49.6175 16.264 51.7935 16.264C53.9695 16.264 55.8255 18.12 55.8255 20.296C55.8255 21.704 54.9935 23.176 53.5215 23.176C53.1375 23.176 52.7535 22.984 52.6895 22.792V37.832C52.6895 37.768 53.0095 37.576 53.3295 37.576C53.9055 37.576 54.3535 38.024 54.3535 38.664C54.3535 39.24 53.9055 39.688 53.3295 39.688C52.3695 39.688 52.0495 38.984 52.0495 38.216V21.896C52.0495 20.424 53.8415 20.168 53.8415 18.888C53.8415 17.992 52.7535 17.224 51.7935 17.224C49.6815 17.224 47.8895 20.168 47.8895 22.408V33.736H49.3615C49.6175 33.736 49.8735 33.992 49.8735 34.248C49.8735 34.504 49.6175 34.76 49.3615 34.76H43.9215C43.6655 34.76 43.4095 34.504 43.4095 34.248C43.4095 33.992 43.6655 33.736 43.9215 33.736H45.4575V18.184C45.2015 18.248 44.6255 18.312 44.1135 18.312C43.7935 18.312 43.6015 17.992 43.6015 17.8C43.6015 17.608 43.7935 17.416 44.1135 17.416C45.4575 17.416 46.9295 16.776 47.5055 16.776C47.6335 16.776 47.8895 16.968 47.8895 17.16V18.952Z" fill="url(#paint1_linear_27_4)"/>
<path d="M70.9535 34.312V32.264C69.9295 34.056 67.9455 35.208 65.4495 35.208C62.3775 35.208 60.3295 33.352 60.3295 29.832V18.184C60.0095 18.248 59.4335 18.312 58.9855 18.312C58.6655 18.312 58.4735 17.992 58.4735 17.8C58.4735 17.608 58.6655 17.416 58.9855 17.416C60.3295 17.416 61.8015 16.776 62.3775 16.776C62.5695 16.776 62.7615 16.968 62.7615 17.16V29.832C62.7615 32.136 63.5295 33.736 65.8975 33.736C68.9055 33.736 70.9535 31.688 70.9535 29.832V18.184C70.6335 18.248 70.0575 18.312 69.6095 18.312C69.2895 18.312 69.0975 17.992 69.0975 17.8C69.0975 17.608 69.2895 17.416 69.6095 17.416C70.9535 17.416 72.4255 16.776 73.0015 16.776C73.1935 16.776 73.3855 16.968 73.3855 17.16V33.8H74.8575C75.0495 33.8 75.3055 33.928 75.3055 34.312C75.3055 34.632 75.0495 34.76 74.8575 34.76H71.4015C71.2095 34.76 70.9535 34.632 70.9535 34.312Z" fill="url(#paint2_linear_27_4)"/>
<path d="M81.422 9.09602C82.318 9.09602 82.894 9.86402 82.894 10.696C82.894 11.72 82.574 12.616 81.422 12.616C80.334 12.616 79.95 11.72 79.95 10.696C79.95 9.92802 80.59 9.09602 81.422 9.09602ZM78.926 17.416C80.27 17.416 81.742 16.776 82.318 16.776C82.446 16.776 82.702 16.968 82.702 17.16V33.736H84.174C84.43 33.736 84.686 33.992 84.686 34.248C84.686 34.504 84.43 34.76 84.174 34.76H78.734C78.478 34.76 78.222 34.504 78.222 34.248C78.222 33.992 78.478 33.736 78.734 33.736H80.27V18.184C80.014 18.248 79.438 18.312 78.926 18.312C78.606 18.312 78.414 17.992 78.414 17.8C78.414 17.608 78.606 17.416 78.926 17.416Z" fill="url(#paint3_linear_27_4)"/>
<path d="M94.1875 16.52C96.4275 16.52 98.2835 17.352 99.7555 17.352C100.332 17.352 100.652 17.224 100.908 17.224C101.036 17.224 101.035 17.288 101.035 17.288C100.396 18.376 99.9475 19.592 99.4995 20.808C98.6675 18.632 96.4915 17.48 94.1875 17.48C92.2675 17.48 90.3475 17.992 90.3475 20.104C90.3475 21.896 92.0115 22.28 94.1875 22.6C97.6435 23.112 102.38 23.752 102.38 28.936C102.38 32.968 98.4115 35.272 94.1875 35.272C91.0515 35.272 87.4675 33.736 87.4675 30.088C87.4675 28.04 89.0035 26.376 91.1155 26.376C93.0995 26.376 94.3155 27.784 94.3155 29.64C94.3155 30.664 93.7395 31.816 92.5875 31.816C91.6915 31.816 91.3075 31.24 91.3075 30.408C91.3075 29.512 92.0115 29.32 92.0115 28.36C92.0115 27.592 91.1795 27.336 90.6035 27.336C89.1315 27.336 88.4275 28.616 88.4275 30.088C88.4275 33.352 91.8835 34.312 94.1875 34.312C97.5795 34.312 100.203 32.968 100.203 29.832C100.203 26.44 97.2595 25.928 94.1875 25.416C91.2435 24.904 88.2355 24.328 88.2355 21.064C88.2355 18.12 91.1155 16.52 94.1875 16.52Z" fill="url(#paint4_linear_27_4)"/>
<path d="M113.415 17.48C109.319 17.48 108.359 21.448 108.359 25.864C108.359 30.28 109.319 34.312 113.415 34.312C117.575 34.312 118.535 30.28 118.535 27.208C118.535 24.968 116.808 23.24 114.632 23.24C113.672 23.24 112.392 23.56 112.392 24.84C112.392 26.056 114.504 25.864 114.504 27.336C114.504 27.976 114.056 28.552 113.352 28.552C112.008 28.552 111.048 27.08 111.048 25.864C111.048 23.88 112.648 22.28 114.632 22.28C116.04 22.28 117.768 22.856 118.728 24.328C118.728 21.256 117.575 17.48 113.415 17.48ZM113.415 16.52C118.471 16.52 121.607 21.448 121.607 25.864C121.607 30.28 118.471 35.272 113.415 35.272C108.487 35.272 105.287 30.28 105.287 25.864C105.287 21.448 108.487 16.52 113.415 16.52Z" fill="url(#paint5_linear_27_4)"/>
<path d="M129.139 18.952C129.971 17.608 130.868 16.264 133.044 16.264C135.22 16.264 137.076 18.12 137.076 20.296C137.076 21.704 136.243 23.176 134.771 23.176C134.387 23.176 134.003 22.984 133.939 22.792V37.832C133.939 37.768 134.259 37.576 134.579 37.576C135.155 37.576 135.604 38.024 135.604 38.664C135.604 39.24 135.155 39.688 134.579 39.688C133.619 39.688 133.299 38.984 133.299 38.216V21.896C133.299 20.424 135.092 20.168 135.092 18.888C135.092 17.992 134.004 17.224 133.044 17.224C130.932 17.224 129.139 20.168 129.139 22.408V33.736H130.611C130.867 33.736 131.124 33.992 131.124 34.248C131.124 34.504 130.867 34.76 130.611 34.76H125.172C124.916 34.76 124.66 34.504 124.66 34.248C124.66 33.992 124.916 33.736 125.172 33.736H126.707V18.184C126.451 18.248 125.876 18.312 125.364 18.312C125.044 18.312 124.852 17.992 124.852 17.8C124.852 17.608 125.044 17.416 125.364 17.416C126.708 17.416 128.179 16.776 128.755 16.776C128.883 16.776 129.139 16.968 129.139 17.16V18.952Z" fill="url(#paint6_linear_27_4)"/>
<path d="M146.635 16.52C149.579 16.52 153.036 17.608 153.036 21.64V33.736H154.443C154.699 33.736 154.956 33.992 154.956 34.248C154.956 34.504 154.699 34.76 154.443 34.76H151.115C150.923 34.76 150.604 34.632 150.604 34.312V32.584C149.452 34.376 146.955 35.016 144.971 35.016C141.963 35.016 139.467 33.672 139.467 32.072V25.352C139.467 24.968 139.596 24.648 139.98 24.648C140.492 24.648 141.196 26.504 144.012 26.504C147.788 26.504 144.844 22.984 147.34 22.984C147.852 22.984 148.299 23.432 148.299 23.944C148.299 25.8 146.38 27.336 144.012 27.336C143.436 27.336 142.732 27.272 141.964 27.08V30.856C141.964 33.16 143.371 34.056 145.611 34.056C147.915 34.056 150.604 32.264 150.604 30.152V20.296C150.604 18.184 148.427 17.48 146.635 17.48C144.843 17.48 142.156 18.184 142.156 20.104C142.156 21.256 142.411 21.64 142.411 21.704C142.411 21.832 142.347 21.896 142.283 21.896C142.155 21.896 140.62 21.064 139.98 20.616C139.916 20.552 139.915 20.488 139.915 20.424C139.915 18.248 142.923 16.52 146.635 16.52Z" fill="url(#paint7_linear_27_4)"/>
<defs>
<linearGradient id="paint0_linear_27_4" x1="157" y1="25.5" x2="0" y2="25.5" gradientUnits="userSpaceOnUse">
<stop stop-color="#FFC8CD"/>
<stop offset="0.33" stop-color="#C8FFCD"/>
<stop offset="0.66" stop-color="#E1E1A0"/>
</linearGradient>
<linearGradient id="paint1_linear_27_4" x1="157" y1="25.5" x2="0" y2="25.5" gradientUnits="userSpaceOnUse">
<stop stop-color="#FFC8CD"/>
<stop offset="0.33" stop-color="#C8FFCD"/>
<stop offset="0.66" stop-color="#E1E1A0"/>
</linearGradient>
<linearGradient id="paint2_linear_27_4" x1="157" y1="25.5" x2="0" y2="25.5" gradientUnits="userSpaceOnUse">
<stop stop-color="#FFC8CD"/>
<stop offset="0.33" stop-color="#C8FFCD"/>
<stop offset="0.66" stop-color="#E1E1A0"/>
</linearGradient>
<linearGradient id="paint3_linear_27_4" x1="157" y1="25.5" x2="0" y2="25.5" gradientUnits="userSpaceOnUse">
<stop stop-color="#FFC8CD"/>
<stop offset="0.33" stop-color="#C8FFCD"/>
<stop offset="0.66" stop-color="#E1E1A0"/>
</linearGradient>
<linearGradient id="paint4_linear_27_4" x1="157" y1="25.5" x2="0" y2="25.5" gradientUnits="userSpaceOnUse">
<stop stop-color="#FFC8CD"/>
<stop offset="0.33" stop-color="#C8FFCD"/>
<stop offset="0.66" stop-color="#E1E1A0"/>
</linearGradient>
<linearGradient id="paint5_linear_27_4" x1="157" y1="25.5" x2="0" y2="25.5" gradientUnits="userSpaceOnUse">
<stop stop-color="#FFC8CD"/>
<stop offset="0.33" stop-color="#C8FFCD"/>
<stop offset="0.66" stop-color="#E1E1A0"/>
</linearGradient>
<linearGradient id="paint6_linear_27_4" x1="157" y1="25.5" x2="0" y2="25.5" gradientUnits="userSpaceOnUse">
<stop stop-color="#FFC8CD"/>
<stop offset="0.33" stop-color="#C8FFCD"/>
<stop offset="0.66" stop-color="#E1E1A0"/>
</linearGradient>
<linearGradient id="paint7_linear_27_4" x1="157" y1="25.5" x2="0" y2="25.5" gradientUnits="userSpaceOnUse">
<stop stop-color="#FFC8CD"/>
<stop offset="0.33" stop-color="#C8FFCD"/>
<stop offset="0.66" stop-color="#E1E1A0"/>
</linearGradient>
</defs>
</svg>
