<svg width="194" height="55" viewBox="0 0 194 55" fill="none" xmlns="http://www.w3.org/2000/svg">
<g clip-path="url(#clip0_2048_860)">
<path d="M82.2811 23.5035C82.0713 24.6117 81.7355 25.5015 81.2738 26.1563C80.8708 26.7439 80.2832 27.2057 79.5528 27.5163C78.8141 27.8353 77.9746 27.9948 77.0596 27.9948C75.2211 27.9948 73.7184 27.3484 72.6019 26.0724C71.9975 25.384 71.5358 24.5277 71.2168 23.5119C70.8978 22.5046 70.7383 21.3461 70.7383 20.0868C70.7383 18.601 70.9733 17.2578 71.4266 16.0909C71.754 15.2598 72.1738 14.5127 72.6775 13.8663C73.1811 13.2199 73.7436 12.7078 74.3312 12.3636C75.0028 11.9691 75.8087 11.7676 76.7238 11.7676C77.3366 11.7676 77.8822 11.8683 78.3691 12.0614C78.856 12.2545 79.3345 12.5735 79.7879 13.0016C80.3839 13.5641 80.8456 14.1937 81.1562 14.8737C81.3325 15.2514 81.5676 15.8307 81.8446 16.5946C81.8866 16.7037 81.9537 16.8632 82.0293 17.0815H82.1888L82.0461 11.8431H81.8614C81.7858 12.011 81.7271 12.137 81.6683 12.2125C81.4249 12.5315 81.0807 12.5651 80.5938 12.3804L79.6116 12.053C78.537 11.6836 77.5129 11.5073 76.5559 11.5073C75.5485 11.5073 74.5327 11.6752 73.5253 12.011C72.5263 12.3468 71.6533 12.8085 70.9313 13.3794C69.9995 14.1265 69.2608 15.1171 68.7403 16.3428C68.2198 17.5684 67.9512 18.92 67.9512 20.3723C67.9512 22.2695 68.4045 23.9233 69.3027 25.2832C70.201 26.6432 71.4602 27.6002 73.0468 28.1207C74.0458 28.4481 75.1036 28.6076 76.2033 28.6076C77.3786 28.6076 78.4195 28.4229 79.3094 28.0451C80.1992 27.6758 80.9044 27.1301 81.3997 26.4333C81.9202 25.7114 82.2643 24.7292 82.4154 23.5035L82.2643 23.4784L82.2811 23.5035Z" fill="#92278F"/>
<path d="M99.9103 14.5965C99.0541 13.6227 98.0383 12.8504 96.8966 12.3215C95.7549 11.7843 94.5628 11.5156 93.3456 11.5156C92.3886 11.5156 91.4232 11.6835 90.483 12.0193C89.5427 12.3551 88.6445 12.8504 87.8302 13.4716C86.7389 14.3195 85.891 15.3269 85.3201 16.4602C84.7493 17.5935 84.4639 18.8443 84.4639 20.1791C84.4639 21.1949 84.6486 22.1854 84.9927 23.1257C85.3453 24.0659 85.8574 24.9138 86.5122 25.6525C87.3433 26.5927 88.3507 27.3399 89.4924 27.852C90.6425 28.364 91.8597 28.6243 93.1189 28.6243C94.3781 28.6243 95.6374 28.3556 96.8043 27.8268C97.9711 27.2979 98.9953 26.534 99.8516 25.5686C100.548 24.7962 101.086 23.9232 101.447 22.9746C101.816 22.0343 101.992 21.0354 101.992 20.0196C101.992 18.0048 101.287 16.1748 99.8935 14.5881L99.9103 14.5965ZM97.3163 26.2905C96.7371 27.0209 96.1159 27.5497 95.4695 27.8687C94.8231 28.1961 94.0675 28.3556 93.2197 28.3556C92.3718 28.3556 91.6246 28.1877 90.9866 27.8603C90.3402 27.5329 89.7274 27.0041 89.1566 26.2821C87.8806 24.6787 87.2426 22.6891 87.2426 20.3554C87.2426 19.029 87.4188 17.7698 87.763 16.6197C88.1072 15.4612 88.6025 14.4706 89.2405 13.6731C89.7778 13.0015 90.3654 12.5146 90.9866 12.2124C91.6163 11.9102 92.3634 11.7591 93.2197 11.7591C94.0759 11.7591 94.8483 11.9102 95.4779 12.2208C96.1159 12.523 96.6951 13.0099 97.2156 13.6815C97.8536 14.4874 98.3489 15.478 98.7015 16.6365C99.0457 17.7866 99.2304 19.029 99.2304 20.3218C99.2304 22.6807 98.584 24.6871 97.3163 26.2989V26.2905Z" fill="#92278F"/>
<path d="M116.901 27.8778C116.708 27.7771 116.498 27.6008 116.297 27.3405C116.045 27.0299 115.734 26.5346 115.373 25.8547C115.012 25.1747 114.467 24.1002 113.753 22.6395C113.451 22.0014 113.216 21.5481 113.065 21.3047C112.914 21.0612 112.754 20.8514 112.57 20.6835C112.343 20.4736 111.99 20.2721 111.52 20.0706L111.327 19.9867L111.537 19.9447C112.116 19.8188 112.586 19.6845 112.922 19.5418C113.266 19.3991 113.585 19.2144 113.862 18.9961C114.786 18.2573 115.256 17.2668 115.256 16.0411C115.256 15.2184 115.038 14.4797 114.618 13.8585C114.19 13.2373 113.577 12.7587 112.805 12.4397C112.108 12.1627 111.134 11.9948 109.908 11.9445C109.598 11.9445 108.96 11.9277 107.994 11.9277H102.261V12.0704C102.689 12.0956 103.05 12.1627 103.335 12.2635C103.637 12.3726 103.898 12.5489 104.116 12.7839C104.376 13.0442 104.561 13.3884 104.653 13.7913C104.746 14.1859 104.788 14.8071 104.788 15.6382V24.5031C104.788 25.3342 104.746 25.947 104.653 26.35C104.561 26.7529 104.385 27.0887 104.116 27.3573C103.898 27.5924 103.637 27.7603 103.344 27.8694C103.067 27.9786 102.706 28.0457 102.261 28.0709V28.2136H109.816V28.0709C109.371 28.0457 109.01 27.9786 108.733 27.8694C108.439 27.7603 108.179 27.584 107.961 27.3573C107.701 27.0971 107.524 26.7529 107.432 26.35C107.34 25.947 107.289 25.3342 107.289 24.5115V20.1882H107.944C108.305 20.1882 108.624 20.2217 108.876 20.2973C109.136 20.3645 109.371 20.482 109.598 20.6499C110.026 20.9773 110.513 21.5817 111.025 22.4632C111.537 23.3446 112.049 24.3688 112.553 25.5105L113.392 27.4245C113.443 27.542 113.569 27.8107 113.762 28.222H117.64V28.0709C117.329 28.0373 117.086 27.9702 116.901 27.8778ZM107.81 19.9867H107.348V12.2383H107.843C108.7 12.2383 109.363 12.2886 109.833 12.4062C110.295 12.5153 110.698 12.7084 111.033 12.977C111.47 13.338 111.806 13.7997 112.049 14.3538C112.293 14.9078 112.418 15.5039 112.418 16.1419C112.418 17.3339 111.999 18.3245 111.159 19.122C110.781 19.4746 110.379 19.7097 109.95 19.8188C109.522 19.9279 108.809 19.9867 107.818 19.9867H107.81Z" fill="#92278F"/>
<path d="M134.967 16.5107C134.346 15.2347 133.473 14.2021 132.364 13.413C131.198 12.5903 129.762 12.1118 128.091 11.9859C127.689 11.9523 126.748 11.9355 125.296 11.9355H118.748V12.0782C119.487 12.1286 120.066 12.3133 120.461 12.6407C120.78 12.9093 121.006 13.2619 121.115 13.6816C121.225 14.093 121.283 14.7478 121.283 15.6376V24.5026C121.283 25.3252 121.241 25.9381 121.141 26.341C121.048 26.744 120.872 27.0882 120.612 27.3484C120.377 27.5918 120.116 27.7598 119.831 27.8689C119.562 27.9696 119.201 28.0368 118.756 28.062V28.2047H127.579C128.604 28.2047 129.628 28.1123 130.61 27.9276C131.92 27.6842 133.028 27.105 133.909 26.2067C134.53 25.5687 135.026 24.7544 135.378 23.7806C135.731 22.8068 135.907 21.7658 135.907 20.6661C135.907 19.1635 135.596 17.7615 134.975 16.4939L134.967 16.5107ZM132.692 23.5036C132.406 24.4186 131.987 25.2413 131.433 25.9465C130.879 26.6768 130.232 27.2225 129.527 27.5499C128.822 27.8773 127.957 28.0452 126.967 28.0452C125.8 28.0452 124.935 27.7178 124.415 27.0798C124.171 26.786 124.003 26.425 123.911 26.0052C123.819 25.5939 123.777 24.9895 123.777 24.2003V12.1706H125.296C126.337 12.1706 127.21 12.2629 127.89 12.4476C129.132 12.7918 130.215 13.5137 131.114 14.5883C131.76 15.3606 132.255 16.2756 132.608 17.2998C132.952 18.3324 133.128 19.4321 133.128 20.5654C133.128 21.598 132.986 22.5801 132.7 23.4952L132.692 23.5036Z" fill="#92278F"/>
<path d="M150.371 23.5539C150.22 24.2507 150.052 24.83 149.884 25.2581C149.699 25.703 149.464 26.106 149.171 26.4585C148.759 26.979 148.214 27.3652 147.55 27.617C146.896 27.8605 146.073 27.9864 145.107 27.9864C144.142 27.9864 143.437 27.8521 142.874 27.5751C142.304 27.298 141.875 26.8615 141.598 26.2739C141.439 25.9297 141.321 25.5015 141.271 24.9979C141.212 24.5026 141.187 23.6883 141.187 22.5885V19.7679H141.943C142.539 19.7679 143.042 19.8266 143.429 19.9526C143.823 20.0785 144.15 20.2716 144.394 20.5318C144.646 20.8004 144.847 21.1362 144.99 21.5224C145.124 21.8918 145.233 22.3787 145.309 22.9663H145.46L145.51 16.645H145.359C145.292 17.2326 145.2 17.686 145.099 17.9966C144.99 18.324 144.814 18.6094 144.587 18.8445C144.344 19.1047 144.033 19.281 143.655 19.3817C143.286 19.4825 142.723 19.5244 141.993 19.5244H141.204V12.1706H144.025C144.872 12.1706 145.569 12.2293 146.081 12.3469C146.602 12.4644 147.063 12.6659 147.441 12.9513C147.903 13.2871 148.264 13.69 148.507 14.1433C148.742 14.5799 148.919 15.1255 149.019 15.7803H149.171L148.969 11.9355H136.167V12.0782C136.604 12.1034 136.973 12.1706 137.25 12.2713C137.544 12.3804 137.804 12.5567 138.031 12.7918C138.282 13.052 138.459 13.3962 138.56 13.7992C138.652 14.2021 138.702 14.8149 138.702 15.6376V24.5026C138.702 25.3169 138.66 25.9381 138.56 26.341C138.467 26.744 138.291 27.0882 138.031 27.3484C137.804 27.5918 137.535 27.7598 137.242 27.8689C136.964 27.9696 136.604 28.0368 136.175 28.062V28.2047H150.396L150.547 23.5539H150.396H150.371Z" fill="#92278F"/>
<path d="M166.255 23.4028C166.104 24.1248 165.936 24.7124 165.768 25.1574C165.583 25.6191 165.348 26.0388 165.071 26.3998C164.652 26.9371 164.098 27.34 163.434 27.5919C162.78 27.8437 161.957 27.978 161 27.978C160.043 27.978 159.329 27.8437 158.767 27.5667C158.204 27.2896 157.768 26.8531 157.482 26.2655C157.323 25.9381 157.205 25.4932 157.155 24.9727C157.096 24.4522 157.071 23.6463 157.071 22.5885V15.646C157.071 14.8065 157.121 14.1685 157.214 13.7656C157.315 13.3542 157.508 13.0017 157.785 12.733C158.011 12.5231 158.263 12.3636 158.557 12.2629C158.826 12.1706 159.178 12.1118 159.598 12.0782V11.9355H152.043V12.0782C152.454 12.095 152.798 12.1538 153.058 12.2461C153.344 12.3469 153.604 12.5064 153.831 12.7162C154.108 12.9849 154.309 13.3291 154.41 13.7404C154.511 14.1517 154.561 14.7898 154.561 15.6376V24.5026C154.561 25.3169 154.519 25.9381 154.418 26.341C154.326 26.744 154.15 27.0882 153.889 27.3484C153.453 27.8017 152.823 28.0452 152.034 28.0536V28.2047H166.263L166.415 23.4028L166.247 23.3861L166.255 23.4028Z" fill="#92278F"/>
<path d="M172.97 14.1685C173.046 13.5893 173.247 13.1276 173.566 12.7918C173.801 12.5567 174.062 12.3804 174.355 12.2713C174.632 12.1706 174.993 12.1034 175.422 12.0782V11.9355H167.866V12.0782C168.303 12.1034 168.664 12.1706 168.941 12.2713C169.243 12.3804 169.503 12.5567 169.721 12.7918C169.982 13.052 170.166 13.3962 170.259 13.7992C170.351 14.1937 170.393 14.8149 170.393 15.646V24.511C170.393 25.342 170.351 25.9549 170.259 26.3578C170.166 26.7608 169.99 27.0966 169.721 27.3652C169.503 27.6002 169.243 27.7681 168.949 27.8773C168.672 27.9864 168.311 28.0536 167.866 28.0788V28.2215H175.422V28.0788C174.901 28.0452 174.473 27.9444 174.146 27.7933C173.81 27.6338 173.524 27.382 173.314 27.0546C173.163 26.8111 173.054 26.4921 172.987 26.106C172.92 25.7198 172.886 25.1825 172.886 24.5193V15.6544C172.886 15.1004 172.911 14.6051 172.962 14.1769L172.97 14.1685Z" fill="#92278F"/>
<path d="M192.816 27.8779C192.564 27.8023 192.337 27.6848 192.136 27.5337C191.859 27.3238 191.598 27.0048 191.363 26.5851C191.128 26.1737 190.818 25.4853 190.423 24.5283L185.21 11.9277H184.614L180.232 23.2271C179.829 24.2597 179.501 25.0404 179.258 25.5609C179.006 26.0814 178.754 26.5095 178.494 26.8453C178.183 27.2566 177.864 27.5673 177.537 27.7519C177.226 27.9366 176.857 28.0374 176.454 28.0709V28.2137H181.709V28.0625C181.239 28.0206 180.845 27.8863 180.534 27.668C180.299 27.5001 180.114 27.2818 179.98 27.0216C179.846 26.7613 179.778 26.4675 179.778 26.1653C179.778 25.6532 179.963 24.9481 180.324 24.0582L180.626 23.3111L181.264 21.6069H186.645L188.022 24.99C188.249 25.5525 188.358 26.0058 188.358 26.3416C188.358 26.9125 188.098 27.3742 187.586 27.6932C187.3 27.8695 186.822 27.9954 186.125 28.0542V28.2053H193.899V28.0542C193.428 28.0038 193.067 27.9366 192.824 27.8611L192.816 27.8779ZM181.491 21.1872L183.875 14.9582L186.402 21.1872H181.491Z" fill="#92278F"/>
<path d="M97.6339 42.51C97.439 42.7884 97.1699 43.0018 96.8265 43.1503C96.4832 43.2988 96.0934 43.373 95.6573 43.373C94.8036 43.373 94.0983 43.0668 93.5786 42.4729C93.3002 42.1574 93.0775 41.7491 92.9383 41.2851C92.7899 40.8118 92.7156 40.2829 92.7156 39.6982C92.7156 39.0116 92.827 38.3898 93.0404 37.8516C93.1889 37.4711 93.3838 37.1185 93.625 36.8216C93.857 36.5153 94.1169 36.2833 94.3953 36.1256C94.7108 35.94 95.0912 35.8472 95.5181 35.8472C95.8058 35.8472 96.0656 35.8936 96.2883 35.9864C96.5203 36.0792 96.743 36.2276 96.9564 36.4318C97.2348 36.6916 97.4483 36.9886 97.5967 37.3041C97.6803 37.4804 97.7916 37.7495 97.9123 38.1021C97.9308 38.1485 97.9494 38.2135 97.9865 38.297L97.9215 35.9771H97.9123C97.8844 36.0421 97.8566 36.0977 97.8287 36.1256C97.7081 36.2833 97.5318 36.3112 97.2812 36.2184L96.8358 36.0699C96.344 35.9029 95.88 35.8193 95.4439 35.8193C94.9892 35.8193 94.5252 35.8936 94.0705 36.0513C93.6158 36.1998 93.2167 36.4132 92.8919 36.6731C92.4651 37.0071 92.131 37.4618 91.899 38.0186C91.6577 38.5754 91.5371 39.1971 91.5371 39.856C91.5371 40.719 91.7413 41.4707 92.1496 42.0924C92.5579 42.7049 93.1239 43.141 93.8477 43.3823C94.3025 43.5308 94.785 43.605 95.2861 43.605C95.815 43.605 96.2976 43.5215 96.6966 43.3544C97.0956 43.1874 97.4111 42.9369 97.6431 42.6306C97.838 42.3615 97.9679 42.0182 98.0515 41.6006C97.9494 41.9811 97.8195 42.2966 97.6431 42.5378L97.6339 42.51Z" fill="#92278F"/>
<path fill-rule="evenodd" clip-rule="evenodd" d="M97.7231 42.5112C97.7229 42.5115 97.7227 42.5118 97.7225 42.5121C97.7139 42.5263 97.7051 42.5403 97.6962 42.5541C97.6928 42.5593 97.6894 42.5645 97.686 42.5696C97.6722 42.5906 97.658 42.6111 97.6434 42.6313C97.6301 42.6487 97.6166 42.666 97.6028 42.6832C97.572 42.7214 97.5398 42.7588 97.5062 42.7951C97.2919 43.0272 97.0221 43.2189 96.6968 43.3551C96.2978 43.5221 95.8153 43.6056 95.2863 43.6056C94.7852 43.6056 94.3027 43.5314 93.848 43.3829C93.1242 43.1416 92.5581 42.7055 92.1498 42.093C91.7415 41.4713 91.5373 40.7196 91.5373 39.8566C91.5373 39.1978 91.658 38.576 91.8992 38.0193C92.1312 37.4625 92.4653 37.0078 92.8922 36.6737C93.217 36.4139 93.616 36.2004 94.0707 36.052C94.2928 35.9749 94.5171 35.9178 94.7414 35.8795C94.9764 35.8394 95.2115 35.82 95.4441 35.82C95.4687 35.82 95.4935 35.8202 95.5183 35.8208C95.7742 35.8263 96.0396 35.8601 96.3144 35.9223C96.3147 35.9224 96.3151 35.9225 96.3154 35.9225C96.3425 35.9287 96.3697 35.9351 96.3969 35.9418C96.5408 35.977 96.6871 36.0199 96.836 36.0705L97.2815 36.219C97.532 36.3118 97.7083 36.284 97.829 36.1262C97.8331 36.1221 97.8372 36.1174 97.8413 36.1121C97.865 36.0818 97.8887 36.0333 97.9124 35.978C97.9124 35.9779 97.9123 35.9781 97.9124 35.978L97.9218 35.9777L97.9867 38.2977C97.9626 38.2434 97.9463 38.197 97.9328 38.1585C97.9255 38.1376 97.919 38.1191 97.9125 38.1028C97.9069 38.0863 97.9012 38.07 97.8956 38.0539C97.7815 37.7252 97.6766 37.4728 97.597 37.3047C97.4485 36.9892 97.2351 36.6923 96.9567 36.4324C96.7681 36.252 96.5723 36.1151 96.3692 36.0217C96.3424 36.0094 96.3155 35.9978 96.2885 35.987C96.0658 35.8942 95.806 35.8478 95.5183 35.8478C95.4934 35.8478 95.4687 35.8481 95.4441 35.8488C95.1994 35.8551 94.9707 35.8926 94.7617 35.9615C94.6318 36.0043 94.5094 36.0592 94.3955 36.1262C94.1171 36.284 93.8573 36.516 93.6253 36.8222C93.384 37.1191 93.1891 37.4718 93.0407 37.8522C92.8272 38.3905 92.7159 39.0122 92.7159 39.6989C92.7159 40.2835 92.7901 40.8125 92.9386 41.2857C93.0778 41.7497 93.3005 42.158 93.5789 42.4735C94.0985 43.0674 94.8038 43.3736 95.6575 43.3736C96.0937 43.3736 96.4834 43.2994 96.8268 43.1509C97.0703 43.0456 97.2765 42.9076 97.4454 42.7369C97.4905 42.6913 97.533 42.6433 97.5728 42.593C97.5749 42.5903 97.5771 42.5875 97.5792 42.5848C97.5796 42.5844 97.5799 42.5839 97.5803 42.5835C97.5885 42.5729 97.5967 42.5622 97.6047 42.5513C97.6113 42.5425 97.6178 42.5335 97.6243 42.5245C97.6276 42.5199 97.6308 42.5153 97.6341 42.5106L97.6434 42.5385C97.6468 42.5338 97.6502 42.529 97.6536 42.5243C97.6598 42.5156 97.666 42.5068 97.6721 42.498C97.6826 42.4827 97.6929 42.4671 97.7031 42.4512C97.8495 42.2229 97.9615 41.9374 98.0517 41.6012C97.9801 41.9591 97.8745 42.2624 97.7231 42.5112ZM97.6683 42.347L97.6611 42.3252L97.5651 42.4623C97.3801 42.7267 97.1239 42.9307 96.7933 43.0736C96.4621 43.2168 96.0841 43.2894 95.6575 43.2894C94.8259 43.2894 94.1446 42.9921 93.6423 42.4181C93.3728 42.1126 93.1553 41.7152 93.0192 41.2615L93.0189 41.2605C92.8734 40.7967 92.8001 40.2764 92.8001 39.6989C92.8001 39.0212 92.91 38.4102 93.1189 37.8833C93.2648 37.5094 93.4558 37.1643 93.6906 36.8753L93.6924 36.873C93.9185 36.5746 94.17 36.3508 94.437 36.1995L94.4382 36.1988C94.7385 36.0222 95.1036 35.932 95.5183 35.932C95.7972 35.932 96.0456 35.977 96.2561 36.0647L96.2573 36.0652C96.4776 36.1533 96.6914 36.2953 96.8985 36.4933C97.1692 36.7459 97.3769 37.0348 97.5208 37.3406C97.6027 37.5135 97.713 37.7798 97.8328 38.13L97.8343 38.1341C97.8401 38.1486 97.8457 38.1645 97.8526 38.1843C97.8559 38.1935 97.8594 38.2035 97.8633 38.2146C97.8753 38.2481 97.89 38.2874 97.9098 38.3319L98.0709 38.2953L98.0037 35.8935H97.857L97.8351 35.9446C97.8216 35.976 97.8089 36.0034 97.7968 36.0256C97.7842 36.0487 97.7748 36.0613 97.7694 36.0667L97.7621 36.0751C97.7135 36.1385 97.6576 36.1722 97.5901 36.1835C97.5195 36.1952 97.4286 36.1837 97.3107 36.14L96.8631 35.9908C96.8632 35.9908 96.863 35.9908 96.8631 35.9908C96.3643 35.8214 95.8909 35.7358 95.4441 35.7358C94.9804 35.7358 94.5074 35.8114 94.0438 35.9722C93.5809 36.1234 93.1731 36.3412 92.8399 36.6077C92.4006 36.9516 92.0585 37.4183 91.8217 37.9863C91.5756 38.5546 91.4531 39.1877 91.4531 39.8566C91.4531 40.7332 91.6606 41.5016 92.0794 42.1393C92.4982 42.7674 93.0799 43.2157 93.8213 43.4628C94.285 43.6142 94.7769 43.6899 95.2863 43.6899C95.8236 43.6899 96.3177 43.6051 96.7294 43.4328C97.1419 43.2601 97.4694 43.0004 97.7105 42.6821L97.7116 42.6807C97.9159 42.3985 98.0493 42.0425 98.1343 41.6177L97.9703 41.5794C97.8891 41.8821 97.7912 42.1386 97.6683 42.347Z" fill="#92278F"/>
<path d="M111.172 43.3188C111.079 43.2724 110.977 43.1888 110.884 43.0589C110.764 42.9197 110.625 42.6877 110.458 42.3722C110.29 42.0567 110.04 41.5649 109.715 40.8875C109.576 40.5998 109.474 40.3864 109.4 40.275C109.335 40.1637 109.26 40.0709 109.186 39.9966C109.084 39.9038 108.926 39.811 108.713 39.7182L108.499 39.6254L108.731 39.579C108.991 39.5234 109.205 39.4584 109.363 39.3934C109.52 39.3285 109.659 39.245 109.789 39.1522C110.207 38.8181 110.411 38.382 110.411 37.8252C110.411 37.454 110.318 37.1292 110.123 36.8508C109.929 36.5724 109.659 36.359 109.307 36.2198C108.991 36.0992 108.546 36.0157 107.989 35.9971C107.85 35.9971 107.562 35.9971 107.117 35.9971H104.686C104.806 36.0157 104.899 36.0342 104.992 36.0713C105.131 36.1177 105.261 36.2105 105.372 36.3219C105.493 36.4518 105.586 36.6095 105.632 36.8044C105.669 36.99 105.697 37.2777 105.697 37.6582V41.7319C105.697 42.1124 105.678 42.4001 105.632 42.5857C105.586 42.7805 105.502 42.9383 105.372 43.0682C105.27 43.1796 105.14 43.2631 105.001 43.3188C104.918 43.3559 104.815 43.3744 104.695 43.393H107.757C107.636 43.3744 107.534 43.3559 107.451 43.3188C107.312 43.2631 107.182 43.1796 107.08 43.0682C106.959 42.9383 106.876 42.7805 106.829 42.5857C106.783 42.3908 106.764 42.1217 106.764 41.7319V36.0249H107.061C107.46 36.0249 107.766 36.0528 107.989 36.0992C108.212 36.1548 108.407 36.2476 108.574 36.3775C108.778 36.5539 108.945 36.7766 109.066 37.0364C109.186 37.3055 109.242 37.5839 109.242 37.8901C109.242 38.4562 109.038 38.9295 108.639 39.3099C108.453 39.477 108.258 39.5976 108.045 39.6533C107.896 39.6904 107.692 39.7182 107.414 39.7275C107.46 39.7275 107.507 39.7461 107.553 39.7554C107.674 39.7925 107.794 39.8482 107.896 39.9224C108.1 40.0802 108.323 40.3585 108.564 40.7669C108.806 41.1752 109.038 41.6484 109.27 42.1774L109.659 43.0589C109.687 43.1053 109.734 43.226 109.817 43.4023H111.441C111.348 43.3837 111.274 43.3559 111.209 43.328L111.172 43.3188Z" fill="#92278F"/>
<path fill-rule="evenodd" clip-rule="evenodd" d="M111.172 43.3178C111.079 43.2713 110.978 43.1879 110.885 43.0587C110.765 42.9195 110.626 42.6875 110.459 42.372C110.292 42.0565 110.041 41.5646 109.716 40.8872C109.709 40.8718 109.701 40.8567 109.694 40.8417C109.566 40.577 109.471 40.3802 109.401 40.2747C109.336 40.1634 109.262 40.0706 109.187 39.9964C109.085 39.9036 108.927 39.8108 108.714 39.718L108.501 39.6252L108.733 39.5788C108.992 39.5231 109.206 39.4581 109.364 39.3932C109.521 39.3282 109.661 39.2447 109.79 39.1519C110.208 38.8178 110.412 38.3817 110.412 37.8249C110.412 37.4537 110.319 37.1289 110.125 36.8506C109.93 36.5722 109.661 36.3587 109.308 36.2195C108.992 36.0989 108.547 36.0154 107.99 35.9968H104.687C104.807 36.0154 104.9 36.0339 104.993 36.0711C105.002 36.0742 105.012 36.0775 105.021 36.081C105.149 36.13 105.269 36.2177 105.373 36.3216C105.494 36.4515 105.587 36.6093 105.633 36.8042C105.67 36.9897 105.698 37.2774 105.698 37.6579V41.7317C105.698 42.1121 105.68 42.3998 105.633 42.5854C105.587 42.7803 105.503 42.938 105.373 43.0679C105.277 43.1728 105.156 43.253 105.026 43.3085C105.018 43.3119 105.01 43.3153 105.002 43.3185C104.919 43.3556 104.817 43.3742 104.696 43.3927H107.758C107.638 43.3742 107.535 43.3556 107.452 43.3185C107.444 43.3153 107.436 43.3119 107.428 43.3085C107.298 43.253 107.177 43.1728 107.081 43.0679C106.96 42.938 106.877 42.7803 106.83 42.5854C106.784 42.3905 106.765 42.1214 106.765 41.7317V36.0247H107.062C107.081 36.0247 107.1 36.0247 107.118 36.0248C107.437 36.027 107.694 36.0474 107.895 36.081C107.928 36.0866 107.96 36.0926 107.99 36.0989C108.213 36.1546 108.408 36.2474 108.575 36.3773C108.779 36.5536 108.946 36.7763 109.067 37.0361C109.187 37.3053 109.243 37.5836 109.243 37.8899C109.243 38.4559 109.039 38.9292 108.64 39.3097C108.454 39.4767 108.259 39.5973 108.046 39.653C107.95 39.677 107.83 39.6972 107.682 39.7109C107.645 39.7144 107.606 39.7175 107.565 39.7201C107.564 39.7201 107.562 39.7202 107.561 39.7203C107.515 39.7232 107.466 39.7255 107.415 39.7272C107.446 39.7272 107.477 39.7355 107.508 39.7437C107.523 39.7479 107.539 39.752 107.554 39.7551C107.593 39.767 107.632 39.7809 107.67 39.7966C107.75 39.8299 107.828 39.8717 107.897 39.9221C108.102 40.0799 108.324 40.3583 108.566 40.7666C108.807 41.1749 109.039 41.6481 109.271 42.1771L109.661 43.0587C109.675 43.0831 109.695 43.1282 109.723 43.1913C109.748 43.2478 109.779 43.3187 109.818 43.402H111.442C111.349 43.3835 111.275 43.3556 111.21 43.3278L111.173 43.3185C111.173 43.3183 111.172 43.318 111.172 43.3178ZM111.203 43.2391C111.126 43.1987 111.037 43.1259 110.954 43.0097L110.949 43.0035C110.835 42.8724 110.7 42.6483 110.533 42.3326C110.367 42.0182 110.117 41.5274 109.792 40.8508C109.784 40.8336 109.776 40.8164 109.767 40.7997C109.643 40.5418 109.546 40.3411 109.472 40.2302C109.404 40.1133 109.325 40.0155 109.247 39.9368L109.244 39.9341C109.137 39.8373 108.981 39.7447 108.779 39.6548C109.03 39.5998 109.238 39.5359 109.396 39.4711C109.561 39.403 109.706 39.3159 109.839 39.2204L109.843 39.2177C110.282 38.8669 110.496 38.406 110.496 37.8249C110.496 37.4389 110.4 37.0967 110.194 36.8023C109.989 36.5097 109.706 36.2862 109.339 36.1412L109.338 36.1409C109.011 36.0159 108.556 35.9314 107.993 35.9127L104.687 35.9126L104.674 36.0801C104.793 36.0984 104.878 36.1158 104.962 36.1492L104.966 36.1509C105.089 36.1918 105.207 36.2751 105.313 36.3801C105.424 36.4998 105.508 36.644 105.551 36.8222C105.586 37.0006 105.614 37.2819 105.614 37.6579V41.7317C105.614 42.112 105.595 42.3904 105.551 42.565C105.508 42.7467 105.431 42.8909 105.314 43.0084L105.311 43.011C105.219 43.1117 105.1 43.1886 104.971 43.2403L104.968 43.2415C104.896 43.2734 104.805 43.2907 104.683 43.3095L104.696 43.4769H107.758L107.771 43.3095C107.649 43.2907 107.558 43.2734 107.486 43.2415L107.483 43.2403C107.354 43.1886 107.235 43.1117 107.143 43.011C107.033 42.8926 106.955 42.7478 106.912 42.5659C106.868 42.3812 106.85 42.1205 106.85 41.7317V36.1089H107.062C107.457 36.1089 107.756 36.1364 107.971 36.181C108.182 36.2339 108.365 36.3213 108.521 36.4424C108.715 36.6103 108.875 36.8225 108.99 37.0711C109.105 37.3283 109.159 37.5947 109.159 37.8899C109.159 38.4327 108.964 38.8836 108.583 39.2479C108.404 39.4085 108.221 39.5202 108.025 39.5714C107.884 39.6066 107.686 39.6339 107.412 39.6431L107.415 39.8115C107.427 39.8115 107.443 39.814 107.464 39.8194C107.469 39.8207 107.475 39.8223 107.482 39.8242C107.498 39.8282 107.516 39.8332 107.533 39.8367C107.645 39.8716 107.755 39.9229 107.847 39.9895C108.038 40.1377 108.254 40.4051 108.493 40.8094C108.732 41.2138 108.962 41.6837 109.194 42.2109L109.584 43.0927L109.588 43.102C109.599 43.1194 109.615 43.1549 109.641 43.2155L109.646 43.2253C109.671 43.2818 109.702 43.3536 109.742 43.4381L109.765 43.4862H111.442L111.459 43.3194C111.374 43.3024 111.305 43.2769 111.243 43.2504L111.237 43.2477L111.203 43.2391Z" fill="#92278F"/>
<path d="M123.162 35.9966C123.283 36.0152 123.375 36.0338 123.468 36.0709C123.607 36.1173 123.737 36.2101 123.849 36.3214C123.969 36.4513 124.053 36.6091 124.099 36.804C124.146 36.9896 124.164 37.2772 124.164 37.6577V40.7478C124.164 41.3139 124.164 41.6758 124.146 41.8243C124.118 42.0656 124.071 42.2697 124.007 42.4275C123.932 42.5852 123.821 42.7337 123.672 42.8729C123.431 43.0863 123.134 43.2534 122.772 43.374C122.42 43.4946 122.039 43.5503 121.649 43.5503C121.26 43.5503 120.907 43.4854 120.638 43.3462C120.369 43.207 120.137 42.9842 119.951 42.6873C119.831 42.4924 119.747 42.2697 119.71 42.0377C119.673 41.8057 119.654 41.4345 119.654 40.9242V37.7969C119.654 37.3422 119.673 37.0267 119.71 36.8318C119.747 36.6369 119.84 36.4699 119.97 36.3307C120.072 36.2193 120.202 36.1266 120.341 36.0802C120.425 36.0523 120.527 36.0245 120.647 36.0059H117.585C117.706 36.0245 117.808 36.043 117.891 36.0802C118.03 36.1266 118.16 36.2193 118.262 36.3307C118.383 36.4606 118.476 36.6184 118.522 36.8133C118.559 36.9988 118.587 37.2865 118.587 37.667V41.0262C118.587 41.4438 118.596 41.7315 118.624 41.8985C118.68 42.3347 118.866 42.6873 119.172 42.9564C119.645 43.3833 120.406 43.5967 121.427 43.5967C122.448 43.5967 123.162 43.3647 123.682 42.9193C123.904 42.7244 124.053 42.511 124.127 42.279C124.201 42.0377 124.248 41.6665 124.248 41.1562V37.667C124.248 37.2772 124.266 36.9988 124.313 36.8133C124.359 36.6184 124.443 36.4513 124.563 36.3307C124.675 36.2193 124.805 36.1266 124.944 36.0802C125.027 36.0523 125.129 36.0245 125.241 36.0059H123.162V35.9966Z" fill="#92278F"/>
<path fill-rule="evenodd" clip-rule="evenodd" d="M123.078 35.8984L123.175 35.9134C123.193 35.9161 123.21 35.9188 123.227 35.9217H125.241L125.255 36.089C125.148 36.1067 125.051 36.1333 124.97 36.16C124.848 36.201 124.728 36.2847 124.623 36.3902C124.516 36.4972 124.439 36.6488 124.395 36.8327C124.351 37.0074 124.332 37.2775 124.332 37.6669V41.1561C124.332 41.67 124.286 42.0508 124.208 42.3037L124.207 42.3046C124.128 42.554 123.969 42.7798 123.737 42.9826C123.197 43.4452 122.46 43.6809 121.427 43.6809C120.398 43.6809 119.612 43.4663 119.116 43.0193C118.794 42.7363 118.599 42.3652 118.541 41.9107C118.512 41.7354 118.503 41.4411 118.503 41.0262V37.6669C118.503 37.2909 118.476 37.0097 118.44 36.8312C118.397 36.6525 118.312 36.508 118.201 36.388C118.106 36.2849 117.988 36.201 117.865 36.16L117.857 36.1574C117.785 36.1255 117.694 36.1079 117.572 36.0891L117.585 35.9217H120.647L120.66 36.0891C120.545 36.1068 120.448 36.1334 120.368 36.16C120.245 36.201 120.127 36.2845 120.032 36.3876C119.912 36.5166 119.827 36.6701 119.793 36.8475C119.757 37.034 119.739 37.3426 119.739 37.7969V40.9241C119.739 41.434 119.757 41.7995 119.793 42.0244C119.829 42.2453 119.908 42.4574 120.023 42.6428C120.202 42.9289 120.423 43.1401 120.677 43.2713C120.93 43.4022 121.268 43.4661 121.65 43.4661C122.031 43.4661 122.403 43.4115 122.745 43.2943C123.097 43.1769 123.384 43.0151 123.616 42.8106C123.757 42.6783 123.861 42.5391 123.93 42.3934C123.99 42.2456 124.035 42.0505 124.062 41.8146C124.08 41.6729 124.08 41.3181 124.08 40.7478V37.6577C124.08 37.2774 124.061 36.9989 124.018 36.8244L124.017 36.8234C123.974 36.6421 123.898 36.498 123.788 36.3798C123.683 36.2748 123.564 36.1916 123.442 36.1507L123.437 36.1492C123.369 36.122 123.3 36.1052 123.213 36.0901H123.078V35.8984ZM123.52 36.0901C123.639 36.1404 123.751 36.2238 123.849 36.3214C123.969 36.4513 124.053 36.6091 124.099 36.8039C124.142 36.9755 124.161 37.2342 124.164 37.5728C124.164 37.6005 124.164 37.6288 124.164 37.6577V40.7478C124.164 40.8984 124.164 41.0346 124.164 41.1561C124.163 41.4913 124.159 41.7153 124.146 41.8243C124.127 41.9869 124.1 42.1327 124.064 42.2588C124.064 42.259 124.064 42.2585 124.064 42.2588C124.047 42.3194 124.028 42.3762 124.007 42.4274C123.932 42.5852 123.821 42.7337 123.673 42.8729C123.667 42.878 123.661 42.883 123.655 42.8881C123.655 42.8882 123.655 42.888 123.655 42.8881C123.417 43.0941 123.126 43.2563 122.772 43.374C122.42 43.4946 122.039 43.5503 121.65 43.5503C121.574 43.5503 121.499 43.5478 121.427 43.5428C121.323 43.5357 121.223 43.5235 121.128 43.5059C120.946 43.4725 120.78 43.4196 120.638 43.3461C120.369 43.2069 120.137 42.9842 119.951 42.6873C119.831 42.4924 119.747 42.2697 119.71 42.0377C119.673 41.8057 119.654 41.4345 119.654 40.9241V37.7969C119.654 37.3422 119.673 37.0267 119.71 36.8318C119.747 36.6369 119.84 36.4699 119.97 36.3307C120.065 36.2268 120.185 36.1391 120.313 36.0901C120.322 36.0866 120.332 36.0832 120.341 36.0801C120.425 36.0523 120.527 36.0244 120.647 36.0059H117.585C117.706 36.0244 117.808 36.043 117.891 36.0801C117.901 36.0832 117.91 36.0866 117.919 36.0901C118.048 36.1391 118.167 36.2268 118.262 36.3307C118.383 36.4606 118.476 36.6183 118.522 36.8132C118.559 36.9988 118.587 37.2865 118.587 37.6669V41.0262C118.587 41.4438 118.597 41.7314 118.624 41.8985C118.68 42.3346 118.866 42.6873 119.172 42.9564C119.596 43.339 120.252 43.5502 121.118 43.5898C121.218 43.5944 121.321 43.5967 121.427 43.5967C121.503 43.5967 121.577 43.5954 121.65 43.5928C122.084 43.5775 122.459 43.5166 122.785 43.4116C123.137 43.2982 123.432 43.1333 123.682 42.9193C123.688 42.914 123.694 42.9088 123.7 42.9035C123.7 42.9032 123.7 42.903 123.701 42.9027C123.858 42.7618 123.976 42.6112 124.057 42.4511C124.057 42.4503 124.058 42.4494 124.058 42.4486C124.086 42.3932 124.109 42.3367 124.127 42.279C124.163 42.1614 124.193 42.013 124.214 41.8328C124.214 41.833 124.214 41.8325 124.214 41.8328C124.236 41.6431 124.248 41.4176 124.248 41.1561V37.6669C124.248 37.6638 124.248 37.6608 124.248 37.6577C124.248 37.6288 124.248 37.6005 124.248 37.5728C124.251 37.2319 124.27 36.9835 124.313 36.8132C124.359 36.6183 124.443 36.4513 124.563 36.3307C124.667 36.2268 124.787 36.1391 124.916 36.0901C124.925 36.0866 124.935 36.0832 124.944 36.0801C125.027 36.0523 125.129 36.0244 125.241 36.0059H123.22C123.201 36.0027 123.182 35.9997 123.162 35.9966V36.0059H123.22C123.313 36.0218 123.391 36.0398 123.468 36.0708C123.486 36.0766 123.503 36.083 123.52 36.0901Z" fill="#92278F"/>
<path d="M132.786 42.5857C132.739 42.7805 132.656 42.9383 132.526 43.0682C132.415 43.1796 132.294 43.2631 132.155 43.3188C132.071 43.3559 131.969 43.3744 131.849 43.393H134.92C134.762 43.3652 134.623 43.328 134.512 43.2724C134.345 43.1981 134.215 43.0775 134.113 42.9197C134.039 42.7991 133.992 42.6506 133.955 42.465C133.918 42.2794 133.909 42.0474 133.909 41.7319V37.6582C133.909 37.3983 133.909 37.1756 133.946 36.9714C133.983 36.6931 134.076 36.4704 134.234 36.3126C134.345 36.2012 134.466 36.1084 134.614 36.062C134.698 36.0342 134.8 36.0064 134.911 35.9878H131.849C131.969 36.0064 132.062 36.0249 132.155 36.062C132.294 36.1084 132.424 36.2012 132.526 36.3126C132.647 36.4425 132.739 36.6003 132.786 36.7951C132.823 36.9807 132.851 37.2684 132.851 37.6489V41.7227C132.851 42.1031 132.832 42.3908 132.786 42.5764V42.5857Z" fill="#92278F"/>
<path fill-rule="evenodd" clip-rule="evenodd" d="M132.179 43.309C132.308 43.2535 132.421 43.1733 132.526 43.0684C132.656 42.9385 132.74 42.7807 132.786 42.5858V42.5766C132.832 42.391 132.851 42.1033 132.851 41.7228V37.6491C132.851 37.2686 132.823 36.9809 132.786 36.7953C132.74 36.6004 132.647 36.4427 132.526 36.3128C132.431 36.2089 132.312 36.1212 132.183 36.0722C132.174 36.0687 132.164 36.0654 132.155 36.0622C132.062 36.0251 131.969 36.0066 131.849 35.988H134.911C134.8 36.0066 134.698 36.0344 134.614 36.0622C134.604 36.0654 134.594 36.0687 134.585 36.0722C134.449 36.1212 134.337 36.2089 134.234 36.3128C134.076 36.4705 133.983 36.6932 133.946 36.9716C133.909 37.1758 133.909 37.3985 133.909 37.6583V41.7321C133.909 42.0476 133.918 42.2796 133.955 42.4652C133.992 42.6508 134.039 42.7993 134.113 42.9199C134.215 43.0777 134.345 43.1983 134.512 43.2726C134.538 43.2857 134.566 43.2978 134.595 43.309C134.69 43.3452 134.8 43.3719 134.92 43.3932H131.849C131.969 43.3746 132.071 43.3561 132.155 43.319C132.163 43.3157 132.171 43.3124 132.179 43.309ZM134.184 42.875C134.279 43.0209 134.397 43.1291 134.546 43.1956L134.55 43.1971C134.65 43.2475 134.78 43.283 134.935 43.3102L134.92 43.4774H131.849L131.836 43.3099C131.958 43.2912 132.049 43.2739 132.121 43.242L132.124 43.2407C132.251 43.1898 132.362 43.1133 132.467 43.0088C132.582 42.8934 132.658 42.7531 132.702 42.5758V42.5662L132.704 42.5561C132.748 42.3816 132.767 42.1031 132.767 41.7228V37.6491C132.767 37.273 132.739 36.9918 132.704 36.8134C132.661 36.6347 132.576 36.4901 132.464 36.3701C132.37 36.267 132.251 36.1831 132.128 36.1421L132.124 36.1406C132.04 36.1072 131.955 36.0896 131.836 36.0712L131.849 35.9038H134.911L134.925 36.0711C134.819 36.0888 134.721 36.1154 134.641 36.1421L134.639 36.1426C134.509 36.1832 134.4 36.2655 134.293 36.3723C134.152 36.513 134.065 36.7162 134.029 36.9828V36.9867C133.993 37.1819 133.993 37.3965 133.993 37.6583V41.7321C133.993 42.0477 134.002 42.2721 134.038 42.4487C134.074 42.6302 134.118 42.767 134.184 42.875Z" fill="#92278F"/>
<path d="M145.648 40.0426C145.388 39.7086 144.961 39.4023 144.377 39.124L143.597 38.7435C142.781 38.3537 142.363 37.8341 142.363 37.1845C142.363 37.0267 142.391 36.8597 142.456 36.6927C142.512 36.5256 142.595 36.3864 142.706 36.2658C142.957 35.9689 143.31 35.8204 143.736 35.8204C144.033 35.8204 144.293 35.8946 144.525 36.0431C144.748 36.1823 144.961 36.405 145.147 36.702C145.249 36.8597 145.333 37.0453 145.407 37.2309C145.472 37.4072 145.555 37.6578 145.648 37.9733L145.611 35.9503C145.537 36.173 145.407 36.2287 145.295 36.2287C145.24 36.2287 145.175 36.2194 145.091 36.1916C145.017 36.1637 144.887 36.1173 144.711 36.0524C144.47 35.9503 144.265 35.8761 144.126 35.8482C143.987 35.8111 143.829 35.8018 143.662 35.8018C143.152 35.8018 142.697 35.9781 142.326 36.3215C142.112 36.5164 141.945 36.7576 141.825 37.0267C141.704 37.2958 141.649 37.5835 141.649 37.8805C141.649 38.3537 141.797 38.762 142.103 39.0961C142.215 39.2168 142.363 39.3374 142.539 39.458C142.725 39.5787 142.994 39.7271 143.337 39.9034C143.736 40.1076 144.033 40.2746 144.228 40.4138C144.432 40.553 144.59 40.7015 144.702 40.85C144.813 40.9985 144.896 41.1748 144.961 41.3789C145.026 41.5831 145.054 41.7779 145.054 41.9728C145.054 42.4275 144.906 42.808 144.618 43.1049C144.33 43.4019 143.959 43.5504 143.514 43.5504C142.883 43.5504 142.354 43.2256 141.936 42.5853C141.732 42.2605 141.546 41.8151 141.389 41.2583L141.37 43.3741C141.454 43.1977 141.593 43.1049 141.788 43.1049C141.853 43.1049 141.908 43.1049 141.964 43.1328C142.01 43.1513 142.15 43.207 142.382 43.3091C142.808 43.4947 143.263 43.5875 143.727 43.5875C144.228 43.5875 144.674 43.4668 145.045 43.2441C145.416 43.0214 145.694 42.6966 145.88 42.279C146.01 41.9821 146.075 41.6666 146.075 41.3418C146.075 40.85 145.926 40.4138 145.639 40.0519L145.648 40.0426Z" fill="#92278F"/>
<path fill-rule="evenodd" clip-rule="evenodd" d="M145.638 40.0521C145.926 40.414 146.074 40.8502 146.074 41.342C146.074 41.6668 146.009 41.9823 145.879 42.2792C145.694 42.6968 145.415 43.0216 145.044 43.2443C144.735 43.4297 144.375 43.5443 143.974 43.5776C143.893 43.5843 143.81 43.5877 143.726 43.5877C143.655 43.5877 143.584 43.5855 143.513 43.5811C143.224 43.5632 142.94 43.5087 142.665 43.4178C142.569 43.3861 142.474 43.3499 142.381 43.3093C142.149 43.2072 142.01 43.1515 141.963 43.133C141.908 43.1051 141.852 43.1051 141.787 43.1051C141.648 43.1051 141.537 43.1524 141.455 43.2436C141.422 43.2802 141.393 43.3238 141.369 43.3742L141.388 41.2585C141.414 41.352 141.442 41.4425 141.47 41.5297C141.609 41.9615 141.766 42.3152 141.935 42.5855C142.159 42.9277 142.414 43.1798 142.699 43.3404C142.948 43.4802 143.219 43.5506 143.513 43.5506C143.586 43.5506 143.657 43.5466 143.726 43.5385C143.807 43.5292 143.885 43.5144 143.96 43.4942C144.212 43.4262 144.432 43.2965 144.617 43.1051C144.905 42.8082 145.053 42.4277 145.053 41.973C145.053 41.7781 145.026 41.5833 144.961 41.3791C144.896 41.1749 144.812 40.9986 144.701 40.8502C144.589 40.7017 144.432 40.5532 144.228 40.414C144.033 40.2748 143.736 40.1078 143.337 39.9036C142.993 39.7273 142.724 39.5788 142.539 39.4582C142.362 39.3376 142.214 39.2169 142.102 39.0963C141.796 38.7622 141.648 38.3539 141.648 37.8807C141.648 37.5837 141.703 37.296 141.824 37.0269C141.945 36.7578 142.112 36.5165 142.325 36.3217C142.531 36.1315 142.762 35.9925 143.014 35.9064C143.217 35.8371 143.434 35.802 143.661 35.802C143.686 35.802 143.711 35.8022 143.736 35.8027C143.875 35.8054 144.007 35.8168 144.125 35.8484C144.234 35.8702 144.383 35.9203 144.558 35.99C144.589 36.0023 144.621 36.0156 144.654 36.0291C144.672 36.0368 144.691 36.0446 144.71 36.0526C144.798 36.0851 144.875 36.1129 144.939 36.1361C145.002 36.1593 145.053 36.1778 145.091 36.1918C145.174 36.2196 145.239 36.2289 145.295 36.2289C145.372 36.2289 145.458 36.202 145.529 36.1107C145.56 36.0707 145.588 36.0184 145.61 35.9505L145.647 37.9735C145.616 37.868 145.586 37.7697 145.558 37.6791C145.501 37.4987 145.449 37.3484 145.406 37.2311C145.332 37.0455 145.248 36.8599 145.146 36.7021C144.985 36.4446 144.803 36.2429 144.613 36.1031C144.583 36.0817 144.554 36.0618 144.524 36.0433C144.399 35.9629 144.265 35.9043 144.122 35.8674C144.121 35.8673 144.121 35.8672 144.12 35.8671C143.999 35.8361 143.871 35.8206 143.736 35.8206C143.711 35.8206 143.686 35.8211 143.661 35.8221C143.433 35.8316 143.227 35.8855 143.048 35.9838C142.919 36.0547 142.805 36.1488 142.706 36.266C142.594 36.3866 142.511 36.5258 142.455 36.6929C142.39 36.8599 142.362 37.0269 142.362 37.1847C142.362 37.8343 142.78 38.3539 143.596 38.7437L144.376 39.1241C144.961 39.4025 145.387 39.7088 145.647 40.0428L145.638 40.0521ZM145.75 40.0594C146.02 40.425 146.158 40.8588 146.158 41.342C146.158 41.6782 146.091 42.0052 145.956 42.313C145.764 42.7451 145.475 43.0842 145.087 43.3165C144.702 43.5479 144.241 43.6719 143.726 43.6719C143.251 43.6719 142.785 43.5768 142.347 43.3865C142.117 43.285 141.978 43.2295 141.932 43.2112L141.925 43.2085C141.89 43.191 141.855 43.1893 141.787 43.1893C141.703 43.1893 141.636 43.2091 141.582 43.2442C141.528 43.2794 141.482 43.3335 141.445 43.4103L141.285 43.3735L141.304 41.2577L141.469 41.2355C141.625 41.7874 141.808 42.2244 142.006 42.54C142.412 43.1621 142.917 43.4663 143.513 43.4663C143.938 43.4663 144.286 43.3256 144.557 43.0465C144.828 42.7666 144.969 42.4078 144.969 41.973C144.969 41.7865 144.943 41.6003 144.88 41.4046C144.817 41.2068 144.738 41.0397 144.633 40.9007C144.529 40.761 144.378 40.6186 144.18 40.4836L144.179 40.4826C143.989 40.3473 143.697 40.1826 143.298 39.9786C142.954 39.802 142.682 39.6519 142.493 39.5288L142.491 39.5277C142.312 39.4051 142.158 39.2804 142.041 39.1534C141.719 38.8025 141.564 38.3731 141.564 37.8807C141.564 37.573 141.621 37.2735 141.747 36.9925C141.872 36.7142 142.045 36.4631 142.268 36.2597C142.655 35.9018 143.13 35.7178 143.661 35.7178C143.829 35.7178 143.995 35.7269 144.145 35.7664C144.292 35.7963 144.502 35.873 144.741 35.9742C144.827 36.0061 144.903 36.0337 144.967 36.0568C145.03 36.0798 145.082 36.0985 145.119 36.1123C145.194 36.1373 145.249 36.1447 145.295 36.1447C145.336 36.1447 145.377 36.1346 145.416 36.1058C145.455 36.0768 145.497 36.0233 145.53 35.9239L145.694 35.9489L145.732 37.9719L145.567 37.9972C145.474 37.6838 145.392 37.4354 145.327 37.2613C145.254 37.0776 145.173 36.8984 145.075 36.7479V36.7468C144.894 36.4579 144.689 36.2456 144.48 36.1147L144.479 36.1142C144.261 35.975 144.018 35.9048 143.736 35.9048C143.33 35.9048 143.002 36.045 142.77 36.3203L142.768 36.3232C142.664 36.435 142.587 36.5637 142.535 36.7195L142.534 36.7234C142.473 36.8803 142.447 37.0369 142.447 37.1847C142.447 37.7887 142.831 38.2852 143.633 38.6677L144.413 39.0483C145.003 39.3294 145.443 39.6425 145.714 39.9911L145.759 40.0498L145.75 40.0594Z" fill="#92278F"/>
<path d="M158.936 42.0933C158.852 42.2975 158.731 42.4923 158.602 42.6501C158.407 42.8914 158.147 43.077 157.841 43.1976C157.534 43.3182 157.154 43.3739 156.709 43.3739C156.263 43.3739 155.929 43.3089 155.66 43.179C155.391 43.0491 155.187 42.8357 155.057 42.5573C154.982 42.3995 154.927 42.1954 154.899 41.9541C154.871 41.7221 154.862 41.3509 154.862 40.8405V39.5043H155.252C155.53 39.5043 155.762 39.5321 155.948 39.5878C156.133 39.6435 156.291 39.7456 156.412 39.8662C156.532 39.9961 156.625 40.1539 156.699 40.3302C156.755 40.4786 156.801 40.6642 156.829 40.8777L156.848 38.2515C156.82 38.4557 156.783 38.6134 156.736 38.7341C156.69 38.8918 156.606 39.0217 156.495 39.1424C156.374 39.263 156.226 39.3558 156.05 39.4022C155.873 39.4486 155.614 39.4672 155.27 39.4672H154.862V36.0058H156.198C156.588 36.0058 156.913 36.0337 157.154 36.0893C157.395 36.145 157.609 36.2378 157.794 36.377C158.008 36.5348 158.184 36.7296 158.295 36.9338C158.388 37.1101 158.462 37.3143 158.509 37.5555L158.425 35.978H152.792C152.913 35.9966 153.006 36.0151 153.099 36.0522C153.238 36.0986 153.368 36.1914 153.47 36.3028C153.591 36.4327 153.674 36.5904 153.72 36.7853C153.758 36.9802 153.785 37.2493 153.785 37.6391V41.7128C153.785 42.0933 153.758 42.381 153.72 42.5666C153.674 42.7614 153.591 42.9285 153.461 43.0491C153.349 43.1605 153.219 43.2533 153.08 43.2997C152.997 43.3275 152.895 43.3553 152.783 43.3739H159.066L159.131 41.3695C159.066 41.6572 159.001 41.8891 158.926 42.0747L158.936 42.0933Z" fill="#92278F"/>
<path fill-rule="evenodd" clip-rule="evenodd" d="M157.542 43.2895C157.648 43.2646 157.748 43.234 157.841 43.1974C158.147 43.0768 158.407 42.8912 158.602 42.6499C158.732 42.4922 158.852 42.2973 158.936 42.0931L158.927 42.0746C158.964 41.9801 159 41.8735 159.034 41.7537C159.067 41.6382 159.099 41.5105 159.131 41.3693L159.066 43.3738H156.709C157.019 43.3738 157.298 43.3467 157.542 43.2895ZM156.709 43.2895C157.148 43.2895 157.517 43.2345 157.81 43.1191C158.104 43.0033 158.351 42.826 158.536 42.597C158.654 42.4544 158.764 42.2793 158.843 42.0962L158.834 42.0784L158.848 42.0433C158.92 41.8638 158.984 41.6368 159.049 41.3508L159.215 41.3721L159.147 43.458H152.783L152.77 43.2907C152.876 43.273 152.974 43.2463 153.054 43.2196C153.177 43.1786 153.296 43.0949 153.401 42.9894L153.403 42.9872C153.518 42.8813 153.595 42.7315 153.638 42.5484C153.674 42.3699 153.701 42.0887 153.701 41.7127V37.6389C153.701 37.2543 153.674 36.9912 153.638 36.8028C153.595 36.6218 153.518 36.4779 153.408 36.3599C153.314 36.2568 153.195 36.173 153.072 36.132L153.068 36.1304C152.984 36.097 152.899 36.0794 152.78 36.0611L152.793 35.8936H158.505L158.593 37.5509L158.426 37.5713C158.381 37.3382 158.31 37.1421 158.221 36.9734C158.117 36.7819 157.949 36.5961 157.744 36.4446C157.57 36.3135 157.367 36.2247 157.135 36.1713C156.903 36.1176 156.585 36.0899 156.198 36.0899H154.946V39.3828H155.27C155.613 39.3828 155.863 39.364 156.028 39.3206C156.188 39.2786 156.323 39.1946 156.435 39.0838C156.539 38.9707 156.614 38.8521 156.656 38.7101L156.658 38.7036C156.701 38.5912 156.737 38.4406 156.764 38.24L156.932 38.252L156.914 40.8781L156.746 40.8884C156.719 40.6812 156.674 40.5025 156.621 40.3611C156.55 40.1924 156.462 40.0447 156.351 39.9245C156.24 39.8133 156.094 39.7195 155.924 39.6683C155.748 39.6158 155.525 39.5883 155.252 39.5883H154.946V40.8404C154.946 41.3514 154.956 41.7177 154.983 41.9439C155.01 42.1784 155.064 42.3736 155.133 42.5213C155.255 42.7832 155.446 42.9821 155.697 43.103C155.951 43.2256 156.271 43.2895 156.709 43.2895ZM155.961 43.2895C155.852 43.2603 155.752 43.2234 155.66 43.1789C155.391 43.049 155.187 42.8355 155.057 42.5571C154.983 42.3994 154.927 42.1952 154.899 41.954C154.871 41.722 154.862 41.3508 154.862 40.8404V39.5041H155.252C155.258 39.5041 155.264 39.5041 155.27 39.5042C155.437 39.5049 155.586 39.5158 155.719 39.5367C155.802 39.5497 155.878 39.5667 155.948 39.5876C156.133 39.6433 156.291 39.7454 156.412 39.866C156.532 39.9959 156.625 40.1537 156.699 40.33C156.717 40.3757 156.733 40.425 156.748 40.4775C156.782 40.5954 156.81 40.7298 156.829 40.8775L156.848 38.2514C156.825 38.4187 156.796 38.5548 156.761 38.6649C156.753 38.6892 156.745 38.7121 156.737 38.7339C156.69 38.8917 156.607 39.0216 156.495 39.1422C156.375 39.2629 156.226 39.3556 156.05 39.402C155.962 39.4253 155.852 39.4415 155.722 39.452C155.592 39.4624 155.442 39.467 155.27 39.467H154.862V36.0057H156.198C156.519 36.0057 156.795 36.0245 157.017 36.0621C157.065 36.0702 157.111 36.0793 157.154 36.0892C157.395 36.1449 157.609 36.2377 157.794 36.3769C158.008 36.5346 158.184 36.7295 158.296 36.9336C158.336 37.0098 158.372 37.0912 158.405 37.1785C158.447 37.2933 158.483 37.4184 158.509 37.5554L158.425 35.9778H152.793C152.913 35.9964 153.006 36.015 153.099 36.0521C153.108 36.0552 153.118 36.0585 153.127 36.0621C153.255 36.111 153.375 36.1987 153.47 36.3026C153.591 36.4325 153.674 36.5903 153.721 36.7852C153.758 36.98 153.786 37.2491 153.786 37.6389V41.7127C153.786 42.0931 153.758 42.3808 153.721 42.5664C153.674 42.7613 153.591 42.9283 153.461 43.049C153.357 43.1528 153.237 43.2406 153.108 43.2895C153.099 43.2931 153.09 43.2964 153.08 43.2995C152.997 43.3274 152.895 43.3552 152.783 43.3738H156.709C156.416 43.3738 156.171 43.3457 155.961 43.2895Z" fill="#92278F"/>
<path d="M169.877 40.0426C169.617 39.7086 169.19 39.4023 168.605 39.124L167.826 38.7435C167.009 38.3537 166.601 37.8341 166.601 37.1845C166.601 37.0267 166.629 36.8597 166.694 36.6927C166.749 36.5256 166.833 36.3864 166.944 36.2658C167.195 35.9689 167.547 35.8204 167.974 35.8204C168.271 35.8204 168.54 35.8946 168.763 36.0431C168.986 36.1823 169.199 36.405 169.375 36.702C169.478 36.8597 169.57 37.0453 169.645 37.2309C169.71 37.4072 169.793 37.6578 169.886 37.9733L169.849 35.9503C169.774 36.173 169.645 36.2287 169.533 36.2287C169.478 36.2287 169.413 36.2194 169.338 36.1916C169.264 36.1637 169.134 36.1173 168.958 36.0524C168.717 35.9503 168.522 35.8761 168.373 35.8482C168.234 35.8111 168.076 35.8018 167.909 35.8018C167.399 35.8018 166.944 35.9781 166.573 36.3215C166.36 36.5164 166.193 36.7576 166.072 37.0267C165.951 37.2958 165.886 37.5835 165.886 37.8805C165.886 38.3537 166.044 38.762 166.341 39.0961C166.452 39.2168 166.601 39.3374 166.777 39.458C166.953 39.5787 167.223 39.7271 167.575 39.9034C167.974 40.1076 168.271 40.2746 168.475 40.4138C168.679 40.553 168.837 40.7015 168.939 40.85C169.051 40.9985 169.134 41.1748 169.199 41.3789C169.264 41.5831 169.292 41.7779 169.292 41.9728C169.292 42.4275 169.143 42.808 168.856 43.1049C168.568 43.4019 168.197 43.5504 167.752 43.5504C167.12 43.5504 166.582 43.2256 166.174 42.5853C165.97 42.2605 165.784 41.8151 165.636 41.2583L165.617 43.3741C165.701 43.1977 165.84 43.1049 166.035 43.1049C166.1 43.1049 166.155 43.1049 166.202 43.1328C166.248 43.1513 166.387 43.207 166.619 43.3091C167.046 43.4947 167.501 43.5875 167.956 43.5875C168.457 43.5875 168.902 43.4668 169.273 43.2441C169.635 43.0214 169.923 42.6966 170.109 42.279C170.238 41.9821 170.313 41.6666 170.313 41.3418C170.313 40.85 170.164 40.4138 169.877 40.0519V40.0426Z" fill="#92278F"/>
<path fill-rule="evenodd" clip-rule="evenodd" d="M169.961 40.023C170.249 40.396 170.397 40.8427 170.397 41.342C170.397 41.6798 170.32 42.0067 170.186 42.313C169.994 42.7458 169.694 43.0843 169.318 43.316L169.317 43.3165C168.931 43.5479 168.471 43.6719 167.956 43.6719C167.49 43.6719 167.024 43.5767 166.586 43.3865C166.355 43.285 166.217 43.2296 166.171 43.2112L166.164 43.2086L166.159 43.2052C166.136 43.1916 166.106 43.1893 166.035 43.1893C165.951 43.1893 165.884 43.2091 165.83 43.2442C165.776 43.2794 165.73 43.3335 165.694 43.4103L165.533 43.3735L165.552 41.2577L165.717 41.2368C165.864 41.788 166.047 42.2249 166.245 42.5404C166.641 43.1615 167.155 43.4663 167.752 43.4663C168.177 43.4663 168.525 43.3256 168.796 43.0465C169.067 42.7666 169.208 42.4078 169.208 41.973C169.208 41.7865 169.181 41.6003 169.119 41.4046C169.056 41.2068 168.976 41.0397 168.872 40.9007L168.87 40.8979C168.776 40.7605 168.627 40.6189 168.428 40.4836C168.229 40.3475 167.936 40.1825 167.537 39.9788C167.184 39.8023 166.911 39.6517 166.73 39.5277C166.551 39.4051 166.397 39.2804 166.279 39.1534L166.278 39.1523C165.967 38.8025 165.802 38.3742 165.802 37.8807C165.802 37.5712 165.87 37.2719 165.995 36.9925C166.12 36.7142 166.293 36.4631 166.516 36.2597C166.903 35.9018 167.378 35.7178 167.91 35.7178C168.077 35.7178 168.243 35.7269 168.392 35.7662C168.55 35.7963 168.751 35.8736 168.989 35.9742C169.076 36.0061 169.151 36.0337 169.215 36.0568C169.279 36.0802 169.331 36.099 169.368 36.1129C169.433 36.1371 169.488 36.1447 169.533 36.1447C169.575 36.1447 169.616 36.1346 169.655 36.1058C169.693 36.0768 169.736 36.0233 169.769 35.9239L169.933 35.9489L169.97 37.9719L169.805 37.9972C169.713 37.6838 169.63 37.4354 169.566 37.2613C169.494 37.0802 169.403 36.9 169.305 36.7479L169.303 36.7452C169.132 36.4576 168.928 36.2455 168.719 36.1147L168.716 36.1134C168.51 35.9754 168.257 35.9048 167.974 35.9048C167.569 35.9048 167.241 36.045 167.009 36.3203L167.006 36.3232C166.903 36.435 166.826 36.5637 166.774 36.7195L166.772 36.7234C166.711 36.8803 166.685 37.0369 166.685 37.1847C166.685 37.7893 167.062 38.2855 167.862 38.6677L168.642 39.0483C169.232 39.3294 169.672 39.6425 169.943 39.9911L169.961 40.0139V40.023ZM168.605 39.1241C169.19 39.4025 169.617 39.7088 169.877 40.0428V40.0521C170.164 40.414 170.313 40.8502 170.313 41.342C170.313 41.6668 170.239 41.9823 170.109 42.2792C169.923 42.6968 169.636 43.0216 169.274 43.2443C168.968 43.4276 168.613 43.5417 168.217 43.5764C168.132 43.5839 168.045 43.5877 167.956 43.5877C167.888 43.5877 167.82 43.5856 167.752 43.5814C167.462 43.5637 167.175 43.5083 166.896 43.4153C166.803 43.3841 166.711 43.3488 166.62 43.3093C166.388 43.2072 166.248 43.1515 166.202 43.133C166.156 43.1051 166.1 43.1051 166.035 43.1051C165.896 43.1051 165.785 43.1524 165.703 43.2436C165.67 43.2802 165.641 43.3238 165.617 43.3742L165.636 41.2585C165.662 41.3565 165.689 41.451 165.718 41.542C165.85 41.9683 166.006 42.3178 166.174 42.5855C166.391 42.926 166.645 43.1772 166.93 43.3379C167.181 43.4794 167.456 43.5506 167.752 43.5506C167.822 43.5506 167.89 43.5469 167.956 43.5396C168.041 43.5302 168.123 43.5147 168.202 43.4931C168.453 43.4248 168.672 43.2955 168.856 43.1051C169.144 42.8082 169.292 42.4277 169.292 41.973C169.292 41.7781 169.264 41.5833 169.199 41.3791C169.134 41.1749 169.051 40.9986 168.94 40.8502C168.837 40.7017 168.68 40.5532 168.476 40.414C168.271 40.2748 167.974 40.1078 167.575 39.9036C167.223 39.7273 166.954 39.5788 166.777 39.4582C166.601 39.3376 166.453 39.2169 166.341 39.0963C166.044 38.7622 165.887 38.3539 165.887 37.8807C165.887 37.5837 165.951 37.296 166.072 37.0269C166.193 36.7578 166.36 36.5165 166.573 36.3217C166.772 36.1378 166.995 36.0019 167.237 35.9153C167.447 35.8401 167.672 35.802 167.91 35.802C167.931 35.802 167.953 35.8022 167.974 35.8025C168.117 35.8049 168.252 35.8161 168.373 35.8484C168.488 35.8698 168.629 35.9187 168.799 35.9866L168.8 35.9874C168.826 35.9977 168.853 36.0085 168.88 36.0197C168.905 36.0303 168.931 36.0413 168.958 36.0526C169.046 36.0851 169.123 36.1129 169.187 36.1361C169.25 36.1593 169.301 36.1779 169.339 36.1918C169.413 36.2196 169.478 36.2289 169.533 36.2289C169.611 36.2289 169.697 36.202 169.768 36.1107C169.799 36.0707 169.826 36.0184 169.849 35.9505L169.886 37.9735C169.855 37.8679 169.825 37.7697 169.796 37.6791C169.739 37.4987 169.688 37.3484 169.645 37.2311C169.571 37.0455 169.478 36.8599 169.376 36.7021C169.219 36.4389 169.034 36.234 168.839 36.0939C168.814 36.076 168.789 36.0591 168.763 36.0433C168.644 35.964 168.512 35.9059 168.37 35.869L168.368 35.8686C168.244 35.8366 168.112 35.8206 167.974 35.8206C167.953 35.8206 167.931 35.821 167.91 35.8217C167.671 35.8304 167.457 35.8872 167.272 35.9921C167.149 36.0621 167.039 36.1533 166.944 36.266C166.833 36.3866 166.75 36.5258 166.694 36.6929C166.629 36.8599 166.601 37.0269 166.601 37.1847C166.601 37.8343 167.009 38.3539 167.826 38.7437L168.605 39.1241Z" fill="#92278F"/>
<path d="M3.96062 33.2137C1.97636 30.2757 1.05607 28.024 0.837891 27.4405C11.3382 7.16096 28.9822 1.66611 39.4177 0.875488C35.5914 1.89698 13.8033 6.40987 3.96062 33.2137Z" fill="url(#paint0_linear_2048_860)"/>
<path d="M4.77539 34.3901C5.89803 35.9587 7.25458 37.6728 8.85157 39.4027C16.3336 7.35862 42.0966 1.84322 45.9009 0.875488C45.9009 0.875488 14.9105 2.29861 4.77697 34.3901H4.77539Z" fill="url(#paint1_linear_2048_860)"/>
<path d="M30.2723 8.73548C22.6559 13.8414 12.8528 23.9614 9.79492 40.3969C11.2416 41.8817 13.1027 43.599 14.9083 44.9921C15.3827 37.7183 19.6517 10.2044 50.8792 1.27039C50.8792 1.27039 42.262 0.875078 30.2723 8.73548Z" fill="url(#paint2_linear_2048_860)"/>
<path d="M16.416 40.3989C16.7117 38.5788 17.1117 36.86 17.5354 35.3262C19.6795 38.6121 28.8722 49.9528 46.0576 54.3218C37.0151 53.6529 28.8596 49.7773 24.2458 46.7634C20.1364 44.08 17.4105 41.4283 16.416 40.3989Z" fill="url(#paint3_linear_2048_860)"/>
<path d="M23.1465 47.2703C26.8099 49.7257 32.4657 52.7363 39.7753 54.2636C26.8827 53.2375 18.8584 47.3414 15.8574 45.4662C15.8811 44.1111 16.074 42.843 16.248 41.5386C17.1113 42.4588 19.4592 44.8005 23.1465 47.2703Z" fill="url(#paint4_linear_2048_860)"/>
<path d="M17.9141 34.24C18.9307 30.8276 20.0486 28.6265 20.0486 28.6265C29.6936 47.2853 45.0307 52.0418 51.1971 53.914C51.1971 53.914 32.7768 53.8476 17.9141 34.24Z" fill="url(#paint5_linear_2048_860)"/>
<path d="M53.963 40.0904H54.4374L51.2751 46.0992L50.9588 44.8342H50.9573C50.9145 44.8326 50.8719 44.8326 50.8308 44.831C40.3573 44.695 31.6689 37.0322 31.6689 27.5985C31.6689 18.1648 40.4253 10.4403 50.9573 10.3644H50.9588L51.2751 9.41406L54.4374 15.2648H53.963C52.2569 13.3783 51.117 12.6652 50.3137 12.4027C50.0876 12.3283 49.8473 12.2999 49.6101 12.3188C40.7099 12.9893 33.7244 19.5388 33.7244 27.521C33.7244 35.5032 41.0325 42.3516 50.222 42.7611C50.5398 42.7754 50.8545 42.7042 51.136 42.5588C51.9044 42.1635 52.7518 41.4313 53.963 40.0936V40.0904Z" fill="url(#paint6_linear_2048_860)"/>
</g>
<defs>
<linearGradient id="paint0_linear_2048_860" x1="-1.70299" y1="17.0453" x2="50.9869" y2="17.0453" gradientUnits="userSpaceOnUse">
<stop offset="0.15" stop-color="#92278F"/>
<stop offset="1" stop-color="#F16F5B"/>
</linearGradient>
<linearGradient id="paint1_linear_2048_860" x1="-1.70254" y1="20.1383" x2="50.9874" y2="20.1383" gradientUnits="userSpaceOnUse">
<stop offset="0.15" stop-color="#92278F"/>
<stop offset="1" stop-color="#F16F5B"/>
</linearGradient>
<linearGradient id="paint2_linear_2048_860" x1="-1.70313" y1="23.1297" x2="50.9868" y2="23.1297" gradientUnits="userSpaceOnUse">
<stop offset="0.15" stop-color="#92278F"/>
<stop offset="1" stop-color="#F16F5B"/>
</linearGradient>
<linearGradient id="paint3_linear_2048_860" x1="-1.70388" y1="44.8248" x2="50.986" y2="44.8248" gradientUnits="userSpaceOnUse">
<stop offset="0.15" stop-color="#92278F"/>
<stop offset="1" stop-color="#F16F5B"/>
</linearGradient>
<linearGradient id="paint4_linear_2048_860" x1="-1.70273" y1="47.9012" x2="50.9872" y2="47.9012" gradientUnits="userSpaceOnUse">
<stop offset="0.15" stop-color="#92278F"/>
<stop offset="1" stop-color="#F16F5B"/>
</linearGradient>
<linearGradient id="paint5_linear_2048_860" x1="-1.70312" y1="41.2702" x2="50.9868" y2="41.2702" gradientUnits="userSpaceOnUse">
<stop offset="0.15" stop-color="#92278F"/>
<stop offset="1" stop-color="#F16F5B"/>
</linearGradient>
<linearGradient id="paint6_linear_2048_860" x1="-1.70417" y1="27.7566" x2="50.9858" y2="27.7566" gradientUnits="userSpaceOnUse">
<stop offset="0.15" stop-color="#92278F"/>
<stop offset="1" stop-color="#F16F5B"/>
</linearGradient>
<clipPath id="clip0_2048_860">
<rect width="194" height="54" fill="white" transform="translate(0 0.598633)"/>
</clipPath>
</defs>
</svg>
