<svg width="16" height="19" viewBox="0 0 16 19" fill="none" xmlns="http://www.w3.org/2000/svg">
<path d="M14.6275 8.39286C14.6275 13.6973 9.19454 16.9652 8.06548 17.5877C8.00293 17.6222 7.93267 17.6403 7.86123 17.6403C7.7898 17.6403 7.71954 17.6222 7.65699 17.5877C6.52708 16.9652 1.09576 13.6973 1.09576 8.39286C1.09576 4.16418 3.63297 1.2041 7.86166 1.2041C12.0903 1.2041 14.6275 4.16418 14.6275 8.39286Z" stroke="#92278F" stroke-width="1.38064" stroke-linecap="round" stroke-linejoin="round"/>
<path d="M4.47876 7.97035C4.47876 8.86756 4.83518 9.72803 5.4696 10.3625C6.10403 10.9969 6.96449 11.3533 7.86171 11.3533C8.75892 11.3533 9.61938 10.9969 10.2538 10.3625C10.8882 9.72803 11.2447 8.86756 11.2447 7.97035C11.2447 7.07314 10.8882 6.21267 10.2538 5.57824C9.61938 4.94382 8.75892 4.5874 7.86171 4.5874C6.96449 4.5874 6.10403 4.94382 5.4696 5.57824C4.83518 6.21267 4.47876 7.07314 4.47876 7.97035V7.97035Z" stroke="#92278F" stroke-width="1.38064" stroke-linecap="round" stroke-linejoin="round"/>
</svg>
