<svg width="18" height="22" viewBox="0 0 18 22" xmlns="http://www.w3.org/2000/svg">
<path d="M16.2546 19.7258H1.08789C0.800569 19.7258 0.525019 19.8399 0.321854 20.0431C0.11869 20.2462 0.0045532 20.5218 0.0045532 20.8091C0.0045532 21.0964 0.11869 21.372 0.321854 21.5751C0.525019 21.7783 0.800569 21.8924 1.08789 21.8924H16.2546C16.5419 21.8924 16.8174 21.7783 17.0206 21.5751C17.2237 21.372 17.3379 21.0964 17.3379 20.8091C17.3379 20.5218 17.2237 20.2462 17.0206 20.0431C16.8174 19.8399 16.5419 19.7258 16.2546 19.7258ZM1.08789 17.5591H1.18539L5.70289 17.1474C6.19775 17.0981 6.66059 16.8801 7.01372 16.5299L16.7637 6.77992C17.1421 6.38014 17.3467 5.84664 17.3324 5.29634C17.3182 4.74603 17.0864 4.22381 16.6879 3.84409L13.7196 0.875758C13.3321 0.511862 12.8245 0.303063 12.2932 0.289081C11.7618 0.275098 11.2439 0.456908 10.8379 0.799924L1.08789 10.5499C0.737716 10.9031 0.519683 11.3659 0.470386 11.8608L0.0045532 16.3783C-0.0100404 16.5369 0.0105487 16.6969 0.0648528 16.8467C0.119157 16.9965 0.205839 17.1325 0.31872 17.2449C0.419947 17.3453 0.539997 17.4248 0.671988 17.4787C0.803979 17.5326 0.945313 17.5599 1.08789 17.5591ZM12.2137 2.39242L15.1712 5.34992L13.0046 7.46242L10.1012 4.55909L12.2137 2.39242ZM2.57205 12.0449L8.67122 5.98909L11.5962 8.91409L5.52955 14.9808L2.27955 15.2841L2.57205 12.0449Z" />
</svg>
