<svg width="19" height="19" viewBox="0 0 19 19" fill="none" xmlns="http://www.w3.org/2000/svg">
<path d="M12.0822 16.7749L12.0911 16.7812C12.8673 17.2754 13.7888 17.49 14.7035 17.3896C15.6181 17.2891 16.4711 16.8796 17.1215 16.2288L17.6866 15.6638C17.8118 15.5386 17.9111 15.39 17.9789 15.2265C18.0466 15.063 18.0815 14.8877 18.0815 14.7107C18.0815 14.5337 18.0466 14.3584 17.9789 14.1948C17.9111 14.0313 17.8118 13.8827 17.6866 13.7576L15.3034 11.3762C15.1783 11.251 15.0297 11.1517 14.8662 11.0839C14.7026 11.0162 14.5273 10.9813 14.3503 10.9813C14.1733 10.9813 13.998 11.0162 13.8345 11.0839C13.671 11.1517 13.5224 11.251 13.3972 11.3762C13.1446 11.6288 12.8019 11.7708 12.4446 11.7708C12.0873 11.7708 11.7447 11.6288 11.492 11.3762L7.68147 7.56482C7.42886 7.31214 7.28696 6.96948 7.28696 6.61219C7.28696 6.2549 7.42886 5.91224 7.68147 5.65956C7.80668 5.53443 7.906 5.38585 7.97377 5.22232C8.04154 5.05878 8.07642 4.8835 8.07642 4.70648C8.07642 4.52946 8.04154 4.35418 7.97377 4.19064C7.906 4.02711 7.80668 3.87853 7.68147 3.7534L5.29921 1.37205C5.04653 1.11944 4.70387 0.977539 4.34658 0.977539C3.98929 0.977539 3.64663 1.11944 3.39395 1.37205L2.82803 1.93707C2.17731 2.58759 1.76799 3.44064 1.6677 4.35528C1.56742 5.26992 1.78218 6.1914 2.27649 6.96746L2.28188 6.97645C4.89245 10.8389 8.21925 14.1651 12.0822 16.7749V16.7749Z" stroke="#92278F" stroke-width="1.38064" stroke-linecap="round" stroke-linejoin="round"/>
</svg>
