<svg width="26" height="24" viewBox="0 0 26 24" xmlns="http://www.w3.org/2000/svg">
<path d="M0.8125 15.2599C1.02799 15.2599 1.23465 15.3455 1.38702 15.4979C1.5394 15.6502 1.625 15.8569 1.625 16.0724V20.1349C1.625 20.5659 1.7962 20.9792 2.10095 21.2839C2.4057 21.5887 2.81902 21.7599 3.25 21.7599H22.75C23.181 21.7599 23.5943 21.5887 23.899 21.2839C24.2038 20.9792 24.375 20.5659 24.375 20.1349V16.0724C24.375 15.8569 24.4606 15.6502 24.613 15.4979C24.7653 15.3455 24.972 15.2599 25.1875 15.2599C25.403 15.2599 25.6097 15.3455 25.762 15.4979C25.9144 15.6502 26 15.8569 26 16.0724V20.1349C26 20.9968 25.6576 21.8235 25.0481 22.433C24.4386 23.0425 23.612 23.3849 22.75 23.3849H3.25C2.38805 23.3849 1.5614 23.0425 0.951903 22.433C0.34241 21.8235 0 20.9968 0 20.1349V16.0724C0 15.8569 0.0856024 15.6502 0.237976 15.4979C0.390349 15.3455 0.597012 15.2599 0.8125 15.2599Z" />
<path d="M12.4248 1.0346C12.5002 0.958936 12.5899 0.898903 12.6886 0.857943C12.7873 0.816982 12.8931 0.795898 13 0.795898C13.1069 0.795898 13.2127 0.816982 13.3114 0.857943C13.4101 0.898903 13.4998 0.958936 13.5753 1.0346L18.4503 5.9096C18.6028 6.06217 18.6885 6.26909 18.6885 6.48485C18.6885 6.70061 18.6028 6.90754 18.4503 7.0601C18.2977 7.21267 18.0908 7.29838 17.875 7.29838C17.6592 7.29838 17.4523 7.21267 17.2998 7.0601L13.8125 3.57123V17.8598C13.8125 18.0753 13.7269 18.282 13.5745 18.4344C13.4222 18.5867 13.2155 18.6723 13 18.6723C12.7845 18.6723 12.5778 18.5867 12.4255 18.4344C12.2731 18.282 12.1875 18.0753 12.1875 17.8598V3.57123L8.70025 7.0601C8.62471 7.13564 8.53503 7.19557 8.43632 7.23645C8.33762 7.27734 8.23183 7.29838 8.125 7.29838C8.01817 7.29838 7.91238 7.27734 7.81368 7.23645C7.71498 7.19557 7.62529 7.13564 7.54975 7.0601C7.47421 6.98456 7.41428 6.89488 7.3734 6.79617C7.33252 6.69747 7.31147 6.59168 7.31147 6.48485C7.31147 6.37802 7.33252 6.27223 7.3734 6.17353C7.41428 6.07483 7.47421 5.98514 7.54975 5.9096L12.4248 1.0346Z"/>
</svg>
