<svg width="26" height="24" viewBox="0 0 26 24"  xmlns="http://www.w3.org/2000/svg">
<path fill-rule="evenodd" clip-rule="evenodd" d="M13.3114 18.6101C13.4101 18.5691 13.4997 18.5091 13.5752 18.4334L18.4502 13.5584C18.5257 13.4829 18.5857 13.3932 18.6266 13.2945C18.6674 13.1958 18.6885 13.09 18.6885 12.9832C18.6885 12.8763 18.6674 12.7705 18.6266 12.6718C18.5857 12.5731 18.5257 12.4834 18.4502 12.4079C18.3747 12.3324 18.285 12.2724 18.1863 12.2316C18.0876 12.1907 17.9818 12.1696 17.875 12.1696C17.7681 12.1696 17.6623 12.1907 17.5636 12.2316C17.4649 12.2724 17.3752 12.3324 17.2997 12.4079L13.8125 15.8968L13.8125 1.60815C13.8125 1.39267 13.7268 1.186 13.5745 1.03363C13.4221 0.881255 13.2154 0.795654 13 0.795654C12.7845 0.795654 12.5778 0.881255 12.4254 1.03363C12.2731 1.186 12.1875 1.39267 12.1875 1.60815L12.1875 15.8968L8.7002 12.4079C8.54764 12.2553 8.34071 12.1696 8.12495 12.1696C7.90919 12.1696 7.70227 12.2553 7.5497 12.4079C7.39713 12.5605 7.31142 12.7674 7.31142 12.9832C7.31142 13.1989 7.39713 13.4058 7.5497 13.5584L12.4247 18.4334C12.5002 18.5091 12.5898 18.5691 12.6885 18.6101C12.7873 18.651 12.8931 18.6721 13 18.6721C13.1068 18.6721 13.2126 18.651 13.3114 18.6101ZM1.38702 15.498C1.23465 15.3456 1.02799 15.26 0.8125 15.26C0.597012 15.26 0.390349 15.3456 0.237976 15.498C0.0856024 15.6503 0 15.857 0 16.0725V20.135C0 20.997 0.34241 21.8236 0.951903 22.4331C1.5614 23.0426 2.38805 23.385 3.25 23.385H22.75C23.612 23.385 24.4386 23.0426 25.0481 22.4331C25.6576 21.8236 26 20.997 26 20.135V16.0725C26 15.857 25.9144 15.6503 25.762 15.498C25.6097 15.3456 25.403 15.26 25.1875 15.26C24.972 15.26 24.7653 15.3456 24.613 15.498C24.4606 15.6503 24.375 15.857 24.375 16.0725V20.135C24.375 20.566 24.2038 20.9793 23.899 21.284C23.5943 21.5888 23.181 21.76 22.75 21.76H3.25C2.81902 21.76 2.4057 21.5888 2.10095 21.284C1.7962 20.9793 1.625 20.566 1.625 20.135V16.0725C1.625 15.857 1.5394 15.6503 1.38702 15.498Z" />
</svg>
