<svg width="387" height="356" viewBox="0 0 387 356" fill="none" xmlns="http://www.w3.org/2000/svg">
<path d="M303.031 14.5856C304.801 14.7917 306.54 15.2813 308.229 15.9879" stroke="#92278F" stroke-opacity="0.2" stroke-width="2" stroke-miterlimit="10" stroke-linecap="round"/>
<path d="M317.128 21.8861C321.478 25.8198 325.138 30.6792 327.693 34.8061C333.566 44.2959 339.869 53.6503 342.715 64.5761C346.028 77.3014 347.389 92.1799 346.026 105.257C343.619 128.329 334.282 148.073 316.611 163.317C301.222 176.591 283.851 185.984 263.894 190.476C242.914 195.2 225.601 193.843 206.226 183.744C186.192 173.304 168.069 159.532 162.592 136.583C160.705 128.683 160.073 118.278 166.312 111.848C170.18 107.862 176.363 108.949 181.233 109.924C201.699 114.021 219.264 133.79 223.862 153.618C228.279 172.671 227.816 196.798 216.955 213.705C206.682 229.698 190.017 243.405 172.644 251.058C163.561 255.061 154.833 256.364 145.032 256.904C134.581 257.481 122.899 259.499 112.515 257.568C105.163 256.201 98.6294 252.263 92.4144 248.302C84.2018 243.069 73.1782 235.465 67.7591 227.163C60.6207 216.226 69.889 203.286 82.1617 202.463C96.2781 201.517 110.156 217.212 115.654 228.976C122.211 243.006 121.059 264.032 111.605 276.655C104.176 286.574 91.1111 292.302 78.9292 291.122" stroke="#92278F" stroke-opacity="0.2" stroke-width="2" stroke-miterlimit="10" stroke-linecap="round" stroke-dasharray="5.96 5.96"/>
<path d="M73.6458 290.151C71.9183 289.671 70.2298 289.036 68.6006 288.234" stroke="#92278F" stroke-opacity="0.2" stroke-width="2" stroke-miterlimit="10" stroke-linecap="round"/>
<path d="M75.5838 262.653C75.8986 262.443 76.216 262.233 76.5308 262.022C74.7422 262.321 72.9803 262.693 71.2394 263.118" stroke="#92278F" stroke-opacity="0.2" stroke-width="2" stroke-miterlimit="10" stroke-linecap="round"/>
<path d="M61.0685 266.118C55.4914 267.958 49.9648 269.953 44.2104 271.391C39.5235 272.563 35.9044 273.494 31.483 274.979C29.8911 275.515 26.1623 275.677 24.9429 276.796C21.6999 279.77 29.2438 285.786 31.6682 288.075C36.9482 293.059 42.2614 298.044 47.5872 302.988C48.5607 303.892 50.2979 305.041 52.0817 306.361" stroke="#92278F" stroke-opacity="0.2" stroke-width="2" stroke-miterlimit="10" stroke-linecap="round" stroke-dasharray="5.89 5.89"/>
<path d="M56.0875 309.826C57.4741 311.362 58.3361 313.006 57.9742 314.686" stroke="#92278F" stroke-opacity="0.2" stroke-width="2" stroke-miterlimit="10" stroke-linecap="round"/>
</svg>
