<?xml version="1.0" encoding="utf-8"?><svg viewBox="0 0 1024 1024" xmlns="http://www.w3.org/2000/svg" xmlns:xlink="http://www.w3.org/1999/xlink"><style>:root>svg{display:none}:root>svg:target{display:block}</style><svg fill="none" viewBox="0 0 16 24" id="arrow-down" xmlns="http://www.w3.org/2000/svg"><path d="M16 16l-1.41-1.41L9 20.17V0H7v20.17l-5.58-5.59L0 16l8 8 8-8z" fill="#fff"/></svg><svg fill="none" viewBox="0 0 12 19" id="arrow-slider__next" xmlns="http://www.w3.org/2000/svg"><path d="M2.183 1.701l7.635 7.635-7.635 7.635" stroke="#fff" stroke-width="2.959" stroke-linecap="round" stroke-linejoin="round"/></svg><svg fill="none" viewBox="0 0 11 19" id="arrow-slider__prev" xmlns="http://www.w3.org/2000/svg"><path d="M9.26 16.971L1.625 9.336 9.26 1.701" stroke="#93288E" stroke-width="2.959" stroke-linecap="round" stroke-linejoin="round"/></svg><svg fill="none" viewBox="0 0 24 24" id="calendar" xmlns="http://www.w3.org/2000/svg"><path d="M15 4V2m0 2v2m0-2h-4.5M3 10v9a2 2 0 002 2h14a2 2 0 002-2v-9M3 10h18M3 10V6a2 2 0 012-2h2m14 6V6a2 2 0 00-2-2h-.5M7 2v4" stroke="#fff" stroke-width="1.5" stroke-linecap="round" stroke-linejoin="round"/></svg><svg viewBox="0 0 26 27" id="calender--upcoming" xmlns="http://www.w3.org/2000/svg"><path d="M5.688.09A.812.812 0 016.5.903v.812h13V.903a.812.812 0 111.625 0v.812h1.625A3.25 3.25 0 0126 4.965V22.84a3.25 3.25 0 01-3.25 3.25H3.25A3.25 3.25 0 010 22.84V4.965a3.25 3.25 0 013.25-3.25h1.625V.903A.812.812 0 015.688.09zm-4.063 6.5v16.25a1.625 1.625 0 001.625 1.625h19.5a1.625 1.625 0 001.625-1.625V6.59H1.625z"/></svg><svg fill="none" viewBox="0 0 84 70" id="chat" xmlns="http://www.w3.org/2000/svg"><path d="M24.5 44.594V21.375a1 1 0 00-1-1H8.666c-4.583 0-8.333 3.516-8.333 7.813v23.437c0 4.297 3.75 7.813 8.333 7.813h3.167a1 1 0 011 1v8.41c0 .876 1.045 1.328 1.684.73l10.527-9.87a1 1 0 01.684-.27h20.438c4.584 0 8.334-3.516 8.334-7.813v-6.27c0-.434-.4-.756-.834-.757H24.504a.004.004 0 01-.004-.004zM75.333.844h-37.5C33.25.844 29.5 4.359 29.5 8.656v30.25a1 1 0 001 1h27.77a1 1 0 01.685.27l10.527 9.87c.64.6 1.684.146 1.684-.73v-8.41a1 1 0 011-1h3.167c4.583 0 8.333-3.511 8.333-7.812V8.656c0-4.297-3.75-7.812-8.333-7.812z" fill="#fff"/></svg><svg fill="none" viewBox="0 0 29 29" id="chatbot" xmlns="http://www.w3.org/2000/svg"><path d="M27.156 12.934V8.75a2.813 2.813 0 00-2.812-2.812h-8.438V4.093a2.092 2.092 0 00.086-3.053 2.11 2.11 0 00-3.601 1.492c0 .621.274 1.175.703 1.56v1.846H4.656A2.813 2.813 0 001.844 8.75v4.216l-.102.007a1.405 1.405 0 00-1.304 1.402v2.813a1.406 1.406 0 001.406 1.406v7.031a2.812 2.812 0 002.812 2.813h19.688a2.812 2.812 0 002.812-2.813v-7.031a1.406 1.406 0 001.407-1.406v-2.726a1.412 1.412 0 00-.102-.64c-.284-.686-.893-.85-1.305-.888zM7.47 14.375c0-1.552.945-2.812 2.11-2.812 1.163 0 2.108 1.26 2.108 2.812 0 1.553-.944 2.813-2.109 2.813-1.164 0-2.11-1.26-2.11-2.813zm12.653 8.438c-1.407-.005-11.247 0-11.247 0V20s9.845-.003 11.253 0l-.006 2.813zm-.7-5.625c-1.165 0-2.11-1.26-2.11-2.813 0-1.552.945-2.812 2.11-2.812 1.164 0 2.11 1.26 2.11 2.812 0 1.553-.946 2.813-2.11 2.813z" fill="#ECF4FF"/></svg><svg fill="none" viewBox="0 0 20 17" id="chatbot-plane" xmlns="http://www.w3.org/2000/svg"><path d="M10.838 9.007l-7.724 1.05a.573.573 0 00-.242.09.432.432 0 00-.154.175L.054 16.143c-.254.535.432 1.046 1.062.788l18.46-7.529a.734.734 0 00.31-.231.545.545 0 00.114-.33c0-.116-.04-.23-.115-.33a.734.734 0 00-.31-.23L1.116.75C.487.496-.2 1.006.056 1.54l2.664 5.82c.031.069.084.13.154.177.07.046.153.077.242.09l7.724 1.05a.22.22 0 01.124.056.15.15 0 01.049.108.15.15 0 01-.05.109.22.22 0 01-.123.057h-.001z" fill="#999"/></svg><svg fill="none" viewBox="0 0 19 15" id="email" xmlns="http://www.w3.org/2000/svg"><path d="M18.08 3.05v8.219a2.055 2.055 0 01-2.055 2.054H3.698a2.054 2.054 0 01-2.054-2.054V3.05" stroke="#92278F" stroke-width="1.381" stroke-linecap="round" stroke-linejoin="round"/><path d="M18.08 3.05A2.054 2.054 0 0016.025.997H3.698a2.055 2.055 0 00-2.054 2.055l7.129 4.451a2.055 2.055 0 002.178 0l7.129-4.451z" stroke="#92278F" stroke-width="1.381" stroke-linecap="round" stroke-linejoin="round"/></svg><svg viewBox="0 0 12 21" id="facebook" xmlns="http://www.w3.org/2000/svg"><path d="M7.79 20.935v-9.123h3.537l.53-3.555H7.789v-2.27c0-1.03.33-1.731 2.036-1.731L12 4.255v-3.18a33.586 33.586 0 00-3.17-.14c-3.136 0-5.283 1.657-5.283 4.7v2.622H0v3.555h3.547v9.123h4.242z"/></svg><svg viewBox="0 0 21 21" id="instagram" xmlns="http://www.w3.org/2000/svg"><path fill-rule="evenodd" clip-rule="evenodd" d="M.392 10.935c0-3.995 0-5.992.951-7.43a5.733 5.733 0 011.618-1.618C4.4.935 6.397.935 10.391.935c3.995 0 5.993 0 7.431.952a5.734 5.734 0 011.618 1.618c.952 1.438.952 3.435.952 7.43 0 3.995 0 5.992-.952 7.43a5.734 5.734 0 01-1.618 1.618c-1.438.952-3.436.952-7.43.952-3.995 0-5.992 0-7.43-.952a5.734 5.734 0 01-1.619-1.617c-.951-1.439-.951-3.436-.951-7.43zm15.176 0a5.177 5.177 0 11-10.354 0 5.177 5.177 0 0110.354 0zm-5.177 3.426a3.426 3.426 0 100-6.85 3.426 3.426 0 000 6.85zm5.382-7.646a1.217 1.217 0 100-2.433 1.217 1.217 0 000 2.433z"/></svg><svg fill="none" viewBox="0 0 24 24" id="instagram-aside" xmlns="http://www.w3.org/2000/svg"><path d="M7.8 2h8.4A5.8 5.8 0 0122 7.8v8.4a5.8 5.8 0 01-5.8 5.8H7.8A5.8 5.8 0 012 16.2V7.8A5.8 5.8 0 017.8 2zm-.2 2A3.6 3.6 0 004 7.6v8.8A3.6 3.6 0 007.6 20h8.8a3.6 3.6 0 003.6-3.6V7.6A3.6 3.6 0 0016.4 4H7.6zm9.65 1.5a1.25 1.25 0 110 2.5 1.25 1.25 0 010-2.5zM12 7a5 5 0 110 10 5 5 0 010-10zm0 2a3 3 0 100 6 3 3 0 000-6z" fill="#767676"/></svg><svg viewBox="0 0 21 21" id="linkedin" xmlns="http://www.w3.org/2000/svg"><path d="M.087 3.258c0-.673.226-1.229.676-1.666.45-.438 1.036-.657 1.757-.657.708 0 1.28.216 1.718.647.45.444.676 1.023.676 1.737 0 .646-.22 1.185-.657 1.616-.45.445-1.042.667-1.776.667h-.02c-.707 0-1.28-.223-1.717-.667C.306 4.491.087 3.932.087 3.258zm.251 17.677V7.44h4.286v13.495H.338zm6.66 0h4.286V13.4c0-.472.052-.835.155-1.091.18-.458.453-.845.82-1.162.367-.316.827-.475 1.38-.475 1.442 0 2.163 1.017 2.163 3.05v7.213h4.285v-7.737c0-1.994-.45-3.505-1.351-4.536-.9-1.03-2.091-1.545-3.571-1.545-1.66 0-2.954.747-3.88 2.242v.04h-.02l.02-.04V7.44H6.998c.025.431.038 1.771.038 4.02 0 2.25-.013 5.408-.038 9.475z"/></svg><svg fill="none" viewBox="0 0 194 54" id="logo" xmlns="http://www.w3.org/2000/svg"><g clip-path="url(#anclip0_9_1104)" fill="#fff"><path d="M82.281 22.738c-.21 1.108-.546 1.998-1.007 2.653-.403.588-.99 1.05-1.721 1.36-.739.319-1.578.478-2.493.478-1.839 0-3.342-.646-4.458-1.922-.605-.688-1.066-1.545-1.385-2.56-.32-1.008-.479-2.166-.479-3.426 0-1.485.235-2.829.689-3.996a8.933 8.933 0 011.25-2.224c.504-.647 1.067-1.159 1.654-1.503.672-.394 1.478-.596 2.393-.596.613 0 1.158.1 1.645.294.487.193.966.512 1.419.94a6.032 6.032 0 011.368 1.872c.176.378.412.957.689 1.721.042.11.109.269.184.487h.16l-.143-5.238h-.185a2.026 2.026 0 01-.193.37c-.243.318-.587.352-1.074.167l-.982-.327c-1.075-.37-2.1-.546-3.056-.546a9.558 9.558 0 00-3.03.504c-1 .335-1.873.797-2.595 1.368-.931.747-1.67 1.738-2.19 2.963-.521 1.226-.79 2.578-.79 4.03 0 1.897.454 3.55 1.352 4.91.898 1.36 2.157 2.318 3.744 2.838.999.328 2.057.487 3.156.487 1.176 0 2.216-.184 3.106-.562.89-.37 1.595-.915 2.09-1.612.521-.722.865-1.704 1.016-2.93l-.15-.025.016.025zM99.91 13.831a9.115 9.115 0 00-3.013-2.275 8.276 8.276 0 00-3.551-.806c-.957 0-1.923.168-2.863.504a9.866 9.866 0 00-2.653 1.452c-1.091.848-1.939 1.855-2.51 2.989-.57 1.133-.856 2.384-.856 3.719 0 1.015.185 2.006.529 2.946.352.94.864 1.788 1.52 2.527a8.744 8.744 0 002.98 2.2 8.85 8.85 0 003.626.772c1.26 0 2.518-.269 3.685-.798a9.053 9.053 0 003.048-2.258 8.247 8.247 0 001.595-2.594c.369-.94.545-1.94.545-2.955 0-2.015-.705-3.845-2.099-5.431l.017.008zm-2.594 11.694c-.579.73-1.2 1.26-1.847 1.578-.646.328-1.401.487-2.25.487-.847 0-1.594-.168-2.232-.495-.647-.328-1.26-.856-1.83-1.578-1.276-1.604-1.914-3.593-1.914-5.927 0-1.326.176-2.586.52-3.736.344-1.158.84-2.149 1.477-2.946.538-.672 1.125-1.159 1.747-1.461.63-.302 1.376-.453 2.233-.453.856 0 1.628.15 2.258.461.638.303 1.217.79 1.738 1.461.638.806 1.133 1.796 1.486 2.955.344 1.15.528 2.393.528 3.685 0 2.36-.646 4.366-1.914 5.977v-.008zM116.901 27.112a1.914 1.914 0 01-.604-.537c-.252-.31-.563-.806-.924-1.486-.361-.68-.906-1.755-1.62-3.215-.302-.638-.537-1.092-.688-1.335a2.894 2.894 0 00-.495-.621c-.227-.21-.58-.412-1.05-.613l-.193-.084.21-.042c.579-.126 1.049-.26 1.385-.403.344-.143.663-.327.94-.546.924-.738 1.394-1.729 1.394-2.955 0-.822-.218-1.561-.638-2.182-.428-.621-1.041-1.1-1.813-1.42-.697-.276-1.671-.444-2.897-.494-.31 0-.948-.017-1.914-.017h-5.733v.143a3.97 3.97 0 011.074.193c.302.109.563.285.781.52.26.26.445.605.537 1.007.093.395.135 1.016.135 1.847v8.865c0 .831-.042 1.444-.135 1.847a2.02 2.02 0 01-.537 1.008 1.98 1.98 0 01-.772.512c-.277.109-.638.176-1.083.201v.143h7.555v-.143c-.445-.025-.806-.092-1.083-.201a2.07 2.07 0 01-.772-.512c-.26-.26-.437-.605-.529-1.008-.092-.403-.143-1.016-.143-1.838v-4.324h.655c.361 0 .68.034.932.11.26.067.495.184.722.352.428.328.915.932 1.427 1.813a31.226 31.226 0 011.528 3.048l.839 1.914c.051.117.177.386.37.797h3.878v-.15a2.184 2.184 0 01-.739-.194zm-9.091-7.891h-.462v-7.748h.495c.857 0 1.52.05 1.99.167a3 3 0 011.2.571c.437.361.773.823 1.016 1.377.244.554.369 1.15.369 1.788 0 1.192-.419 2.183-1.259 2.98-.378.353-.78.588-1.209.697-.428.11-1.141.168-2.132.168h-.008zM134.967 15.745a8.073 8.073 0 00-2.603-3.097c-1.166-.823-2.602-1.302-4.273-1.428-.402-.033-1.343-.05-2.795-.05h-6.548v.143c.739.05 1.318.235 1.713.562.319.269.545.621.654 1.041.11.412.168 1.066.168 1.956v8.865c0 .823-.042 1.436-.142 1.839-.093.402-.269.747-.529 1.007a2.129 2.129 0 01-.781.52c-.269.101-.63.168-1.075.194v.142h8.823c1.025 0 2.049-.092 3.031-.277 1.31-.243 2.418-.822 3.299-1.72.621-.639 1.117-1.453 1.469-2.427a9.08 9.08 0 00.529-3.114c0-1.503-.311-2.905-.932-4.173l-.008.017zm-2.275 6.993a7.59 7.59 0 01-1.259 2.443c-.554.73-1.201 1.276-1.906 1.603-.705.328-1.57.496-2.56.496-1.167 0-2.032-.328-2.552-.966a2.49 2.49 0 01-.504-1.074c-.092-.412-.134-1.016-.134-1.805v-12.03h1.519c1.041 0 1.914.092 2.594.277 1.242.344 2.325 1.066 3.224 2.14.646.773 1.141 1.688 1.494 2.712.344 1.033.52 2.133.52 3.266a9.794 9.794 0 01-.428 2.93l-.008.008zM150.371 22.788a11.498 11.498 0 01-.487 1.705c-.185.445-.42.848-.713 1.2-.412.52-.957.907-1.621 1.159-.654.243-1.477.369-2.443.369-.965 0-1.67-.134-2.233-.411a2.675 2.675 0 01-1.276-1.302 3.99 3.99 0 01-.327-1.276c-.059-.495-.084-1.31-.084-2.409v-2.82h.756c.596 0 1.099.058 1.486.184.394.126.721.32.965.58.252.268.453.604.596.99.134.37.243.856.319 1.444h.151l.05-6.322h-.151c-.067.588-.159 1.042-.26 1.352a2.226 2.226 0 01-.512.848c-.243.26-.554.436-.932.537-.369.101-.932.143-1.662.143h-.789v-7.354h2.821c.847 0 1.544.059 2.056.176.521.118.982.32 1.36.605.462.336.823.739 1.066 1.192.235.436.412.982.512 1.637h.152l-.202-3.845h-12.802v.143c.437.025.806.092 1.083.193.294.109.554.285.781.52.251.26.428.605.529 1.008.092.403.142 1.015.142 1.838v8.865c0 .814-.042 1.436-.142 1.839-.093.402-.269.747-.529 1.007a2.032 2.032 0 01-.789.52c-.278.101-.638.168-1.067.194v.142h14.221l.151-4.65h-.176zM166.255 22.637a12.09 12.09 0 01-.487 1.755c-.185.462-.42.881-.697 1.242-.419.538-.973.94-1.637 1.192-.654.252-1.477.386-2.434.386-.957 0-1.671-.134-2.233-.41a2.762 2.762 0 01-1.285-1.302c-.159-.327-.277-.772-.327-1.293-.059-.52-.084-1.326-.084-2.384v-6.942c0-.84.05-1.478.143-1.88.101-.412.294-.765.571-1.034.226-.21.478-.369.772-.47.269-.092.621-.15 1.041-.184v-.143h-7.555v.143c.411.016.755.075 1.015.168.286.1.546.26.773.47.277.268.478.613.579 1.024.101.411.151 1.05.151 1.897v8.865c0 .814-.042 1.436-.143 1.839-.092.402-.268.747-.529 1.007-.436.453-1.066.697-1.855.705v.151h14.229l.152-4.802-.168-.016.008.016zM172.97 13.403c.076-.58.277-1.04.596-1.377a2.2 2.2 0 01.789-.52c.277-.1.638-.168 1.067-.193v-.143h-7.556v.143c.437.025.798.092 1.075.193.302.109.562.285.78.52.261.26.445.605.538 1.008.092.394.134 1.015.134 1.847v8.864c0 .832-.042 1.444-.134 1.847a2.03 2.03 0 01-.538 1.008 1.973 1.973 0 01-.772.512c-.277.109-.638.176-1.083.201v.143h7.556v-.143c-.521-.033-.949-.134-1.276-.285a2.012 2.012 0 01-.832-.739c-.151-.243-.26-.562-.327-.949-.067-.386-.101-.923-.101-1.586v-8.865c0-.554.025-1.05.076-1.477l.008-.009zM192.816 27.112a2.156 2.156 0 01-.68-.344c-.277-.21-.538-.529-.773-.949-.235-.411-.545-1.1-.94-2.056l-5.213-12.601h-.596l-4.382 11.3a41.929 41.929 0 01-.974 2.333c-.252.52-.504.949-.764 1.285-.311.41-.63.722-.957.906-.311.185-.68.286-1.083.32v.142h5.255v-.151c-.47-.042-.864-.177-1.175-.395a1.792 1.792 0 01-.554-.646 1.869 1.869 0 01-.202-.856c0-.512.185-1.218.546-2.107l.302-.748.638-1.704h5.381l1.377 3.383c.227.563.336 1.016.336 1.352 0 .57-.26 1.032-.772 1.351-.286.177-.764.303-1.461.361v.151h7.774v-.15c-.471-.05-.832-.118-1.075-.194l-.008.017zm-11.325-6.69l2.384-6.23 2.527 6.23h-4.911zM97.634 41.745a1.86 1.86 0 01-.808.64 2.919 2.919 0 01-1.169.223c-.853 0-1.559-.307-2.078-.9a3.177 3.177 0 01-.64-1.188 5.29 5.29 0 01-.223-1.587c0-.687.111-1.309.324-1.847a3.86 3.86 0 01.585-1.03c.232-.306.492-.538.77-.696.316-.185.696-.278 1.123-.278a2 2 0 01.77.139c.232.093.455.241.668.445.279.26.492.557.64.873.084.176.196.445.316.798.019.046.037.111.075.194l-.066-2.32h-.009a.526.526 0 01-.083.15c-.12.157-.297.185-.548.092l-.445-.149a4.333 4.333 0 00-1.392-.25c-.455 0-.919.074-1.374.232a3.745 3.745 0 00-1.178.622c-.427.334-.761.788-.993 1.345a4.604 4.604 0 00-.362 1.837c0 .863.204 1.615.613 2.237a3.207 3.207 0 001.698 1.29c.454.148.937.223 1.438.223.529 0 1.012-.084 1.41-.251a2.27 2.27 0 00.947-.724c.195-.269.325-.612.409-1.03-.103.38-.233.696-.409.937l-.01-.027z"/><path fill-rule="evenodd" clip-rule="evenodd" d="M97.723 41.745v.001a1.755 1.755 0 01-.217.283 2.299 2.299 0 01-.81.56c-.398.167-.88.25-1.41.25-.5 0-.983-.073-1.438-.222a3.207 3.207 0 01-1.698-1.29c-.409-.621-.613-1.373-.613-2.236 0-.659.121-1.28.362-1.837.232-.557.566-1.012.993-1.346.325-.26.724-.473 1.179-.622a4.2 4.2 0 011.447-.231 3.994 3.994 0 01.879.121c.144.035.29.078.439.129l.445.148c.251.093.427.065.548-.093a.654.654 0 00.083-.148h.01l.065 2.32a1.762 1.762 0 01-.075-.195l-.016-.049a7.736 7.736 0 00-.299-.75 2.86 2.86 0 00-.64-.871 2.163 2.163 0 00-.668-.446 2 2 0 00-.845-.138 2.37 2.37 0 00-.682.113c-.13.043-.253.097-.367.164-.278.158-.538.39-.77.696-.241.297-.436.65-.584 1.03-.214.539-.325 1.16-.325 1.847 0 .585.074 1.114.223 1.587.139.464.362.872.64 1.188.52.594 1.225.9 2.079.9a2.92 2.92 0 001.169-.223c.243-.105.45-.243.618-.414a1.74 1.74 0 00.128-.144l.006-.008.001-.001.025-.032c.006-.01.013-.018.02-.027l.01-.014.008.028.01-.015a2.474 2.474 0 00.05-.073c.147-.228.258-.513.349-.85a2.795 2.795 0 01-.329.91zm-.055-.164l-.007-.022-.096.138a1.774 1.774 0 01-.772.61c-.33.144-.709.217-1.136.217-.831 0-1.512-.298-2.015-.872a3.095 3.095 0 01-.623-1.156v-.001a5.204 5.204 0 01-.219-1.562c0-.678.11-1.289.319-1.816.146-.373.337-.718.572-1.008l.001-.002a2.48 2.48 0 01.745-.673l.001-.001c.3-.177.666-.267 1.08-.267.28 0 .528.045.738.133h.001c.22.089.434.23.641.428.271.253.479.542.623.848.082.173.192.439.312.79l.001.003.019.05.01.03c.012.034.027.074.047.118l.16-.037-.066-2.401h-.147l-.022.05a.998.998 0 01-.038.082.196.196 0 01-.028.04l-.007.01a.263.263 0 01-.172.108.558.558 0 01-.28-.044l-.447-.149a4.42 4.42 0 00-1.419-.255c-.464 0-.937.076-1.4.236-.463.152-.87.37-1.204.636-.44.344-.782.81-1.018 1.379a4.69 4.69 0 00-.369 1.87c0 .876.208 1.645.626 2.282.42.629 1 1.077 1.742 1.324.464.151.956.227 1.465.227.538 0 1.032-.085 1.443-.257.413-.173.74-.432.981-.75l.002-.002c.204-.282.337-.638.422-1.063l-.164-.038c-.08.302-.179.559-.302.767z"/><path d="M111.172 42.553a.812.812 0 01-.288-.26c-.12-.14-.259-.371-.426-.687a41.272 41.272 0 01-.743-1.485c-.139-.287-.241-.5-.315-.612a1.384 1.384 0 00-.214-.278 1.764 1.764 0 00-.473-.279l-.214-.093.232-.046c.26-.056.474-.12.632-.186.157-.065.296-.148.426-.24.418-.335.622-.771.622-1.328 0-.371-.093-.696-.288-.974a1.753 1.753 0 00-.816-.631c-.316-.12-.761-.204-1.318-.223h-3.303c.12.019.213.037.306.074.139.047.269.14.38.25.121.13.214.288.26.483.037.186.065.474.065.854v4.074c0 .38-.019.668-.065.854a.975.975 0 01-.26.482 1.012 1.012 0 01-.371.25 1.236 1.236 0 01-.306.075h3.062a1.225 1.225 0 01-.306-.074 1.012 1.012 0 01-.371-.25 1.048 1.048 0 01-.251-.483c-.046-.195-.065-.464-.065-.854v-5.707h.297c.399 0 .705.028.928.074.223.056.418.149.585.279.204.176.371.399.492.658.12.27.176.548.176.854 0 .566-.204 1.04-.603 1.42a1.446 1.446 0 01-.594.343 3.093 3.093 0 01-.631.075c.046 0 .093.018.139.027.121.038.241.093.343.167.204.158.427.437.668.845.242.408.474.881.706 1.41l.389.882c.028.046.075.167.158.343h1.624a1.134 1.134 0 01-.232-.074l-.037-.01z"/><path fill-rule="evenodd" clip-rule="evenodd" d="M111.172 42.552a.815.815 0 01-.287-.259c-.12-.14-.259-.371-.426-.687a43.054 43.054 0 01-.743-1.484l-.022-.046c-.128-.265-.223-.462-.293-.567a1.351 1.351 0 00-.214-.278 1.764 1.764 0 00-.473-.279l-.213-.093.232-.046c.259-.056.473-.12.631-.186.157-.064.297-.148.426-.24.418-.335.622-.77.622-1.328 0-.37-.093-.696-.287-.974a1.756 1.756 0 00-.817-.631c-.316-.12-.761-.204-1.318-.223h-3.303c.12.019.213.037.306.074l.028.01a1.04 1.04 0 01.612.724c.037.185.065.473.065.853v4.074c0 .38-.018.668-.065.854a.975.975 0 01-.26.482 1.002 1.002 0 01-.347.24c-.008.004-.016.008-.024.01a1.225 1.225 0 01-.306.075h3.062a1.236 1.236 0 01-.306-.074l-.024-.01a1.002 1.002 0 01-.598-.723c-.046-.195-.065-.464-.065-.854v-5.707h.353c.319.002.576.023.777.056l.095.018c.223.056.418.149.585.279.204.176.371.399.492.658.12.27.176.548.176.854 0 .566-.204 1.04-.603 1.42a1.446 1.446 0 01-.594.343 2.46 2.46 0 01-.481.067h-.004a4.96 4.96 0 01-.146.008c.031 0 .062.008.093.016a1.263 1.263 0 01.162.053c.08.033.158.075.227.126.205.157.427.436.669.844.241.408.473.882.705 1.41l.39.882c.014.025.034.07.062.133.025.056.056.127.095.21h1.624a1.134 1.134 0 01-.232-.074l-.037-.01h-.001zm.031-.078a.738.738 0 01-.249-.23l-.005-.006c-.114-.131-.249-.355-.416-.671a44.834 44.834 0 01-.766-1.533 5.725 5.725 0 00-.295-.57 1.46 1.46 0 00-.225-.293l-.003-.003a1.781 1.781 0 00-.465-.279c.251-.055.459-.119.617-.184.165-.068.31-.155.443-.25l.004-.003c.439-.35.653-.812.653-1.393 0-.386-.096-.728-.302-1.022a1.842 1.842 0 00-.855-.661h-.001c-.327-.126-.782-.21-1.345-.229h-3.306l-.013.167c.119.019.204.036.288.07l.004.001c.123.041.241.124.347.23.111.12.195.263.238.441.035.179.063.46.063.836v4.074c0 .38-.019.659-.063.833a.9.9 0 01-.237.444l-.003.002a.927.927 0 01-.34.23h-.003a1.16 1.16 0 01-.285.069l.013.167h3.062l.013-.167a1.16 1.16 0 01-.285-.068l-.003-.001a.927.927 0 01-.571-.675c-.044-.184-.062-.445-.062-.834v-5.623h.212c.395 0 .694.028.909.072.211.053.394.14.55.262a1.857 1.857 0 01.638 1.447c0 .543-.195.994-.576 1.358a1.36 1.36 0 01-.558.324 3.003 3.003 0 01-.613.071l.003.169c.012 0 .028.002.049.008l.018.005.051.012c.112.035.222.086.314.153.191.148.407.416.646.82.239.404.469.874.701 1.401l.39.882.004.01c.011.017.027.052.053.113l.005.01c.025.056.056.128.096.212l.023.049h1.677l.017-.167a1.06 1.06 0 01-.216-.07l-.006-.002-.034-.008z"/><path d="M123.162 35.23c.121.02.213.038.306.075.139.047.269.14.381.25.12.13.204.288.25.483.047.186.065.473.065.854v3.09c0 .566 0 .928-.018 1.077a2.365 2.365 0 01-.139.603 1.484 1.484 0 01-.335.445 2.55 2.55 0 01-.9.501c-.352.12-.733.177-1.123.177-.389 0-.742-.066-1.011-.205a1.792 1.792 0 01-.687-.658 1.78 1.78 0 01-.241-.65c-.037-.232-.056-.603-.056-1.114v-3.127c0-.455.019-.77.056-.965.037-.195.13-.362.26-.501a.91.91 0 01.371-.25c.084-.029.186-.056.306-.075h-3.062c.121.019.223.037.306.074a.91.91 0 01.371.25c.121.13.214.289.26.483.037.186.065.474.065.854v3.36c0 .417.009.705.037.872.056.436.242.788.548 1.058.473.426 1.234.64 2.255.64s1.735-.232 2.255-.678c.222-.194.371-.408.445-.64.074-.241.121-.612.121-1.123v-3.489c0-.39.018-.668.065-.854.046-.194.13-.361.25-.482.112-.111.242-.204.381-.25.083-.029.185-.056.297-.075h-2.079v-.01z"/><path fill-rule="evenodd" clip-rule="evenodd" d="M123.078 35.133l.097.015.052.008h2.014l.014.167a1.91 1.91 0 00-.285.071.926.926 0 00-.347.23.919.919 0 00-.228.443c-.044.175-.063.445-.063.834v3.49c0 .513-.046.894-.124 1.147l-.001.001c-.079.25-.238.475-.47.678-.54.463-1.277.698-2.31.698-1.029 0-1.815-.214-2.311-.661a1.717 1.717 0 01-.575-1.109c-.029-.175-.038-.47-.038-.884V36.9c0-.376-.027-.657-.063-.835a.98.98 0 00-.239-.444.832.832 0 00-.336-.228l-.008-.002a1.158 1.158 0 00-.285-.069l.013-.167h3.062l.013.168a1.772 1.772 0 00-.292.07.83.83 0 00-.336.228.926.926 0 00-.239.46c-.036.186-.054.495-.054.95v3.127c0 .51.018.875.054 1.1.036.22.115.433.23.618.179.286.4.497.654.629.253.13.591.194.973.194a3.38 3.38 0 001.095-.171 2.48 2.48 0 00.871-.484c.141-.132.245-.272.314-.417.06-.148.105-.343.132-.579.018-.142.018-.496.018-1.067v-3.09c0-.38-.019-.659-.062-.833l-.001-.001a.954.954 0 00-.229-.444.923.923 0 00-.346-.229l-.005-.002a1.082 1.082 0 00-.224-.059h-.135v-.191zm.442.191c.119.05.231.134.329.232.12.13.204.287.25.482.043.172.062.43.065.77V40.39c-.001.335-.005.559-.018.668a2.768 2.768 0 01-.082.434c-.017.06-.036.118-.057.169a1.497 1.497 0 01-.334.445l-.018.016a2.56 2.56 0 01-.883.485 3.463 3.463 0 01-1.644.132 1.763 1.763 0 01-.49-.16 1.792 1.792 0 01-.687-.658 1.78 1.78 0 01-.241-.65c-.037-.232-.056-.603-.056-1.114v-3.127c0-.454.019-.77.056-.965.037-.195.13-.362.26-.501a.927.927 0 01.343-.24l.028-.01c.084-.028.186-.056.306-.075h-3.062a1.22 1.22 0 01.334.084.92.92 0 01.343.241c.121.13.214.288.26.483.037.185.065.473.065.853v3.36c0 .417.01.705.037.872.056.436.242.789.548 1.058.424.382 1.08.593 1.946.633a6.876 6.876 0 00.532.003 4.174 4.174 0 001.135-.181c.352-.114.647-.278.897-.492l.018-.016h.001c.157-.142.275-.292.356-.453l.001-.002c.028-.055.051-.112.069-.17.036-.117.066-.266.087-.446a5.95 5.95 0 00.034-.676V36.9v-.009-.085c.003-.34.022-.59.065-.76a1.003 1.003 0 01.603-.722l.028-.01c.083-.028.185-.056.297-.075h-2.021a3.232 3.232 0 00-.058-.009v.01h.058a1.176 1.176 0 01.3.084z"/><path d="M132.786 41.82a.983.983 0 01-.26.483 1.092 1.092 0 01-.371.25 1.247 1.247 0 01-.306.075h3.071a1.51 1.51 0 01-.408-.121.914.914 0 01-.399-.353 1.375 1.375 0 01-.158-.455c-.037-.185-.046-.417-.046-.733v-4.073c0-.26 0-.483.037-.687.037-.279.13-.501.288-.659a.94.94 0 01.38-.25c.084-.028.186-.056.297-.075h-3.062c.12.019.213.037.306.075a.91.91 0 01.371.25c.121.13.213.288.26.483.037.185.065.473.065.853v4.074c0 .38-.019.668-.065.854v.01z"/><path fill-rule="evenodd" clip-rule="evenodd" d="M132.179 42.543c.129-.055.242-.136.347-.24a.976.976 0 00.26-.483v-.01c.046-.185.065-.473.065-.853v-4.074c0-.38-.028-.668-.065-.854a1.051 1.051 0 00-.26-.482.92.92 0 00-.343-.24 1.353 1.353 0 00-.334-.084h3.062a2.003 2.003 0 00-.326.083.956.956 0 00-.351.241c-.158.158-.251.38-.288.659-.037.204-.037.427-.037.686v4.074c0 .316.009.548.046.733.037.186.084.334.158.455a.915.915 0 00.399.353.93.93 0 00.083.036c.095.036.205.063.325.084h-3.071c.12-.018.222-.037.306-.074l.024-.01zm2.005-.434a.836.836 0 00.362.32l.004.002c.1.05.23.086.385.113l-.015.168h-3.071l-.013-.168a1.16 1.16 0 00.285-.068l.003-.001c.127-.051.238-.128.343-.232a.897.897 0 00.235-.433v-.01l.002-.01c.044-.174.063-.453.063-.833v-4.074c0-.376-.028-.657-.063-.836a.971.971 0 00-.24-.443.825.825 0 00-.336-.228l-.004-.001a1.276 1.276 0 00-.288-.07l.013-.167h3.062l.014.167a1.895 1.895 0 00-.284.071h-.002a.858.858 0 00-.346.23c-.141.141-.228.344-.264.61v.005c-.036.195-.036.41-.036.672v4.073c0 .316.009.54.045.717.036.181.08.318.146.426z"/><path d="M145.648 39.277c-.26-.334-.687-.64-1.271-.919l-.78-.38c-.816-.39-1.234-.91-1.234-1.56 0-.157.028-.324.093-.491.056-.167.139-.306.25-.427.251-.297.604-.445 1.03-.445.297 0 .557.074.789.222.223.14.436.362.622.66.102.157.186.343.26.528.065.176.148.427.241.742l-.037-2.023c-.074.223-.204.279-.316.279a.641.641 0 01-.204-.037l-.38-.14a3.444 3.444 0 00-.585-.204 1.83 1.83 0 00-.464-.046c-.51 0-.965.176-1.336.52a2.107 2.107 0 00-.677 1.559c0 .473.148.881.454 1.215.112.12.26.242.436.362.186.12.455.27.798.446.399.204.696.37.891.51.204.14.362.288.474.436.111.149.194.325.259.53.065.203.093.398.093.593 0 .455-.148.835-.436 1.132-.288.297-.659.446-1.104.446-.631 0-1.16-.325-1.578-.965-.204-.325-.39-.77-.547-1.328l-.019 2.116a.434.434 0 01.418-.269c.065 0 .12 0 .176.028.046.019.186.074.418.176.426.186.881.279 1.345.279.501 0 .947-.121 1.318-.344a2.08 2.08 0 00.835-.965c.13-.297.195-.612.195-.937a2.03 2.03 0 00-.436-1.29l.009-.01z"/><path fill-rule="evenodd" clip-rule="evenodd" d="M145.638 39.286c.288.362.436.798.436 1.29 0 .325-.065.64-.195.937a2.074 2.074 0 01-.835.965c-.309.185-.669.3-1.07.333a3.014 3.014 0 01-.461.004 3.358 3.358 0 01-1.132-.272 12.3 12.3 0 00-.418-.176c-.055-.028-.111-.028-.176-.028a.426.426 0 00-.332.139.54.54 0 00-.086.13l.019-2.116c.026.094.054.184.082.272.139.431.296.785.465 1.055.224.343.479.595.764.755.249.14.52.21.814.21a1.849 1.849 0 00.447-.056c.252-.068.472-.198.657-.389.288-.297.436-.677.436-1.132 0-.195-.027-.39-.092-.594a1.769 1.769 0 00-.26-.529 1.999 1.999 0 00-.473-.436 7.622 7.622 0 00-.891-.51 9.475 9.475 0 01-.798-.446 2.59 2.59 0 01-.437-.362c-.306-.334-.454-.742-.454-1.215 0-.297.055-.585.176-.854.121-.27.288-.51.501-.706a1.931 1.931 0 011.411-.518c.139.002.271.014.389.045.109.022.258.072.433.142l.096.039.056.023.229.084.152.056a.63.63 0 00.204.037.285.285 0 00.234-.118.522.522 0 00.081-.16l.037 2.022a10.573 10.573 0 00-.241-.742 3.103 3.103 0 00-.26-.529 2.155 2.155 0 00-.533-.599 1.37 1.37 0 00-.491-.236h-.002a1.537 1.537 0 00-.459-.045 1.38 1.38 0 00-.613.162c-.129.07-.243.165-.342.282-.112.12-.195.26-.251.427a1.355 1.355 0 00-.093.492c0 .65.418 1.169 1.234 1.559l.78.38c.585.278 1.011.585 1.271.919l-.009.009zm.112.007c.27.366.408.8.408 1.283 0 .336-.067.663-.202.97a2.158 2.158 0 01-.869 1.004 2.615 2.615 0 01-1.361.356c-.475 0-.941-.095-1.379-.286-.23-.101-.369-.157-.415-.175l-.007-.003c-.035-.017-.07-.019-.138-.019a.366.366 0 00-.205.055.396.396 0 00-.137.166l-.16-.037.019-2.115.165-.023c.156.552.339.99.537 1.305.406.622.911.926 1.507.926.425 0 .773-.14 1.044-.42.271-.28.412-.638.412-1.073 0-.187-.026-.373-.089-.569a1.66 1.66 0 00-.247-.503 1.881 1.881 0 00-.453-.417l-.001-.002c-.19-.135-.482-.3-.881-.504a9.644 9.644 0 01-.805-.45h-.002a2.653 2.653 0 01-.45-.375c-.322-.35-.477-.78-.477-1.273 0-.307.057-.607.183-.888a2.21 2.21 0 01.521-.733 2.003 2.003 0 011.393-.541c.168 0 .334.009.484.048.147.03.357.107.596.208l.226.083.152.055c.075.025.13.033.176.033.041 0 .082-.01.121-.04a.357.357 0 00.114-.181l.164.025.038 2.023-.165.025a11.837 11.837 0 00-.24-.736 2.945 2.945 0 00-.252-.513v-.001c-.181-.29-.386-.502-.595-.632h-.001a1.34 1.34 0 00-.743-.21c-.406 0-.734.14-.966.415l-.002.003c-.104.112-.181.24-.233.396l-.001.004a1.27 1.27 0 00-.087.462c0 .604.384 1.1 1.186 1.483l.78.38c.59.281 1.03.594 1.301.943l.045.059-.009.01z"/><path d="M158.936 41.328a2.263 2.263 0 01-.334.556 1.831 1.831 0 01-.761.548c-.307.12-.687.176-1.132.176-.446 0-.78-.065-1.049-.195a1.27 1.27 0 01-.603-.621 1.945 1.945 0 01-.158-.604c-.028-.232-.037-.603-.037-1.113v-1.337h.39c.278 0 .51.028.696.084.185.056.343.158.464.278.12.13.213.288.287.464.056.149.102.334.13.548l.019-2.626a2.165 2.165 0 01-.112.482.98.98 0 01-.686.668c-.177.047-.436.065-.78.065h-.408V35.24h1.336c.39 0 .715.028.956.084a1.755 1.755 0 011.141.844c.093.176.167.38.214.622l-.084-1.578h-5.633c.121.019.214.037.307.074a.91.91 0 01.371.25c.121.13.204.289.25.483.038.195.065.465.065.854v4.074c0 .38-.027.668-.065.854a.936.936 0 01-.259.482 1.016 1.016 0 01-.381.25 1.94 1.94 0 01-.297.075h6.283l.065-2.004c-.065.287-.13.52-.205.705l.01.019z"/><path fill-rule="evenodd" clip-rule="evenodd" d="M157.542 42.524c.106-.025.206-.056.299-.092a1.83 1.83 0 00.761-.548c.13-.157.25-.352.334-.556l-.009-.02c.037-.094.073-.2.107-.32.033-.115.065-.243.097-.384l-.065 2.004h-2.357c.31 0 .589-.027.833-.084zm-.833 0c.439 0 .808-.055 1.101-.17.294-.116.541-.294.726-.523.118-.142.228-.317.307-.5l-.009-.018.014-.035c.072-.18.136-.407.201-.693l.166.021-.068 2.086h-6.364l-.013-.167c.106-.018.204-.044.284-.071a.917.917 0 00.347-.23l.002-.002a.843.843 0 00.235-.44c.036-.178.063-.459.063-.835v-4.074a4.5 4.5 0 00-.063-.836.954.954 0 00-.23-.443.824.824 0 00-.336-.228l-.004-.001a1.276 1.276 0 00-.288-.07l.013-.167h5.712l.088 1.657-.167.02a2.136 2.136 0 00-.205-.597 1.677 1.677 0 00-1.086-.802 4.357 4.357 0 00-.937-.082h-1.252v3.293h.324c.343 0 .593-.019.758-.062a.9.9 0 00.628-.61l.002-.007c.043-.112.079-.263.106-.464l.168.012-.018 2.626-.168.01a2.408 2.408 0 00-.125-.526 1.485 1.485 0 00-.27-.437 1.025 1.025 0 00-.427-.256 2.389 2.389 0 00-.672-.08h-.306v1.252c0 .51.01.877.037 1.103.027.235.081.43.15.578.122.261.313.46.564.581.254.123.574.187 1.012.187zm-.748 0a1.698 1.698 0 01-.301-.11 1.269 1.269 0 01-.603-.623 1.972 1.972 0 01-.158-.603c-.028-.232-.037-.603-.037-1.113v-1.337H155.27c.167.001.316.012.449.033.083.013.159.03.229.05.185.057.343.159.464.28a1.574 1.574 0 01.336.61c.034.119.062.253.081.4l.019-2.625a2.512 2.512 0 01-.111.482c-.047.158-.13.288-.242.408a.975.975 0 01-.445.26c-.088.024-.198.04-.328.05-.13.01-.28.015-.452.015h-.408V35.24h1.336c.321 0 .597.019.819.056.048.008.094.018.137.028a1.77 1.77 0 011.142.844 2.18 2.18 0 01.213.622l-.084-1.578h-5.632c.12.019.213.037.306.074l.028.01a.927.927 0 01.343.24c.121.13.204.289.251.483.037.195.065.465.065.854v4.074c0 .38-.028.668-.065.854a.944.944 0 01-.26.482 1.034 1.034 0 01-.381.25 1.94 1.94 0 01-.297.075h3.926c-.293 0-.538-.028-.748-.084z"/><path d="M169.877 39.277c-.26-.334-.687-.64-1.272-.919l-.779-.38c-.817-.39-1.225-.91-1.225-1.56 0-.157.028-.324.093-.491.055-.167.139-.306.25-.427.251-.297.603-.445 1.03-.445.297 0 .566.074.789.222.223.14.436.362.612.66.103.157.195.343.27.528.065.176.148.427.241.742l-.037-2.023c-.075.223-.204.279-.316.279a.557.557 0 01-.195-.037l-.38-.14a3.17 3.17 0 00-.585-.204 1.83 1.83 0 00-.464-.046c-.51 0-.965.176-1.336.52-.213.195-.38.436-.501.705-.121.269-.186.557-.186.854 0 .473.158.881.455 1.215.111.12.26.242.436.362s.446.27.798.446c.399.204.696.37.9.51.204.14.362.288.464.436.112.149.195.325.26.53.065.203.093.398.093.593 0 .455-.149.835-.436 1.132-.288.297-.659.446-1.104.446-.632 0-1.17-.325-1.578-.965-.204-.325-.39-.77-.538-1.328l-.019 2.116a.434.434 0 01.418-.269c.065 0 .12 0 .167.028.046.019.185.074.417.176.427.186.882.279 1.337.279.501 0 .946-.121 1.317-.344.362-.222.65-.547.836-.965.129-.297.204-.612.204-.937a2.03 2.03 0 00-.436-1.29v-.01z"/><path fill-rule="evenodd" clip-rule="evenodd" d="M169.961 39.257c.288.373.436.82.436 1.319 0 .338-.077.665-.211.97a2.217 2.217 0 01-.868 1.004h-.001a2.617 2.617 0 01-1.361.356c-.466 0-.932-.095-1.37-.286a12.875 12.875 0 00-.415-.175l-.007-.002-.005-.004c-.023-.014-.053-.016-.124-.016a.366.366 0 00-.205.055.387.387 0 00-.136.166l-.161-.037.019-2.115.165-.021c.147.55.33.988.528 1.303.396.621.91.926 1.507.926.425 0 .773-.14 1.044-.42.271-.28.412-.638.412-1.073 0-.187-.027-.373-.089-.569a1.683 1.683 0 00-.247-.503l-.002-.003a1.668 1.668 0 00-.442-.414 8.595 8.595 0 00-.891-.505 7.35 7.35 0 01-.807-.451 2.703 2.703 0 01-.451-.375h-.001a1.862 1.862 0 01-.476-1.273c0-.309.068-.608.193-.888a2.21 2.21 0 01.521-.733 2.004 2.004 0 011.394-.541c.167 0 .333.009.482.048.158.03.359.107.597.208l.226.083.153.056c.065.024.12.032.165.032.042 0 .083-.01.122-.04a.364.364 0 00.114-.181l.164.025.037 2.023-.165.025a11.952 11.952 0 00-.239-.736 3.05 3.05 0 00-.261-.513l-.002-.003a1.845 1.845 0 00-.584-.63l-.003-.002a1.316 1.316 0 00-.742-.208c-.405 0-.733.14-.965.415l-.003.003c-.103.112-.18.24-.232.396l-.002.004a1.27 1.27 0 00-.087.462c0 .604.377 1.1 1.177 1.483l.78.38c.59.281 1.03.594 1.301.943l.018.023v.009zm-1.356-.899c.585.278 1.012.585 1.272.919v.009c.287.362.436.798.436 1.29 0 .325-.074.64-.204.937a2.131 2.131 0 01-.835.965 2.456 2.456 0 01-1.057.332 3.008 3.008 0 01-.465.005 3.344 3.344 0 01-1.132-.272c-.232-.102-.372-.158-.418-.176-.046-.028-.102-.028-.167-.028a.426.426 0 00-.332.139.54.54 0 00-.086.13l.019-2.116c.026.098.053.193.082.284.132.426.288.776.456 1.043.217.34.471.592.756.753.251.141.526.212.822.212a1.609 1.609 0 00.45-.057c.251-.068.47-.198.654-.388.288-.297.436-.677.436-1.132 0-.195-.028-.39-.093-.594a1.767 1.767 0 00-.259-.529 1.785 1.785 0 00-.464-.436 8.944 8.944 0 00-.901-.51 7.437 7.437 0 01-.798-.446 2.62 2.62 0 01-.436-.362 1.778 1.778 0 01-.454-1.215c0-.297.064-.585.185-.854.121-.27.288-.51.501-.706.199-.183.422-.32.664-.406a1.984 1.984 0 01.737-.113c.143.003.278.014.399.046.115.022.256.07.426.139h.001l.08.033.078.032.229.084.152.056a.546.546 0 00.194.037.286.286 0 00.235-.118.545.545 0 00.081-.16l.037 2.022a13.069 13.069 0 00-.241-.742 3.131 3.131 0 00-.269-.529 2.009 2.009 0 00-.537-.608 1.167 1.167 0 00-.076-.05 1.295 1.295 0 00-.393-.175h-.002a1.575 1.575 0 00-.458-.047 1.379 1.379 0 00-.638.17c-.123.07-.233.161-.328.274-.111.12-.194.26-.25.427a1.355 1.355 0 00-.093.492c0 .65.408 1.169 1.225 1.559l.779.38z"/><path d="M3.96 32.448c-1.984-2.938-2.904-5.19-3.122-5.773C11.338 6.395 28.982.9 39.418.11 35.59 1.13 13.803 5.644 3.96 32.448z"/><path d="M4.775 33.624a52.18 52.18 0 004.077 5.013C16.334 6.593 42.097 1.077 45.9.11c0 0-30.99 1.423-41.124 33.514h-.002z"/><path d="M30.272 7.97c-7.616 5.106-17.42 15.226-20.477 31.662 1.447 1.484 3.308 3.202 5.113 4.595.475-7.274 4.744-34.788 35.971-43.722 0 0-8.617-.395-20.607 7.465z"/><path d="M16.416 39.633c.296-1.82.696-3.539 1.12-5.072 2.143 3.285 11.336 14.626 28.522 18.995-9.043-.669-17.198-4.544-21.812-7.558-4.11-2.684-6.835-5.335-7.83-6.365z"/><path d="M23.146 46.505a47.5 47.5 0 0016.63 6.993c-12.893-1.026-20.918-6.922-23.919-8.797.024-1.355.217-2.623.391-3.928.863.92 3.211 3.262 6.898 5.732zM17.914 33.474c1.017-3.412 2.135-5.613 2.135-5.613C29.694 46.52 45.03 51.276 51.197 53.148c0 0-18.42-.066-33.283-19.674zM53.963 39.325h.474l-3.162 6.009-.316-1.265h-.002l-.126-.003c-10.474-.136-19.162-7.8-19.162-17.233 0-9.434 8.756-17.158 19.288-17.234h.002l.316-.95 3.162 5.85h-.474c-1.706-1.886-2.846-2.6-3.65-2.862a1.799 1.799 0 00-.703-.084c-8.9.67-15.886 7.22-15.886 15.203 0 7.982 7.309 14.83 16.498 15.24.318.014.633-.057.914-.203.768-.395 1.616-1.127 2.827-2.465v-.003z"/></g><defs><clipPath id="anclip0_9_1104"><path fill="#fff" d="M0 0h194v54H0z"/></clipPath></defs></svg><svg fill="none" viewBox="0 0 194 55" id="logo--footer" xmlns="http://www.w3.org/2000/svg"><g clip-path="url(#aoclip0_2048_860)"><path d="M82.281 23.503c-.21 1.109-.546 1.998-1.007 2.653-.403.588-.99 1.05-1.721 1.36-.739.32-1.578.479-2.493.479-1.839 0-3.342-.647-4.458-1.923-.605-.688-1.066-1.544-1.385-2.56-.32-1.007-.479-2.166-.479-3.425 0-1.486.235-2.83.689-3.996a8.933 8.933 0 011.25-2.225c.504-.646 1.067-1.158 1.654-1.502.672-.395 1.478-.596 2.393-.596.613 0 1.158.1 1.645.293.487.194.966.512 1.419.94a6.032 6.032 0 011.368 1.873c.176.377.412.957.689 1.72.042.11.109.27.184.487h.16l-.143-5.238h-.185a2.026 2.026 0 01-.193.37c-.243.319-.587.352-1.074.167l-.982-.327c-1.075-.37-2.1-.546-3.056-.546a9.558 9.558 0 00-3.03.504c-1 .336-1.873.798-2.595 1.368-.931.748-1.67 1.738-2.19 2.964-.521 1.225-.79 2.577-.79 4.03 0 1.896.454 3.55 1.352 4.91.898 1.36 2.157 2.317 3.744 2.838.999.327 2.057.487 3.156.487 1.176 0 2.216-.185 3.106-.563.89-.37 1.595-.915 2.09-1.612.521-.722.865-1.704 1.016-2.93l-.15-.025.016.025zM99.91 14.597a9.115 9.115 0 00-3.013-2.275 8.276 8.276 0 00-3.551-.806c-.957 0-1.923.168-2.863.503a9.866 9.866 0 00-2.653 1.453c-1.091.848-1.939 1.855-2.51 2.988-.57 1.133-.856 2.384-.856 3.72 0 1.015.185 2.005.529 2.946.352.94.864 1.788 1.52 2.526a8.746 8.746 0 002.98 2.2 8.852 8.852 0 003.626.772c1.26 0 2.518-.268 3.685-.797a9.054 9.054 0 003.048-2.258 8.249 8.249 0 001.595-2.594c.369-.94.545-1.94.545-2.955 0-2.015-.705-3.845-2.099-5.432l.017.009zM97.316 26.29c-.579.73-1.2 1.259-1.847 1.578-.646.327-1.401.487-2.25.487-.847 0-1.594-.168-2.232-.496-.647-.327-1.26-.856-1.83-1.578-1.276-1.603-1.914-3.593-1.914-5.927 0-1.326.176-2.585.52-3.735.344-1.159.84-2.15 1.477-2.947.538-.671 1.125-1.158 1.747-1.46.63-.303 1.376-.454 2.233-.454.856 0 1.628.151 2.258.462.638.302 1.217.789 1.738 1.46.638.806 1.133 1.797 1.486 2.956.344 1.15.528 2.392.528 3.685 0 2.359-.646 4.365-1.914 5.977v-.008zM116.901 27.878a1.913 1.913 0 01-.604-.538c-.252-.31-.563-.805-.924-1.485-.361-.68-.906-1.755-1.62-3.215-.302-.639-.537-1.092-.688-1.335a2.894 2.894 0 00-.495-.622c-.227-.21-.58-.41-1.05-.612l-.193-.084.21-.042c.579-.126 1.049-.26 1.385-.403.344-.143.663-.328.94-.546.924-.739 1.394-1.73 1.394-2.955 0-.823-.218-1.561-.638-2.183-.428-.62-1.041-1.1-1.813-1.418-.697-.277-1.671-.445-2.897-.495-.31 0-.948-.017-1.914-.017h-5.733v.142a3.97 3.97 0 011.074.194c.302.109.563.285.781.52.26.26.445.604.537 1.007.093.395.135 1.016.135 1.847v8.865c0 .831-.042 1.444-.135 1.847a2.02 2.02 0 01-.537 1.007 1.98 1.98 0 01-.772.512c-.277.11-.638.177-1.083.202v.143h7.555v-.143c-.445-.025-.806-.092-1.083-.202a2.07 2.07 0 01-.772-.512c-.26-.26-.437-.604-.529-1.007-.092-.403-.143-1.016-.143-1.838v-4.324h.655c.361 0 .68.034.932.11.26.067.495.184.722.352.428.327.915.932 1.427 1.813a31.226 31.226 0 011.528 3.047l.839 1.914c.051.118.177.387.37.798h3.878v-.151a2.184 2.184 0 01-.739-.193zm-9.091-7.891h-.462v-7.749h.495c.857 0 1.52.05 1.99.168a3 3 0 011.2.571c.437.361.773.823 1.016 1.377.244.554.369 1.15.369 1.788 0 1.192-.419 2.183-1.259 2.98-.378.353-.78.588-1.209.697-.428.109-1.141.168-2.132.168h-.008zM134.967 16.51a8.073 8.073 0 00-2.603-3.097c-1.166-.823-2.602-1.301-4.273-1.427-.402-.034-1.343-.05-2.795-.05h-6.548v.142c.739.05 1.318.235 1.713.563a2 2 0 01.654 1.04c.11.412.168 1.067.168 1.957v8.865c0 .822-.042 1.435-.142 1.838-.093.403-.269.747-.529 1.007a2.13 2.13 0 01-.781.52c-.269.102-.63.169-1.075.194v.143h8.823c1.025 0 2.049-.093 3.031-.277 1.31-.244 2.418-.823 3.299-1.721.621-.638 1.117-1.453 1.469-2.426a9.08 9.08 0 00.529-3.115c0-1.503-.311-2.904-.932-4.172l-.008.017zm-2.275 6.994a7.59 7.59 0 01-1.259 2.442c-.554.73-1.201 1.276-1.906 1.604-.705.327-1.57.495-2.56.495-1.167 0-2.032-.327-2.552-.965a2.49 2.49 0 01-.504-1.075c-.092-.411-.134-1.015-.134-1.805V12.17h1.519c1.041 0 1.914.093 2.594.278 1.242.344 2.325 1.066 3.224 2.14.646.773 1.141 1.688 1.494 2.712.344 1.032.52 2.132.52 3.265a9.794 9.794 0 01-.428 2.93l-.008.009zM150.371 23.554a11.496 11.496 0 01-.487 1.704c-.185.445-.42.848-.713 1.2-.412.521-.957.907-1.621 1.159-.654.243-1.477.37-2.443.37-.965 0-1.67-.135-2.233-.412a2.675 2.675 0 01-1.276-1.301 3.99 3.99 0 01-.327-1.276c-.059-.495-.084-1.31-.084-2.41v-2.82h.756c.596 0 1.099.059 1.486.185.394.125.721.319.965.579.252.268.453.604.596.99.134.37.243.857.319 1.444h.151l.05-6.321h-.151c-.067.588-.159 1.041-.26 1.352a2.226 2.226 0 01-.512.848c-.243.26-.554.436-.932.537-.369.1-.932.142-1.662.142h-.789v-7.353h2.821c.847 0 1.544.058 2.056.176.521.117.982.319 1.36.604.462.336.823.739 1.066 1.192.235.437.412.982.512 1.637h.152l-.202-3.845h-12.802v.143c.437.025.806.093 1.083.193.294.11.554.286.781.52.251.261.428.605.529 1.008.092.403.142 1.016.142 1.839v8.865c0 .814-.042 1.435-.142 1.838-.093.403-.269.747-.529 1.007a2.034 2.034 0 01-.789.52c-.278.102-.638.169-1.067.194v.143h14.221l.151-4.651h-.176zM166.255 23.403c-.151.722-.319 1.31-.487 1.754-.185.462-.42.882-.697 1.243-.419.537-.973.94-1.637 1.192-.654.252-1.477.386-2.434.386-.957 0-1.671-.134-2.233-.411a2.762 2.762 0 01-1.285-1.302c-.159-.327-.277-.772-.327-1.292-.059-.52-.084-1.327-.084-2.384v-6.943c0-.84.05-1.478.143-1.88.101-.412.294-.764.571-1.033.226-.21.478-.37.772-.47.269-.092.621-.151 1.041-.185v-.143h-7.555v.143c.411.017.755.076 1.015.168.286.1.546.26.773.47.277.269.478.613.579 1.024.101.412.151 1.05.151 1.898v8.865c0 .814-.042 1.435-.143 1.838-.092.403-.268.747-.529 1.007-.436.454-1.066.697-1.855.706v.15h14.229l.152-4.801-.168-.017.008.017zM172.97 14.168c.076-.579.277-1.04.596-1.376.235-.235.496-.412.789-.52.277-.101.638-.169 1.067-.194v-.143h-7.556v.143c.437.025.798.093 1.075.193.302.11.562.286.78.52.261.261.445.605.538 1.008.092.395.134 1.016.134 1.847v8.865c0 .831-.042 1.444-.134 1.847a2.03 2.03 0 01-.538 1.007 1.976 1.976 0 01-.772.512c-.277.11-.638.177-1.083.202v.142h7.556v-.142c-.521-.034-.949-.135-1.276-.286a2.011 2.011 0 01-.832-.738c-.151-.244-.26-.563-.327-.949s-.101-.924-.101-1.587v-8.865c0-.554.025-1.049.076-1.477l.008-.008zM192.816 27.878a2.159 2.159 0 01-.68-.344c-.277-.21-.538-.53-.773-.949-.235-.411-.545-1.1-.94-2.057l-5.213-12.6h-.596l-4.382 11.3a41.929 41.929 0 01-.974 2.333c-.252.52-.504.948-.764 1.284-.311.412-.63.722-.957.907-.311.185-.68.285-1.083.319v.143h5.255v-.151c-.47-.042-.864-.177-1.175-.395a1.792 1.792 0 01-.554-.646 1.869 1.869 0 01-.202-.857c0-.512.185-1.217.546-2.107l.302-.747.638-1.704h5.381l1.377 3.383c.227.563.336 1.016.336 1.352 0 .57-.26 1.032-.772 1.351-.286.176-.764.302-1.461.361v.151h7.774v-.15c-.471-.051-.832-.118-1.075-.194l-.008.017zm-11.325-6.69l2.384-6.23 2.527 6.23h-4.911zM97.634 42.51a1.86 1.86 0 01-.808.64 2.919 2.919 0 01-1.169.223c-.853 0-1.559-.306-2.078-.9a3.177 3.177 0 01-.64-1.188 5.29 5.29 0 01-.223-1.587c0-.686.111-1.308.324-1.846.149-.38.344-.733.585-1.03.232-.307.492-.539.77-.696.316-.186.696-.279 1.123-.279a2 2 0 01.77.14c.232.092.455.24.668.445.279.26.492.557.64.872.084.176.196.445.316.798.019.047.037.112.075.195l-.066-2.32h-.009a.525.525 0 01-.083.149c-.12.157-.297.185-.548.092l-.445-.148a4.336 4.336 0 00-1.392-.25c-.455 0-.919.074-1.374.231a3.745 3.745 0 00-1.178.622c-.427.334-.761.789-.993 1.346a4.604 4.604 0 00-.362 1.837c0 .863.204 1.615.613 2.236a3.207 3.207 0 001.698 1.29c.454.149.937.223 1.438.223.529 0 1.012-.083 1.41-.25a2.27 2.27 0 00.947-.724c.195-.27.325-.613.409-1.03-.103.38-.233.696-.409.937l-.01-.028z" fill="#92278F"/><path fill-rule="evenodd" clip-rule="evenodd" d="M97.723 42.511v.001a1.755 1.755 0 01-.027.042l-.01.016a1.684 1.684 0 01-.18.225 2.299 2.299 0 01-.81.56c-.398.167-.88.25-1.41.25-.5 0-.983-.074-1.438-.222a3.207 3.207 0 01-1.698-1.29c-.409-.622-.613-1.373-.613-2.236 0-.66.121-1.281.362-1.838.232-.556.566-1.011.993-1.345.325-.26.724-.474 1.179-.622a4.2 4.2 0 011.447-.231 3.994 3.994 0 01.879.12c.144.036.29.079.439.13l.445.148c.251.093.427.065.548-.093a.65.65 0 00.083-.148h.01l.065 2.32a1.762 1.762 0 01-.075-.195l-.016-.05a7.736 7.736 0 00-.299-.748 2.86 2.86 0 00-.64-.873 2.163 2.163 0 00-.668-.445 2 2 0 00-.845-.138 2.37 2.37 0 00-.682.113c-.13.042-.253.097-.367.164-.278.158-.538.39-.77.696-.241.297-.436.65-.584 1.03-.214.539-.325 1.16-.325 1.847 0 .584.074 1.114.223 1.587.139.464.362.872.64 1.188.52.593 1.225.9 2.079.9a2.92 2.92 0 001.169-.223c.243-.105.45-.243.618-.414a1.74 1.74 0 00.128-.144l.006-.008.001-.002c.008-.01.017-.02.025-.032l.02-.026.01-.014.008.027.01-.014a2.474 2.474 0 00.05-.073c.147-.228.258-.514.349-.85a2.795 2.795 0 01-.329.91zm-.055-.164l-.007-.022-.096.137a1.774 1.774 0 01-.772.612c-.33.143-.709.215-1.136.215-.831 0-1.512-.297-2.015-.87a3.095 3.095 0 01-.623-1.157v-.002A5.204 5.204 0 0192.8 39.7c0-.678.11-1.289.319-1.816.146-.374.337-.719.572-1.008l.001-.002a2.48 2.48 0 01.745-.673l.001-.001c.3-.177.666-.267 1.08-.267.28 0 .528.045.738.133h.001c.22.088.434.23.641.428.271.253.479.542.623.848.082.172.192.439.312.789l.001.004.019.05.01.03c.012.034.027.073.047.118l.16-.037-.066-2.401h-.147l-.022.05a.998.998 0 01-.038.082.196.196 0 01-.028.04l-.007.01a.264.264 0 01-.172.108.559.559 0 01-.28-.044l-.447-.15a4.42 4.42 0 00-1.419-.254c-.464 0-.937.075-1.4.236-.463.151-.87.37-1.204.636-.44.344-.782.81-1.018 1.378a4.69 4.69 0 00-.369 1.87c0 .877.208 1.646.626 2.283.42.628 1 1.077 1.742 1.324.464.151.956.227 1.465.227.538 0 1.032-.085 1.443-.257.413-.173.74-.433.981-.75l.002-.002c.204-.282.337-.639.422-1.063l-.164-.039c-.08.303-.179.56-.302.768z" fill="#92278F"/><path d="M111.172 43.319a.812.812 0 01-.288-.26c-.12-.14-.259-.371-.426-.687a41.272 41.272 0 01-.743-1.484c-.139-.288-.241-.502-.315-.613a1.387 1.387 0 00-.214-.278 1.764 1.764 0 00-.473-.279l-.214-.093.232-.046c.26-.056.474-.12.632-.186.157-.065.296-.148.426-.24.418-.335.622-.771.622-1.328 0-.371-.093-.696-.288-.974a1.753 1.753 0 00-.816-.631c-.316-.12-.761-.204-1.318-.223h-3.303c.12.019.213.037.306.074.139.047.269.14.38.25.121.13.214.288.26.483.037.186.065.474.065.854v4.074c0 .38-.019.668-.065.854a.975.975 0 01-.26.482 1.012 1.012 0 01-.371.25 1.236 1.236 0 01-.306.075h3.062a1.225 1.225 0 01-.306-.074 1.012 1.012 0 01-.371-.25 1.048 1.048 0 01-.251-.483c-.046-.195-.065-.464-.065-.854v-5.707h.297c.399 0 .705.028.928.074.223.056.418.149.585.279.204.176.371.399.492.658.12.27.176.548.176.854 0 .566-.204 1.04-.603 1.42a1.446 1.446 0 01-.594.343 3.093 3.093 0 01-.631.075c.046 0 .093.018.139.027.121.037.241.093.343.167.204.158.427.437.668.845.242.408.474.881.706 1.41l.389.882c.028.046.075.167.158.343h1.624a1.134 1.134 0 01-.232-.074l-.037-.01z" fill="#92278F"/><path fill-rule="evenodd" clip-rule="evenodd" d="M111.172 43.318a.814.814 0 01-.287-.26c-.12-.139-.259-.37-.426-.686a43.081 43.081 0 01-.743-1.485l-.022-.045c-.128-.265-.223-.462-.293-.567a1.348 1.348 0 00-.214-.279 1.764 1.764 0 00-.473-.278l-.213-.093.232-.046c.259-.056.473-.12.631-.186a2.11 2.11 0 00.426-.241c.418-.334.622-.77.622-1.327 0-.371-.093-.696-.287-.974a1.756 1.756 0 00-.817-.632c-.316-.12-.761-.204-1.318-.222h-3.303c.12.018.213.037.306.074l.028.01a1.04 1.04 0 01.612.723c.037.186.065.473.065.854v4.074c0 .38-.018.668-.065.853a.975.975 0 01-.26.483 1.002 1.002 0 01-.347.24l-.024.01a1.22 1.22 0 01-.306.075h3.062a1.231 1.231 0 01-.306-.075l-.024-.01a1.002 1.002 0 01-.598-.723c-.046-.194-.065-.464-.065-.853v-5.707h.353c.319.002.576.022.777.056l.095.018c.223.056.418.148.585.278.204.177.371.4.492.66.12.268.176.547.176.853 0 .566-.204 1.04-.603 1.42a1.447 1.447 0 01-.594.343 2.447 2.447 0 01-.485.067 4.96 4.96 0 01-.146.007c.031 0 .062.009.093.017a1.293 1.293 0 01.162.053c.08.033.158.075.227.125.205.158.427.436.669.845.241.408.473.881.705 1.41l.39.882c.014.024.034.07.062.132.025.057.056.128.095.211h1.624a1.135 1.135 0 01-.232-.074l-.037-.01h-.001zm.031-.079a.738.738 0 01-.249-.23l-.005-.005c-.114-.132-.249-.356-.416-.671a44.762 44.762 0 01-.766-1.533 5.72 5.72 0 00-.295-.57 1.464 1.464 0 00-.225-.293l-.003-.003a1.779 1.779 0 00-.465-.28c.251-.054.459-.118.617-.183.165-.068.31-.155.443-.25l.004-.003c.439-.351.653-.812.653-1.393 0-.386-.096-.728-.302-1.023a1.843 1.843 0 00-.855-.66l-.001-.001c-.327-.125-.782-.21-1.345-.228h-3.306l-.013.167c.119.018.204.036.288.07h.004c.123.042.241.125.347.23.111.12.195.264.238.442.035.179.063.46.063.836v4.074c0 .38-.019.658-.063.833a.9.9 0 01-.237.443l-.003.003a.926.926 0 01-.34.23h-.003c-.072.032-.163.05-.285.069l.013.167h3.062l.013-.167a1.164 1.164 0 01-.285-.069h-.003a.926.926 0 01-.571-.675c-.044-.185-.062-.446-.062-.834v-5.623h.212c.395 0 .694.027.909.072.211.053.394.14.55.261a1.858 1.858 0 01.638 1.448c0 .543-.195.994-.576 1.358a1.36 1.36 0 01-.558.323 3.009 3.009 0 01-.613.072l.003.169c.012 0 .028.002.049.007l.018.005c.016.004.034.01.051.013.112.035.222.086.314.152.191.149.407.416.646.82.239.405.469.875.701 1.402l.39.882.004.009c.011.017.027.053.053.114l.005.01c.025.056.056.128.096.212l.023.048h1.677l.017-.167a1.067 1.067 0 01-.216-.069l-.006-.002-.034-.009z" fill="#92278F"/><path d="M123.162 35.997c.121.018.213.037.306.074.139.046.269.14.381.25.12.13.204.288.25.483.047.186.065.473.065.854v3.09c0 .566 0 .928-.018 1.076a2.364 2.364 0 01-.139.604 1.484 1.484 0 01-.335.445c-.241.213-.538.38-.9.501-.352.12-.733.176-1.123.176-.389 0-.742-.065-1.011-.204a1.793 1.793 0 01-.687-.659 1.78 1.78 0 01-.241-.65c-.037-.231-.056-.602-.056-1.113v-3.127c0-.455.019-.77.056-.965.037-.195.13-.362.26-.501a.91.91 0 01.371-.25c.084-.029.186-.056.306-.075h-3.062c.121.019.223.037.306.074a.91.91 0 01.371.25c.121.13.214.288.26.483.037.186.065.473.065.854v3.36c0 .417.009.704.037.871.056.437.242.79.548 1.058.473.427 1.234.64 2.255.64s1.735-.231 2.255-.677c.222-.195.371-.408.445-.64.074-.241.121-.613.121-1.123v-3.489c0-.39.018-.668.065-.854.046-.195.13-.362.25-.482.112-.112.242-.204.381-.25a1.94 1.94 0 01.297-.075h-2.079v-.01z" fill="#92278F"/><path fill-rule="evenodd" clip-rule="evenodd" d="M123.078 35.898l.097.015.052.009h2.014l.014.167a1.91 1.91 0 00-.285.071.926.926 0 00-.347.23.92.92 0 00-.228.443c-.044.174-.063.445-.063.834v3.49c0 .513-.046.894-.124 1.147h-.001c-.079.25-.238.476-.47.679-.54.462-1.277.698-2.31.698-1.029 0-1.815-.215-2.311-.662a1.717 1.717 0 01-.575-1.108c-.029-.176-.038-.47-.038-.885v-3.36c0-.375-.027-.656-.063-.835a.98.98 0 00-.239-.443.831.831 0 00-.336-.228l-.008-.003a1.162 1.162 0 00-.285-.068l.013-.167h3.062l.013.167a1.772 1.772 0 00-.292.071.83.83 0 00-.336.228.926.926 0 00-.239.46c-.036.186-.054.495-.054.949v3.127c0 .51.018.876.054 1.1.036.221.115.433.23.619.179.286.4.497.654.628.253.131.591.195.973.195.381 0 .753-.055 1.095-.172.352-.117.639-.279.871-.483.141-.133.245-.272.314-.418.06-.147.105-.343.132-.578.018-.142.018-.497.018-1.067v-3.09c0-.38-.019-.66-.062-.834h-.001a.954.954 0 00-.229-.444.924.924 0 00-.346-.23h-.005a1.082 1.082 0 00-.224-.06h-.135v-.192zm.442.192c.119.05.231.134.329.231.12.13.204.288.25.483.043.171.062.43.065.769V41.156a7.71 7.71 0 01-.018.668 2.772 2.772 0 01-.082.435c-.017.06-.036.117-.057.168a1.496 1.496 0 01-.334.446l-.018.015a2.56 2.56 0 01-.883.486 3.466 3.466 0 01-1.644.132 1.76 1.76 0 01-.49-.16 1.793 1.793 0 01-.687-.659 1.78 1.78 0 01-.241-.65c-.037-.231-.056-.602-.056-1.113v-3.127c0-.455.019-.77.056-.965.037-.195.13-.362.26-.501a.928.928 0 01.343-.24 1.878 1.878 0 01.334-.084h-3.062a1.22 1.22 0 01.334.083.92.92 0 01.343.24c.121.13.214.288.26.483.037.186.065.473.065.854v3.36c0 .417.01.704.037.871.056.437.242.79.548 1.058.424.383 1.08.594 1.946.634a6.728 6.728 0 00.532.003 4.175 4.175 0 001.135-.181c.352-.114.647-.279.897-.493l.018-.015.001-.001a1.55 1.55 0 00.356-.452l.001-.002c.028-.056.051-.112.069-.17a2.56 2.56 0 00.087-.446c.022-.19.034-.415.034-.677v-3.49-.008-.085c.003-.341.022-.59.065-.76a1.002 1.002 0 01.603-.723l.028-.01c.083-.028.185-.056.297-.074h-2.021a4.474 4.474 0 00-.058-.01v.01h.058a1.176 1.176 0 01.3.084z" fill="#92278F"/><path d="M132.786 42.586a.983.983 0 01-.26.482 1.092 1.092 0 01-.371.25 1.247 1.247 0 01-.306.075h3.071a1.51 1.51 0 01-.408-.12.915.915 0 01-.399-.353 1.375 1.375 0 01-.158-.455c-.037-.186-.046-.418-.046-.733v-4.074c0-.26 0-.482.037-.687.037-.278.13-.5.288-.658a.94.94 0 01.38-.251c.084-.028.186-.056.297-.074h-3.062c.12.018.213.037.306.074a.91.91 0 01.371.25c.121.13.213.288.26.483.037.186.065.473.065.854v4.074c0 .38-.019.668-.065.853v.01z" fill="#92278F"/><path fill-rule="evenodd" clip-rule="evenodd" d="M132.179 43.309c.129-.055.242-.136.347-.24a.975.975 0 00.26-.483v-.01c.046-.185.065-.473.065-.853v-4.074c0-.38-.028-.668-.065-.854a1.051 1.051 0 00-.26-.482.92.92 0 00-.343-.24 1.359 1.359 0 00-.334-.084h3.062a2.015 2.015 0 00-.326.083.956.956 0 00-.351.24c-.158.159-.251.381-.288.66-.037.204-.037.426-.037.686v4.074c0 .316.009.548.046.733.037.186.084.334.158.455a.915.915 0 00.399.353.93.93 0 00.083.036c.095.036.205.063.325.084h-3.071a1.247 1.247 0 00.33-.084zm2.005-.434a.836.836 0 00.362.32l.004.002c.1.05.23.086.385.113l-.015.167h-3.071l-.013-.167a1.16 1.16 0 00.285-.068l.003-.001c.127-.051.238-.128.343-.232a.896.896 0 00.235-.433v-.01l.002-.01c.044-.174.063-.453.063-.833v-4.074c0-.376-.028-.657-.063-.836a.972.972 0 00-.24-.443.825.825 0 00-.336-.228l-.004-.001a1.28 1.28 0 00-.288-.07l.013-.167h3.062l.014.167a1.896 1.896 0 00-.284.071h-.002a.859.859 0 00-.346.23c-.141.141-.228.344-.264.61v.005c-.036.195-.036.41-.036.671v4.074c0 .316.009.54.045.717.036.181.08.318.146.426z" fill="#92278F"/><path d="M145.648 40.043c-.26-.334-.687-.64-1.271-.919l-.78-.38c-.816-.39-1.234-.91-1.234-1.56 0-.157.028-.324.093-.491.056-.167.139-.307.25-.427.251-.297.604-.446 1.03-.446.297 0 .557.075.789.223.223.14.436.362.622.659.102.158.186.343.26.529.065.176.148.427.241.742l-.037-2.023c-.074.223-.204.279-.316.279a.641.641 0 01-.204-.037l-.38-.14a3.444 3.444 0 00-.585-.204 1.83 1.83 0 00-.464-.046c-.51 0-.965.176-1.336.52a2.108 2.108 0 00-.677 1.558c0 .474.148.882.454 1.216.112.12.26.241.436.362.186.12.455.27.798.445.399.205.696.372.891.51.204.14.362.289.474.437.111.148.194.325.259.529.065.204.093.399.093.594 0 .455-.148.835-.436 1.132-.288.297-.659.445-1.104.445-.631 0-1.16-.324-1.578-.965-.204-.325-.39-.77-.547-1.327l-.019 2.116a.434.434 0 01.418-.27c.065 0 .12 0 .176.029.046.018.186.074.418.176.426.186.881.279 1.345.279.501 0 .947-.121 1.318-.344a2.08 2.08 0 00.835-.965c.13-.297.195-.612.195-.937a2.03 2.03 0 00-.436-1.29l.009-.01z" fill="#92278F"/><path fill-rule="evenodd" clip-rule="evenodd" d="M145.638 40.052c.288.362.436.798.436 1.29 0 .325-.065.64-.195.937a2.074 2.074 0 01-.835.965c-.309.186-.669.3-1.07.334a3.014 3.014 0 01-.461.003 3.358 3.358 0 01-1.132-.272 11.858 11.858 0 00-.418-.176c-.055-.028-.111-.028-.176-.028a.426.426 0 00-.332.139.542.542 0 00-.086.13l.019-2.116c.026.094.054.184.082.272.139.431.296.785.465 1.056.224.342.479.594.764.754.249.14.52.21.814.21a1.826 1.826 0 00.447-.056c.252-.068.472-.197.657-.389.288-.297.436-.677.436-1.132 0-.195-.027-.39-.092-.594a1.767 1.767 0 00-.26-.529 1.997 1.997 0 00-.473-.436 7.637 7.637 0 00-.891-.51 9.475 9.475 0 01-.798-.446 2.585 2.585 0 01-.437-.362c-.306-.334-.454-.742-.454-1.215 0-.297.055-.585.176-.854.121-.27.288-.51.501-.705a1.932 1.932 0 011.411-.52c.139.003.271.015.389.046.109.022.258.072.433.142l.096.04.056.023.229.083.152.056a.632.632 0 00.204.037.285.285 0 00.234-.118.52.52 0 00.081-.16l.037 2.023a10.524 10.524 0 00-.241-.742 3.104 3.104 0 00-.26-.53 2.155 2.155 0 00-.533-.599 1.372 1.372 0 00-.491-.236h-.002a1.542 1.542 0 00-.459-.045 1.38 1.38 0 00-.613.162c-.129.07-.243.165-.342.282-.112.12-.195.26-.251.427a1.354 1.354 0 00-.093.492c0 .65.418 1.169 1.234 1.559l.78.38c.585.279 1.011.585 1.271.919l-.009.01zm.112.007c.27.366.408.8.408 1.283 0 .336-.067.663-.202.971a2.158 2.158 0 01-.869 1.003 2.614 2.614 0 01-1.361.356c-.475 0-.941-.095-1.379-.285-.23-.102-.369-.157-.415-.176l-.007-.002c-.035-.018-.07-.02-.138-.02a.366.366 0 00-.205.055.396.396 0 00-.137.166l-.16-.036.019-2.116.165-.023c.156.552.339.99.537 1.305.406.622.911.926 1.507.926.425 0 .773-.14 1.044-.42.271-.28.412-.638.412-1.073 0-.187-.026-.373-.089-.568a1.66 1.66 0 00-.247-.504 1.883 1.883 0 00-.453-.417l-.001-.001a7.59 7.59 0 00-.881-.504 9.644 9.644 0 01-.805-.45l-.002-.001a2.653 2.653 0 01-.45-.375c-.322-.35-.477-.78-.477-1.272 0-.308.057-.608.183-.889a2.21 2.21 0 01.521-.732 2.003 2.003 0 011.393-.542c.168 0 .334.009.484.048.147.03.357.107.596.208l.226.083.152.055c.075.025.13.033.176.033.041 0 .082-.01.121-.04a.356.356 0 00.114-.181l.164.025.038 2.023-.165.025a11.83 11.83 0 00-.24-.736 2.946 2.946 0 00-.252-.513v-.001c-.181-.29-.386-.501-.595-.632h-.001a1.34 1.34 0 00-.743-.21c-.406 0-.734.14-.966.415l-.002.003c-.104.112-.181.24-.233.396l-.001.004a1.27 1.27 0 00-.087.462c0 .604.384 1.1 1.186 1.483l.78.38c.59.281 1.03.594 1.301.943l.045.059-.009.01z" fill="#92278F"/><path d="M158.936 42.093a2.26 2.26 0 01-.334.557 1.83 1.83 0 01-.761.548c-.307.12-.687.176-1.132.176-.446 0-.78-.065-1.049-.195a1.269 1.269 0 01-.603-.622 1.945 1.945 0 01-.158-.603c-.028-.232-.037-.603-.037-1.114v-1.336h.39c.278 0 .51.028.696.084.185.056.343.158.464.278.12.13.213.288.287.464.056.149.102.334.13.548l.019-2.627a2.166 2.166 0 01-.112.483.981.981 0 01-.686.668c-.177.047-.436.065-.78.065h-.408v-3.461h1.336c.39 0 .715.028.956.083a1.756 1.756 0 011.141.844c.093.177.167.381.214.623l-.084-1.578h-5.633c.121.019.214.037.307.074a.91.91 0 01.371.25c.121.13.204.288.25.483.038.195.065.464.065.854v4.074c0 .38-.027.668-.065.854a.936.936 0 01-.259.482 1.015 1.015 0 01-.381.25 1.953 1.953 0 01-.297.075h6.283l.065-2.005a4.68 4.68 0 01-.205.706l.01.018z" fill="#92278F"/><path fill-rule="evenodd" clip-rule="evenodd" d="M157.542 43.29c.106-.025.206-.056.299-.093a1.83 1.83 0 00.761-.547c.13-.158.25-.353.334-.557l-.009-.018c.037-.095.073-.202.107-.321.033-.116.065-.243.097-.385l-.065 2.005h-2.357c.31 0 .589-.027.833-.085zm-.833 0c.439 0 .808-.056 1.101-.17.294-.117.541-.294.726-.523.118-.143.228-.318.307-.5l-.009-.019.014-.035c.072-.18.136-.406.201-.692l.166.021-.068 2.086h-6.364l-.013-.167c.106-.018.204-.045.284-.071a.918.918 0 00.347-.23l.002-.003a.843.843 0 00.235-.439c.036-.178.063-.46.063-.835v-4.074a4.5 4.5 0 00-.063-.836.953.953 0 00-.23-.443.824.824 0 00-.336-.228l-.004-.002a1.276 1.276 0 00-.288-.069l.013-.167h5.712l.088 1.657-.167.02a2.136 2.136 0 00-.205-.598 1.677 1.677 0 00-1.086-.802 4.357 4.357 0 00-.937-.081h-1.252v3.293h.324c.343 0 .593-.019.758-.062a.9.9 0 00.628-.61l.002-.007c.043-.113.079-.263.106-.464l.168.012-.018 2.626-.168.01a2.41 2.41 0 00-.125-.527 1.485 1.485 0 00-.27-.436 1.025 1.025 0 00-.427-.257 2.389 2.389 0 00-.672-.08h-.306v1.252c0 .511.01.878.037 1.104.027.234.081.43.15.577.122.262.313.461.564.582.254.123.574.186 1.012.186zm-.748 0a1.698 1.698 0 01-.301-.111 1.269 1.269 0 01-.603-.622 1.972 1.972 0 01-.158-.603c-.028-.232-.037-.603-.037-1.114v-1.336H155.27c.167 0 .316.012.449.033.083.013.159.03.229.05.185.056.343.158.464.279a1.573 1.573 0 01.336.611c.034.118.062.253.081.4l.019-2.626a2.512 2.512 0 01-.111.483c-.047.158-.13.288-.242.408a.975.975 0 01-.445.26c-.088.023-.198.04-.328.05-.13.01-.28.015-.452.015h-.408v-3.461h1.336c.321 0 .597.019.819.056.048.008.094.017.137.027a1.771 1.771 0 011.142.844 2.197 2.197 0 01.213.622l-.084-1.577h-5.632c.12.018.213.037.306.074l.028.01a.926.926 0 01.343.24c.121.13.204.288.251.483.037.195.065.464.065.854v4.074c0 .38-.028.668-.065.853a.944.944 0 01-.26.483 1.034 1.034 0 01-.381.25 1.94 1.94 0 01-.297.075h3.926c-.293 0-.538-.028-.748-.085z" fill="#92278F"/><path d="M169.877 40.043c-.26-.334-.687-.64-1.272-.919l-.779-.38c-.817-.39-1.225-.91-1.225-1.56 0-.157.028-.324.093-.491.055-.167.139-.307.25-.427.251-.297.603-.446 1.03-.446.297 0 .566.075.789.223.223.14.436.362.612.659.103.158.195.343.27.529.065.176.148.427.241.742l-.037-2.023c-.075.223-.204.279-.316.279a.557.557 0 01-.195-.037l-.38-.14a3.17 3.17 0 00-.585-.204 1.83 1.83 0 00-.464-.046c-.51 0-.965.176-1.336.52-.213.194-.38.436-.501.705-.121.269-.186.556-.186.853 0 .474.158.882.455 1.216.111.12.26.241.436.362.176.12.446.27.798.445.399.205.696.372.9.51.204.14.362.289.464.437.112.148.195.325.26.529.065.204.093.399.093.594 0 .455-.149.835-.436 1.132-.288.297-.659.445-1.104.445-.632 0-1.17-.324-1.578-.965-.204-.325-.39-.77-.538-1.327l-.019 2.116a.434.434 0 01.418-.27c.065 0 .12 0 .167.029.046.018.185.074.417.176.427.186.882.279 1.337.279.501 0 .946-.121 1.317-.344.362-.223.65-.547.836-.965.129-.297.204-.612.204-.937a2.03 2.03 0 00-.436-1.29v-.01z" fill="#92278F"/><path fill-rule="evenodd" clip-rule="evenodd" d="M169.961 40.023c.288.373.436.82.436 1.319 0 .338-.077.665-.211.971a2.216 2.216 0 01-.868 1.003h-.001a2.616 2.616 0 01-1.361.356c-.466 0-.932-.095-1.37-.285a13.136 13.136 0 00-.415-.176l-.007-.002-.005-.004c-.023-.013-.053-.016-.124-.016a.366.366 0 00-.205.055.387.387 0 00-.136.166l-.161-.036.019-2.116.165-.021c.147.551.33.988.528 1.303.396.621.91.926 1.507.926.425 0 .773-.14 1.044-.42.271-.28.412-.638.412-1.073 0-.187-.027-.373-.089-.568a1.683 1.683 0 00-.247-.504l-.002-.003a1.668 1.668 0 00-.442-.414 8.595 8.595 0 00-.891-.505 7.334 7.334 0 01-.807-.451 2.703 2.703 0 01-.451-.375h-.001a1.862 1.862 0 01-.476-1.272c0-.31.068-.61.193-.889a2.21 2.21 0 01.521-.732 2.003 2.003 0 011.394-.542c.167 0 .333.009.482.048.158.03.359.108.597.208l.226.083.153.056a.47.47 0 00.165.032c.042 0 .083-.01.122-.04a.363.363 0 00.114-.181l.164.025.037 2.023-.165.025a11.945 11.945 0 00-.239-.736 3.05 3.05 0 00-.261-.513l-.002-.003a1.846 1.846 0 00-.584-.63l-.003-.002a1.316 1.316 0 00-.742-.208c-.405 0-.733.14-.965.415l-.003.003c-.103.112-.18.24-.232.396l-.002.004a1.27 1.27 0 00-.087.462c0 .604.377 1.1 1.177 1.483l.78.38c.59.281 1.03.594 1.301.943l.018.023v.009zm-1.356-.899c.585.279 1.012.585 1.272.919v.01c.287.361.436.797.436 1.289 0 .325-.074.64-.204.937a2.131 2.131 0 01-.835.965 2.455 2.455 0 01-1.057.332 2.969 2.969 0 01-.465.005 3.348 3.348 0 01-1.132-.272c-.232-.102-.372-.157-.418-.176-.046-.028-.102-.028-.167-.028a.426.426 0 00-.332.139.542.542 0 00-.086.13l.019-2.116c.026.098.053.193.082.284.132.426.288.776.456 1.044.217.34.471.591.756.752.251.141.526.213.822.213a1.597 1.597 0 00.45-.058 1.41 1.41 0 00.654-.388c.288-.297.436-.677.436-1.132 0-.195-.028-.39-.093-.594a1.765 1.765 0 00-.259-.529 1.783 1.783 0 00-.464-.436 8.964 8.964 0 00-.901-.51 7.437 7.437 0 01-.798-.446 2.615 2.615 0 01-.436-.362 1.778 1.778 0 01-.454-1.215c0-.297.064-.585.185-.854.121-.27.288-.51.501-.705a1.935 1.935 0 011.401-.52c.143.003.278.014.399.046.115.022.256.07.426.139h.001a5.391 5.391 0 01.158.066l.229.083.152.056a.548.548 0 00.194.037.286.286 0 00.235-.118.544.544 0 00.081-.16l.037 2.023a12.76 12.76 0 00-.241-.743 3.132 3.132 0 00-.269-.529 2.009 2.009 0 00-.537-.608 1.207 1.207 0 00-.076-.05 1.29 1.29 0 00-.393-.175h-.002a1.575 1.575 0 00-.458-.047 1.379 1.379 0 00-.638.17 1.21 1.21 0 00-.328.274c-.111.12-.194.26-.25.427a1.354 1.354 0 00-.093.492c0 .65.408 1.169 1.225 1.559l.779.38z" fill="#92278F"/><path d="M3.96 33.214c-1.984-2.938-2.904-5.19-3.122-5.773C11.338 7.16 28.982 1.666 39.418.875 35.59 1.897 13.803 6.41 3.96 33.214z" fill="url(#aopaint0_linear_2048_860)"/><path d="M4.775 34.39a52.18 52.18 0 004.077 5.013C16.334 7.359 42.097 1.843 45.9.875c0 0-30.99 1.424-41.124 33.515h-.002z" fill="url(#aopaint1_linear_2048_860)"/><path d="M30.272 8.735c-7.616 5.106-17.42 15.226-20.477 31.662 1.447 1.485 3.308 3.202 5.113 4.595.475-7.274 4.744-34.788 35.971-43.722 0 0-8.617-.395-20.607 7.465z" fill="url(#aopaint2_linear_2048_860)"/><path d="M16.416 40.399c.296-1.82.696-3.539 1.12-5.073 2.143 3.286 11.336 14.627 28.522 18.996-9.043-.67-17.198-4.545-21.812-7.559-4.11-2.683-6.835-5.335-7.83-6.364z" fill="url(#aopaint3_linear_2048_860)"/><path d="M23.146 47.27a47.5 47.5 0 0016.63 6.994c-12.893-1.027-20.918-6.923-23.919-8.798.024-1.355.217-2.623.391-3.927.863.92 3.211 3.261 6.898 5.731z" fill="url(#aopaint4_linear_2048_860)"/><path d="M17.914 34.24c1.017-3.412 2.135-5.614 2.135-5.614 9.645 18.66 24.982 23.416 31.148 25.288 0 0-18.42-.066-33.283-19.674z" fill="url(#aopaint5_linear_2048_860)"/><path d="M53.963 40.09h.474l-3.162 6.01-.316-1.266h-.002c-.043-.001-.085-.001-.126-.003-10.474-.136-19.162-7.799-19.162-17.233 0-9.433 8.756-17.158 19.288-17.234h.002l.316-.95 3.162 5.85h-.474c-1.706-1.886-2.846-2.599-3.65-2.861a1.799 1.799 0 00-.703-.084c-8.9.67-15.886 7.22-15.886 15.202s7.309 14.83 16.498 15.24c.318.014.633-.057.914-.202.768-.395 1.616-1.128 2.827-2.465v-.004z" fill="url(#aopaint6_linear_2048_860)"/></g><defs><linearGradient id="aopaint0_linear_2048_860" x1="-1.703" y1="17.045" x2="50.987" y2="17.045" gradientUnits="userSpaceOnUse"><stop offset=".15" stop-color="#92278F"/><stop offset="1" stop-color="#F16F5B"/></linearGradient><linearGradient id="aopaint1_linear_2048_860" x1="-1.703" y1="20.138" x2="50.987" y2="20.138" gradientUnits="userSpaceOnUse"><stop offset=".15" stop-color="#92278F"/><stop offset="1" stop-color="#F16F5B"/></linearGradient><linearGradient id="aopaint2_linear_2048_860" x1="-1.703" y1="23.13" x2="50.987" y2="23.13" gradientUnits="userSpaceOnUse"><stop offset=".15" stop-color="#92278F"/><stop offset="1" stop-color="#F16F5B"/></linearGradient><linearGradient id="aopaint3_linear_2048_860" x1="-1.704" y1="44.825" x2="50.986" y2="44.825" gradientUnits="userSpaceOnUse"><stop offset=".15" stop-color="#92278F"/><stop offset="1" stop-color="#F16F5B"/></linearGradient><linearGradient id="aopaint4_linear_2048_860" x1="-1.703" y1="47.901" x2="50.987" y2="47.901" gradientUnits="userSpaceOnUse"><stop offset=".15" stop-color="#92278F"/><stop offset="1" stop-color="#F16F5B"/></linearGradient><linearGradient id="aopaint5_linear_2048_860" x1="-1.703" y1="41.27" x2="50.987" y2="41.27" gradientUnits="userSpaceOnUse"><stop offset=".15" stop-color="#92278F"/><stop offset="1" stop-color="#F16F5B"/></linearGradient><linearGradient id="aopaint6_linear_2048_860" x1="-1.704" y1="27.757" x2="50.986" y2="27.757" gradientUnits="userSpaceOnUse"><stop offset=".15" stop-color="#92278F"/><stop offset="1" stop-color="#F16F5B"/></linearGradient><clipPath id="aoclip0_2048_860"><path fill="#fff" transform="translate(0 .599)" d="M0 0h194v54H0z"/></clipPath></defs></svg><svg fill="none" viewBox="0 0 24 24" id="marker" xmlns="http://www.w3.org/2000/svg"><path d="M20 10c0 4.418-8 12-8 12s-8-7.582-8-12a8 8 0 1116 0z" stroke="#fff" stroke-width="1.5"/><path d="M12 11a1 1 0 100-2 1 1 0 000 2z" fill="#fff" stroke="#fff" stroke-width="1.5" stroke-linecap="round" stroke-linejoin="round"/></svg><svg fill="none" viewBox="0 0 16 19" id="marker--footer" xmlns="http://www.w3.org/2000/svg"><path d="M14.627 8.393c0 5.304-5.432 8.572-6.562 9.195a.423.423 0 01-.408 0c-1.13-.623-6.561-3.89-6.561-9.195 0-4.229 2.537-7.189 6.766-7.189 4.228 0 6.765 2.96 6.765 7.189z" stroke="#92278F" stroke-width="1.381" stroke-linecap="round" stroke-linejoin="round"/><path d="M4.479 7.97a3.383 3.383 0 106.766 0 3.383 3.383 0 00-6.766 0v0z" stroke="#92278F" stroke-width="1.381" stroke-linecap="round" stroke-linejoin="round"/></svg><svg viewBox="0 0 18 22" id="pencil" xmlns="http://www.w3.org/2000/svg"><path d="M16.255 19.726H1.088a1.083 1.083 0 100 2.166h15.167a1.083 1.083 0 100-2.166zM1.088 17.559h.097l4.518-.412c.495-.049.958-.267 1.31-.617l9.75-9.75a2.08 2.08 0 00-.075-2.936L13.72.876A2.167 2.167 0 0010.838.8l-9.75 9.75c-.35.353-.568.816-.618 1.31l-.465 4.518a1.083 1.083 0 001.083 1.181zM12.214 2.392L15.17 5.35l-2.166 2.112L10.1 4.56l2.113-2.167zm-9.642 9.653l6.1-6.056 2.924 2.925-6.066 6.067-3.25.303.292-3.24z"/></svg><svg fill="none" viewBox="0 0 19 19" id="phone" xmlns="http://www.w3.org/2000/svg"><path d="M12.082 16.775l.01.006a4.043 4.043 0 005.03-.552l.565-.565a1.35 1.35 0 000-1.906l-2.384-2.382a1.348 1.348 0 00-1.906 0 1.347 1.347 0 01-1.905 0l-3.81-3.811a1.347 1.347 0 010-1.905 1.347 1.347 0 000-1.907L5.298 1.372a1.347 1.347 0 00-1.905 0l-.566.565a4.042 4.042 0 00-.552 5.03l.006.01a36.474 36.474 0 009.8 9.798v0z" stroke="#92278F" stroke-width="1.381" stroke-linecap="round" stroke-linejoin="round"/></svg><svg fill="none" viewBox="0 0 18 17" id="plane" xmlns="http://www.w3.org/2000/svg"><path d="M0 9.12l4.552 1.872 10.552-7.83-8.276 8.852v4.085l3.103-3.234 5.173 1.702L18 .099 0 9.119z" fill="#fff"/></svg><svg class="ausvg-icon" style="width:1em;height:1em;vertical-align:middle" viewBox="0 0 1024 1024" overflow="hidden" id="play" xmlns="http://www.w3.org/2000/svg"><path d="M852.728 392.447c104.27 66.027 104.213 173.113 0 239.103l-570.84 361.47c-104.27 66.026-188.797 23.034-188.797-95.883V126.86c0-118.98 84.584-161.873 188.798-95.882l570.839 361.47z"/></svg><svg viewBox="0 0 26 24" id="price-high" xmlns="http://www.w3.org/2000/svg"><path fill-rule="evenodd" clip-rule="evenodd" d="M13.311 18.61a.813.813 0 00.264-.177l4.875-4.875a.814.814 0 10-1.15-1.15l-3.488 3.489V1.608a.813.813 0 00-1.624 0v14.289L8.7 12.407a.813.813 0 10-1.15 1.151l4.875 4.875a.813.813 0 00.886.177zM1.387 15.498A.812.812 0 000 16.073v4.062a3.25 3.25 0 003.25 3.25h19.5a3.25 3.25 0 003.25-3.25v-4.063a.812.812 0 10-1.625 0v4.063a1.625 1.625 0 01-1.625 1.625H3.25a1.625 1.625 0 01-1.625-1.625v-4.063a.812.812 0 00-.238-.574z"/></svg><svg viewBox="0 0 26 24" id="price-low" xmlns="http://www.w3.org/2000/svg"><path d="M.813 15.26a.812.812 0 01.812.812v4.063A1.625 1.625 0 003.25 21.76h19.5a1.625 1.625 0 001.625-1.625v-4.063a.812.812 0 111.625 0v4.063a3.25 3.25 0 01-3.25 3.25H3.25A3.25 3.25 0 010 20.135v-4.063a.812.812 0 01.813-.812z"/><path d="M12.425 1.035a.812.812 0 011.15 0L18.45 5.91a.814.814 0 01-1.15 1.15l-3.488-3.489V17.86a.813.813 0 11-1.624 0V3.57L8.7 7.061A.813.813 0 117.55 5.91l4.875-4.875z"/></svg><svg fill="none" viewBox="0 0 52 44" id="quote" xmlns="http://www.w3.org/2000/svg"><path d="M15.938.098C5.957.098 0 4.93 0 14.915v28.183h21.895V18.136h-9.66v-3.382c0-3.382 1.288-4.026 4.025-4.026h5.474V.098h-5.796zm29.944 0c-9.981 0-15.938 4.832-15.938 14.817v28.183H52V18.136h-9.66v-3.382c0-3.382 1.288-4.026 4.025-4.026h5.313V.098h-5.796z" fill="#FA86B7" fill-opacity=".2"/></svg><svg fill="none" viewBox="0 0 26 26" id="search" xmlns="http://www.w3.org/2000/svg"><path d="M19.667 19.667L25 25M1 11.667a10.667 10.667 0 1021.333 0 10.667 10.667 0 00-21.333 0z" stroke="#fff" stroke-width="1.5" stroke-linecap="round" stroke-linejoin="round"/></svg><svg fill="none" viewBox="0 0 387 356" id="service-decor" xmlns="http://www.w3.org/2000/svg"><path d="M303.031 14.586c1.77.206 3.509.695 5.198 1.402" stroke="#92278F" stroke-opacity=".2" stroke-width="2" stroke-miterlimit="10" stroke-linecap="round"/><path d="M317.128 21.886c4.35 3.934 8.01 8.793 10.565 12.92 5.873 9.49 12.176 18.844 15.022 29.77 3.313 12.725 4.674 27.604 3.311 40.681-2.407 23.072-11.744 42.816-29.415 58.06-15.389 13.274-32.76 22.667-52.717 27.159-20.98 4.724-38.293 3.367-57.668-6.732-20.034-10.44-38.157-24.212-43.634-47.161-1.887-7.9-2.519-18.305 3.72-24.735 3.868-3.986 10.051-2.899 14.921-1.924 20.466 4.097 38.031 23.866 42.629 43.694 4.417 19.053 3.954 43.18-6.907 60.087-10.273 15.993-26.938 29.7-44.311 37.353-9.083 4.003-17.811 5.306-27.612 5.846-10.451.577-22.133 2.595-32.517.664-7.352-1.367-13.886-5.305-20.1-9.266-8.213-5.233-19.237-12.837-24.656-21.139-7.138-10.937 2.13-23.877 14.403-24.7 14.116-.946 27.994 14.749 33.492 26.513 6.557 14.03 5.405 35.056-4.049 47.679-7.429 9.919-20.494 15.647-32.676 14.467" stroke="#92278F" stroke-opacity=".2" stroke-width="2" stroke-miterlimit="10" stroke-linecap="round" stroke-dasharray="5.96 5.96"/><path d="M73.646 290.151a28.967 28.967 0 01-5.045-1.917M75.584 262.653l.947-.631c-1.789.299-3.55.671-5.292 1.096" stroke="#92278F" stroke-opacity=".2" stroke-width="2" stroke-miterlimit="10" stroke-linecap="round"/><path d="M61.069 266.118c-5.578 1.84-11.104 3.835-16.859 5.273-4.687 1.172-8.306 2.103-12.727 3.588-1.592.536-5.32.698-6.54 1.817-3.243 2.974 4.3 8.99 6.725 11.279 5.28 4.984 10.593 9.969 15.92 14.913.973.904 2.71 2.053 4.494 3.373" stroke="#92278F" stroke-opacity=".2" stroke-width="2" stroke-miterlimit="10" stroke-linecap="round" stroke-dasharray="5.89 5.89"/><path d="M56.087 309.826c1.387 1.536 2.25 3.18 1.887 4.86" stroke="#92278F" stroke-opacity=".2" stroke-width="2" stroke-miterlimit="10" stroke-linecap="round"/></svg><svg viewBox="0 0 14 13" id="star" xmlns="http://www.w3.org/2000/svg"><path d="M10.607 8.327a.707.707 0 00-.205.623l.571 3.162a.694.694 0 01-.289.694.707.707 0 01-.752.051l-2.846-1.484a.726.726 0 00-.321-.084H6.59a.523.523 0 00-.174.057L3.57 12.838a.75.75 0 01-.456.07.714.714 0 01-.572-.816l.572-3.162a.72.72 0 00-.205-.629L.59 6.051a.694.694 0 01-.173-.725.722.722 0 01.571-.482l3.194-.464a.715.715 0 00.565-.39l1.408-2.886A.669.669 0 016.282.93L6.34.885a.431.431 0 01.104-.083l.07-.026.109-.045h.27c.242.025.455.17.566.386l1.426 2.872c.103.21.303.356.533.391l3.194.464c.27.038.495.225.585.482a.698.698 0 01-.186.726l-2.404 2.275z"/></svg><svg viewBox="0 0 21 17" id="twitter" xmlns="http://www.w3.org/2000/svg"><path d="M14.06.939V.935h.937l.343.068c.228.043.435.1.622.172.186.07.366.154.54.248.175.095.333.192.475.29.14.097.267.2.379.309.11.11.283.138.517.085.235-.053.487-.127.758-.222.27-.095.538-.201.802-.32a9.35 9.35 0 00.484-.225l.09-.053.003-.006.018-.009.019-.008.018-.01.018-.008.003-.006.006-.003.005-.004.004-.005.018-.005.018-.004-.004.027-.005.026-.01.027-.008.027-.01.017-.008.018-.01.027a.607.607 0 00-.017.07c-.006.03-.064.149-.172.356a4.432 4.432 0 01-.405.63 3.118 3.118 0 01-.437.484c-.13.11-.216.187-.258.23a.773.773 0 01-.153.125l-.09.058-.018.01-.018.008-.004.005-.005.004-.006.003-.003.006-.018.009-.018.009-.004.005-.005.003-.006.004-.003.005-.004.006-.005.003-.006.004-.003.005h.09l.505-.106a9.14 9.14 0 00.964-.258l.487-.16.055-.018.027-.008.018-.01.018-.008.018-.01.018-.008.036-.005.036-.004v.036l-.01.003-.008.006-.004.005-.005.003-.006.004-.003.005-.004.006-.005.003-.006.004-.003.005-.004.005-.005.004-.01.018-.008.017-.006.004-.229.302c-.15.199-.231.3-.243.302-.012.003-.03.021-.05.053a5.1 5.1 0 01-.383.396c-.235.23-.464.436-.689.616-.226.181-.34.404-.343.668-.003.263-.017.56-.041.891-.024.332-.07.69-.135 1.075-.066.385-.169.82-.307 1.305-.138.485-.306.959-.505 1.42-.198.462-.406.877-.622 1.244a12.014 12.014 0 01-1.145 1.652c-.187.224-.422.477-.707.76l-.47.461c-.027.026-.145.123-.353.291-.206.17-.429.339-.667.508a7.735 7.735 0 01-.653.421c-.198.112-.437.24-.717.385-.28.146-.581.28-.906.405-.324.125-.667.24-1.028.347-.36.106-.71.189-1.046.248-.336.06-.718.11-1.145.151l-.64.062v.01H6.413v-.01l-.154-.009a8.013 8.013 0 01-.252-.018 30.22 30.22 0 01-.749-.097c-.432-.06-.772-.119-1.018-.178-.247-.059-.614-.171-1.1-.337a10.79 10.79 0 01-1.25-.503 49.979 49.979 0 01-.65-.32 4.635 4.635 0 01-.292-.163l-.162-.097-.004-.006-.005-.003-.005-.004-.004-.005-.018-.009-.018-.009-.004-.005-.005-.004-.006-.003-.003-.006-.004-.005-.005-.003h-.01v-.036l.019.004.018.005.081.009c.054.006.201.014.442.026a8.295 8.295 0 001.596-.08 9.5 9.5 0 001-.213c.386-.1.739-.22 1.061-.358.321-.14.55-.244.686-.313.134-.067.34-.193.616-.376l.415-.276.004-.005.005-.004.006-.003.003-.005.004-.006.005-.003.006-.004.003-.005.018-.006.018-.003.004-.018.005-.018.006-.003.003-.005-.144-.01-.28-.017a2.754 2.754 0 01-.423-.08 4.116 4.116 0 01-.623-.213 4.825 4.825 0 01-.649-.337 3.2 3.2 0 01-.456-.325 7.861 7.861 0 01-.36-.363 3.594 3.594 0 01-.383-.485 4.326 4.326 0 01-.31-.573l-.15-.323-.009-.027-.009-.027-.005-.017-.004-.018.027.003.027.006.199.026c.132.018.34.024.622.018a4.88 4.88 0 00.586-.035c.108-.018.174-.03.198-.036l.036-.009.045-.009.045-.008.004-.006.005-.003.006-.004.003-.005-.036-.01-.036-.008-.036-.009-.036-.009-.036-.009a3.437 3.437 0 01-.126-.035 6.996 6.996 0 01-.487-.196 3.738 3.738 0 01-.631-.328 4.348 4.348 0 01-.448-.35 5.057 5.057 0 01-.463-.493 3.545 3.545 0 01-.45-.702 4.226 4.226 0 01-.298-.764 4.066 4.066 0 01-.13-.736l-.033-.373.018.003.018.005.018.01.018.008.018.01.018.008.28.124c.186.083.418.154.694.213.277.06.442.092.496.098l.081.009h.163l-.004-.005-.005-.004-.006-.003-.003-.006-.004-.005-.005-.004-.006-.003-.003-.006-.018-.008-.018-.01-.004-.005-.005-.003-.006-.004-.003-.005-.018-.009-.018-.009-.004-.005-.155-.114a2.35 2.35 0 01-.31-.29 10.49 10.49 0 01-.325-.372 2.877 2.877 0 01-.289-.418 5.023 5.023 0 01-.266-.564 3.963 3.963 0 01-.293-1.371 4.24 4.24 0 01.018-.577c.018-.16.055-.34.109-.542.054-.201.132-.414.234-.64l.153-.337.01-.026.008-.027.006-.003.003-.006.004-.005.005-.004.006.004.003.005.004.006.005.003.006.004.003.005.004.005.005.004.01.018.009.017.005.004.004.005.243.267c.162.177.355.376.577.595.223.219.346.332.37.34.024.01.054.037.09.082.036.044.156.149.36.315.205.165.473.358.803.577.33.219.698.435 1.1.648.403.213.836.405 1.299.577.463.172.787.284.974.337.186.054.505.122.955.205.451.082.79.136 1.02.16.228.023.384.037.468.04l.127.004-.004-.027-.006-.026-.036-.222a4.101 4.101 0 01-.036-.622c0-.266.021-.512.063-.737.043-.225.106-.453.19-.684.084-.23.166-.416.247-.555.082-.139.189-.297.32-.475.133-.177.305-.36.515-.55.21-.19.45-.358.721-.506.27-.148.52-.26.749-.338.228-.077.42-.127.577-.15.156-.024.234-.038.234-.041z"/></svg><svg fill="none" viewBox="0 0 24 24" id="twitter-aside" xmlns="http://www.w3.org/2000/svg"><path d="M22.46 6.012a8.58 8.58 0 01-2.466.676 4.305 4.305 0 001.887-2.374 8.591 8.591 0 01-2.725 1.041 4.292 4.292 0 00-7.313 3.914 12.184 12.184 0 01-8.846-4.483 4.271 4.271 0 00-.581 2.157 4.29 4.29 0 001.91 3.572 4.276 4.276 0 01-1.945-.537v.054c0 2.08 1.48 3.814 3.443 4.209a4.296 4.296 0 01-1.939.073 4.296 4.296 0 004.01 2.98 8.61 8.61 0 01-5.33 1.838c-.347 0-.688-.02-1.024-.06A12.147 12.147 0 008.12 21c7.893 0 12.21-6.54 12.21-12.21 0-.187-.004-.372-.012-.556a8.719 8.719 0 002.141-2.222z" fill="#767676"/></svg><svg fill="none" viewBox="0 0 198 210" id="upcoming-decor" xmlns="http://www.w3.org/2000/svg"><path d="M160.067 181.005c-1.234.001-2.754.851-4.271 1.856" stroke="#92278F" stroke-opacity=".2" stroke-width="2" stroke-miterlimit="10" stroke-linecap="round"/><path d="M147.631 187.345c-2.165.862-4.366 1.642-6.531 2.426-3.514 1.273-6.564 1.529-10.269 1.466-4.169-.07-7.686 1.355-11.756 1.517-16.926.674-32.857-1.576-49.104-6.084-4.27-1.186-8.28-1.866-12.219-4.1-5.384-3.055-12.401-7.095-16.111-12.092-4.57-6.155-10.41-10.046-15.787-15.427-4.735-4.74-9.159-10.732-12.063-16.805-3.351-7.006-6.926-16.005-8.377-23.65-.622-3.283-.446-6.485-1.382-9.737-.761-2.65-1.759-4.661-1.938-7.474-.417-6.516.107-13.242.076-19.779-.055-11.143 3.249-20.421 7.31-30.737 1.246-3.161 2.196-6.473 4.271-9.216 1.984-2.62 4.98-4.578 7.061-7.205 4.82-6.083 9.484-10.593 16.076-14.688 8.287-5.148 17.077-8.905 26.765-10.162C70.28 4.74 76.07 1.401 82.98 1.103c7.285-.314 14.75-.06 21.53 2.924 9.603 4.225 20.152 9.678 27.492 17.26 4.34 4.482 8.127 9.882 11.724 14.98 4.962 7.033 5.432 17.994 6.572 26.311 2.203 16.052-6.854 30.522-16.259 42.503-8.724 11.11-21.248 17.506-35.627 17.507-7.522.002-16.688-.359-23.175-4.717-8.212-5.516-14.853-12.036-20.145-20.503-5.249-8.395-10.025-19.187-7.777-29.23 2.032-9.072 4.478-17.777 12.243-23.13 7.538-5.196 15.891-6.747 24.406-3.33 7.873 3.159 11.14 8.939 12.44 15.935" stroke="#92278F" stroke-opacity=".2" stroke-width="2" stroke-miterlimit="10" stroke-linecap="round" stroke-dasharray="5.95 5.95"/><path d="M96.995 62.251c.12 1.536.18 3.11.204 4.712" stroke="#92278F" stroke-opacity=".2" stroke-width="2" stroke-miterlimit="10" stroke-linecap="round"/><path d="M48.24 156.435l4.75 1.345h16.69v-2.535H51.196l-2.956 1.19z" fill="#F85E9F"/><path d="M65.402 155.72v5.335h4.754v-6.127l-4.754.792zM50.667 162.992a.194.194 0 01-.194-.194v-7.077a.194.194 0 11.388 0v7.077a.194.194 0 01-.194.194zM54.734 162.992a.194.194 0 01-.194-.194v-7.077a.194.194 0 11.388 0v7.077a.194.194 0 01-.194.194zM64.792 146.816l4.079 1.656h13.082v-3.59H68.169l-3.377 1.934z" fill="#F85E9F"/><path d="M75.337 147.564h-.388v3.342h.388v-3.342zM82.264 136.126l3.073 2.111h2.688v-2.527h-3.968l-1.793.416zM99.129 136.126l2.22 2.028h-5.654l-4.044 4.622h-8.213l1.816-1.816 5.442-5.25 8.433.416z" fill="#F85E9F"/><path d="M97.004 135.71h-.389v7.422h.389v-7.422zM90.17 135.71h-.388v7.422h.388v-7.422zM86.07 122.421h-.388v13.289h.388v-13.289zM94.019 133.953v-1.043h4.997v-.388h-.876v-1.617h.876v-.388h-4.761v.388h1.226v1.617h-1.462v-5.965h-.388v5.965h-.548V129.048h-1.135v-3.622h1.376v-.388h-1.376v-2.727h1.376v-.388h-1.376V118h-.388v3.923h-1.673v.388h1.202v2.727h-.534v.388h1.005v3.622h-.443l-.622-1.234a2.82 2.82 0 00.203-1.059c0-1.118-.598-2.024-1.336-2.024-.738 0-1.336.906-1.336 2.024 0 1.116.598 2.022 1.336 2.022.064 0 .126-.015.188-.029v.3h-1.524v.389h2.398v3.084h-1.468v.389h1.468v2.384h2.66v-.952h.547v1.368h.388v-1.368h6.573v-.389h-6.573zm-2.542-8.915v-2.726h.082v2.726h-.082zm-1.54 3.534c.123-.089.234-.203.332-.342l.412.819h-.743v-.477zm3.146 5.381v-1.043h.547v1.043h-.547zM77.194 154.465l-3.554 8.825h43.067v-8.371l-39.513-.454z" fill="#F85E9F"/><path d="M99.524 155.564h-4.76v7.118h4.76v-7.118zM102.567 155.564h-1.437v7.118h1.437v-7.118z" fill="#F79FC4"/><path d="M128.161 146.442H82.264v6.6h45.897v-6.6z" fill="#F85E9F"/><path d="M107.19 146.442h-3.096l-3.595 6.601h3.097l3.594-6.601zM101.91 146.442h-1.325l-3.594 6.601h1.325l3.594-6.601zM94.238 153.043l3.595-6.601h-3.097l-3.594 6.601h3.096zM120.625 146.442H119.3l-3.594 6.601h1.325l3.594-6.601zM116.548 146.442h-3.097l-3.595 6.601h3.097l3.595-6.601zM111.268 146.442h-1.325l-3.594 6.601h1.324l3.595-6.601z" fill="#F2F2F2"/><path d="M63.561 161.649s8.947-11.031 16.104-14.833H64.792l5.144-4.25s51.33-2.124 61.06 4.81H99.683s-16.887-.305-22.59 14.274l-13.532-.001z" fill="#F79FC4"/><path d="M71.267 146.152h-.776v8.313h.776v-8.313z" fill="#F79FC4"/><path d="M161.525 172H39s5.792-9.628 8.793-10.351h57.763s7.097-.183 9.222-5.215H48.239l4.809-4.026h96.621l2.572 2.012h24.826s-10.173 7.2-15.542 17.58z" fill="#FF8BBC"/><path d="M144.722 167.784H41.777C40.194 170.017 39 172 39 172h122.525c5.369-10.38 15.543-17.58 15.543-17.58h-13.711c-6.83 12.993-18.635 13.364-18.635 13.364z" fill="#92278F" fill-opacity=".2"/><path d="M86.426 142.259s5.159-5.468 6.657-6.133h-5.548s-5.382 2.109-9.265 6.214l8.156-.081z" fill="#FF8BBC"/><path d="M82.264 136.126H99.13l-1.85-.832H84.816s-1.942.055-2.552.832z" fill="#F79FC4"/><path d="M156.122 172h4.083c.757-5.432 2.44-9.453 2.44-9.453h-4.084s-1.682 4.021-2.439 9.453z" fill="#FF8BFA"/><path d="M119.798 156.434h-1.906v1.999h1.906v-1.999zM147.462 156.434h-1.905v1.999h1.905v-1.999zM127.851 156.434h-1.905v1.999h1.905v-1.999zM130.618 156.434h-1.906v1.999h1.906v-1.999zM133.384 156.434h-1.905v1.999h1.905v-1.999zM81.058 166.167h-1.673v1.078h1.673v-1.078zM89.352 166.167h-1.674v1.078h1.674v-1.078zM91.695 166.167h-1.674v1.078h1.674v-1.078zM94.038 166.167h-1.673v1.078h1.673v-1.078zM100.361 166.167h-1.674v1.078h1.674v-1.078zM112.56 166.167h-1.674v1.078h1.674v-1.078zM115.052 166.167h-1.674v1.078h1.674v-1.078zM117.544 166.167h-1.674v1.078h1.674v-1.078zM129.335 165.886h-2.321v1.079h2.321v-1.079zM137.331 165.886h-2.32v1.079h2.32v-1.079zM114.215 165.137H53.657a.388.388 0 010-.777h60.558a.388.388 0 110 .777zM102.567 150.673v.466h.823v1.269h.466v-1.269h2.274v1.269h.466v-1.269h2.274v1.269h.466v-1.269h2.274v1.269h.466v-1.269h2.274v1.269h.465v-1.269h2.275v1.269h.466v-1.269h2.274v1.269h.466v-1.269h2.274v1.269h.466v-1.269h2.274v1.269h.466v-1.269h2.274v1.269h.465v-1.269h2.275v1.269h.465v-1.269h2.275v1.269h.466v-1.269h2.274v1.269h.465v-1.269h2.275v1.269h.466v-1.269h2.274v1.269h.465v-1.269h2.275v1.269h.465v-1.269h2.275v1.269h.465v-1.269h1.689v-.466h-46.817zM74.857 151.478H52.99a.194.194 0 110-.389h21.866a.194.194 0 010 .389z" fill="#F85E9F"/><path d="M142.04 166.383c1.586.011 3.153 0 4.71.003" stroke="#92278F" stroke-opacity=".2" stroke-width="2" stroke-miterlimit="10" stroke-linecap="round"/><path d="M156.526 166.955c.229.034.459.069.688.108 5.835.966 11.6 2.556 17.459 3.382 4.58.647 9.224 1.759 13.822 1.822 1.744.023 7.133-.957 8.394.097 2.669 2.233-2.382 7.766-3.682 9.702-2.581 3.841-4.158 8.127-6.574 12.042-1.381 2.234-3.356 3.825-5.023 5.737" stroke="#92278F" stroke-opacity=".2" stroke-width="2" stroke-miterlimit="10" stroke-linecap="round" stroke-dasharray="6.24 6.24"/><path d="M179.156 204.047c-.451 1.487-.603 3.027-.889 4.624-.906.214-1.286-.235-1.137-1.35" stroke="#92278F" stroke-opacity=".2" stroke-width="2" stroke-miterlimit="10" stroke-linecap="round"/></svg><svg viewBox="0 0 21 15" id="youtube" xmlns="http://www.w3.org/2000/svg"><path d="M11.226 14.917l-4.103-.076c-1.329-.027-2.66.026-3.963-.248-1.981-.41-2.122-2.418-2.268-4.103a29.12 29.12 0 01.257-7.128c.216-1.318 1.065-2.104 2.377-2.19 4.43-.31 8.889-.274 13.308-.129.467.013.937.086 1.397.169 2.272.403 2.328 2.679 2.475 4.595a26.357 26.357 0 01-.196 5.803c-.225 1.592-.656 2.927-2.475 3.056-2.278.168-4.504.304-6.79.261 0-.01-.012-.01-.019-.01zm-2.412-4.03c1.717-.998 3.401-1.979 5.109-2.97-1.72-.998-3.402-1.979-5.109-2.97v5.94z"/></svg></svg>