<svg width="14" height="13" viewBox="0 0 14 13" xmlns="http://www.w3.org/2000/svg">
<path d="M10.6071 8.32679C10.4407 8.48809 10.3642 8.72136 10.4021 8.95013L10.9734 12.1118C11.0216 12.3798 10.9085 12.6509 10.6842 12.8058C10.4644 12.9665 10.172 12.9858 9.93235 12.8572L7.0862 11.3728C6.98724 11.3201 6.87735 11.2918 6.7649 11.2886H6.59075C6.53034 11.2976 6.47122 11.3169 6.41724 11.3464L3.57046 12.8379C3.42972 12.9086 3.27035 12.9337 3.1142 12.9086C2.73377 12.8367 2.47994 12.4742 2.54227 12.0919L3.1142 8.93021C3.15211 8.69951 3.07564 8.46495 2.9092 8.30109L0.588721 6.05193C0.394651 5.86365 0.327177 5.5809 0.415857 5.32578C0.501968 5.0713 0.721742 4.88559 0.987142 4.84382L4.18094 4.38049C4.42385 4.35543 4.6372 4.20763 4.74644 3.98914L6.15377 1.1038C6.18718 1.03953 6.23024 0.980414 6.28229 0.93029L6.34013 0.885307C6.37033 0.851891 6.40503 0.824258 6.44359 0.801767L6.51363 0.776062L6.62288 0.731079H6.89342C7.13504 0.756141 7.34775 0.90073 7.45892 1.11665L8.88488 3.98914C8.9877 4.19927 9.18756 4.34515 9.41825 4.38049L12.6121 4.84382C12.8819 4.88237 13.1075 5.06873 13.1968 5.32578C13.281 5.58347 13.2084 5.86622 13.0105 6.05193L10.6071 8.32679Z"/>
</svg>
