<svg width="21" height="17" viewBox="0 0 21 17" xmlns="http://www.w3.org/2000/svg">
<path d="M14.0592 0.93861V0.935059H14.997L15.3396 1.00254C15.5681 1.04635 15.7755 1.10376 15.9618 1.17479C16.1482 1.24582 16.3285 1.3287 16.5028 1.4234C16.6772 1.51811 16.8353 1.61461 16.9772 1.71286C17.1178 1.80994 17.2441 1.91294 17.3559 2.02185C17.4665 2.13195 17.639 2.16036 17.8734 2.10709C18.1079 2.05382 18.3604 1.97982 18.6309 1.88511C18.9014 1.79041 19.1689 1.68386 19.4334 1.56547C19.6979 1.44708 19.859 1.37191 19.9167 1.33994C19.9732 1.30681 20.0033 1.28905 20.0069 1.28667L20.0105 1.28134L20.0285 1.27246L20.0466 1.26358L20.0646 1.2547L20.0826 1.24582L20.0862 1.2405L20.0917 1.23695L20.0971 1.23339L20.1007 1.22807L20.1187 1.22274L20.1367 1.21919L20.1331 1.24582L20.1277 1.27246L20.1187 1.2991L20.1097 1.32574L20.1007 1.34349L20.0917 1.36125L20.0826 1.38789C20.0766 1.40565 20.0706 1.42932 20.0646 1.45892C20.0586 1.48852 20.0015 1.6069 19.8933 1.81408C19.7851 2.02127 19.6498 2.2314 19.4875 2.44449C19.3252 2.65759 19.1797 2.81858 19.0511 2.92751C18.9212 3.03761 18.8353 3.11456 18.7932 3.15837C18.7511 3.20335 18.7 3.24478 18.6399 3.28267L18.5497 3.34127L18.5317 3.35015L18.5137 3.35903L18.5101 3.36436L18.5046 3.36791L18.4992 3.37146L18.4956 3.37679L18.4776 3.38567L18.4596 3.39455L18.456 3.39988L18.4505 3.40343L18.4451 3.40698L18.4415 3.41231L18.4379 3.41763L18.4325 3.42119L18.4271 3.42474L18.4235 3.43006H18.5137L19.0186 3.32352C19.3553 3.25248 19.6769 3.16666 19.9834 3.06602L20.4704 2.9062L20.5245 2.88844L20.5515 2.87956L20.5696 2.87069L20.5876 2.86181L20.6056 2.85293L20.6237 2.84405L20.6597 2.83872L20.6958 2.83517V2.87069L20.6868 2.87424L20.6778 2.87956L20.6742 2.88489L20.6687 2.88844L20.6633 2.892L20.6597 2.89732L20.6561 2.90265L20.6507 2.9062L20.6453 2.90975L20.6417 2.91508L20.6381 2.92041L20.6327 2.92396L20.6237 2.94172L20.6146 2.95948L20.6092 2.96303C20.6068 2.96658 20.5305 3.0672 20.3802 3.26491C20.2299 3.4638 20.1488 3.56442 20.1367 3.5668C20.1247 3.57035 20.1079 3.58811 20.0862 3.62008C20.0658 3.65321 19.9384 3.78523 19.7039 4.01608C19.4695 4.24693 19.2399 4.45232 19.015 4.63228C18.789 4.81342 18.6748 5.03598 18.6724 5.29999C18.6688 5.56281 18.6549 5.85997 18.6309 6.19144C18.6068 6.52293 18.5618 6.88104 18.4956 7.2658C18.4295 7.65057 18.3273 8.08564 18.189 8.57102C18.0508 9.0564 17.8825 9.52995 17.6841 9.99166C17.4857 10.4534 17.2783 10.8677 17.0619 11.2347C16.8455 11.6017 16.6471 11.9125 16.4668 12.167C16.2864 12.4215 16.1031 12.6613 15.9167 12.8862C15.7304 13.1112 15.4947 13.3645 15.2098 13.6463C14.9236 13.9268 14.7674 14.0808 14.7409 14.108C14.7133 14.134 14.5954 14.2311 14.3874 14.3992C14.1806 14.5685 13.9582 14.7378 13.7201 14.9071C13.4833 15.0752 13.2657 15.2155 13.0673 15.328C12.8689 15.4404 12.6297 15.5689 12.3495 15.7133C12.0706 15.8589 11.7688 15.9939 11.4442 16.1182C11.1196 16.2425 10.777 16.3579 10.4163 16.4645C10.0556 16.571 9.70693 16.6539 9.37028 16.7131C9.03365 16.7723 8.65192 16.8226 8.22511 16.864L7.58489 16.9262V16.9351H6.41266V16.9262L6.25937 16.9173C6.15719 16.9114 6.07302 16.9055 6.00689 16.8995C5.94078 16.8936 5.69129 16.8611 5.25847 16.8019C4.82565 16.7427 4.48601 16.6835 4.23953 16.6243C3.99308 16.5651 3.62637 16.4526 3.13944 16.2869C2.65252 16.1212 2.23593 15.9536 1.88967 15.7843C1.54462 15.6162 1.32821 15.5097 1.24044 15.4647C1.15387 15.4209 1.05649 15.3664 0.94828 15.3013L0.785972 15.2036L0.782383 15.1983L0.776955 15.1948L0.771545 15.1912L0.767938 15.1859L0.749904 15.177L0.731869 15.1681L0.72828 15.1628L0.722852 15.1593L0.717442 15.1557L0.713835 15.1504L0.710246 15.145L0.704818 15.1415H0.695801V15.106L0.713835 15.1095L0.731869 15.1149L0.813024 15.1237C0.867126 15.1297 1.01441 15.1385 1.25486 15.1504C1.49533 15.1622 1.75081 15.1622 2.02132 15.1504C2.29183 15.1385 2.56837 15.1119 2.8509 15.0705C3.13344 15.029 3.46707 14.958 3.8518 14.8574C4.23654 14.7567 4.59001 14.6372 4.91223 14.4987C5.23324 14.359 5.46166 14.2548 5.59753 14.1861C5.73218 14.1186 5.93777 13.9931 6.21429 13.8096L6.62907 13.5344L6.63268 13.5291L6.63809 13.5255L6.64352 13.522L6.64711 13.5166L6.65072 13.5113L6.65613 13.5078L6.66155 13.5042L6.66514 13.4989L6.68318 13.4935L6.70121 13.49L6.70482 13.4722L6.71023 13.4545L6.71566 13.4509L6.71925 13.4456L6.57497 13.4367C6.47879 13.4308 6.38561 13.4249 6.29544 13.419C6.20527 13.4131 6.06401 13.3864 5.87163 13.3391C5.67928 13.2917 5.47189 13.2207 5.24945 13.126C5.02704 13.0313 4.81062 12.9188 4.60022 12.7886C4.38983 12.6583 4.23773 12.55 4.14395 12.4636C4.05138 12.3783 3.93115 12.2576 3.78327 12.1013C3.63659 11.9439 3.50915 11.7823 3.40094 11.6165C3.29273 11.4508 3.18934 11.2596 3.09077 11.0429L2.94107 10.7197L2.93205 10.6931L2.92303 10.6665L2.91762 10.6487L2.91402 10.631L2.94107 10.6345L2.96812 10.6398L3.1665 10.6665C3.29876 10.6842 3.50615 10.6901 3.78868 10.6842C4.07122 10.6783 4.26659 10.6665 4.37479 10.6487C4.483 10.631 4.54913 10.6191 4.57317 10.6132L4.60924 10.6043L4.65432 10.5954L4.69941 10.5866L4.70301 10.5812L4.70842 10.5777L4.71385 10.5741L4.71744 10.5688L4.68137 10.5599L4.6453 10.551L4.60924 10.5422L4.57317 10.5333L4.5371 10.5244C4.51306 10.5185 4.47099 10.5066 4.41086 10.4889C4.35075 10.4711 4.18844 10.406 3.92393 10.2935C3.65944 10.1811 3.44904 10.0716 3.29273 9.96503C3.13604 9.85817 2.98664 9.74131 2.84549 9.61519C2.70482 9.48733 2.55034 9.32277 2.382 9.12152C2.21369 8.92027 2.06341 8.68645 1.93115 8.42008C1.7989 8.1537 1.69971 7.89918 1.63358 7.65648C1.56772 7.41521 1.52426 7.16854 1.50375 6.91952L1.47127 6.5466L1.48931 6.55015L1.50734 6.55548L1.52538 6.56436L1.54341 6.57324L1.56145 6.58212L1.57948 6.591L1.85901 6.7153C2.04538 6.79818 2.27681 6.86921 2.55333 6.9284C2.82987 6.98759 2.99517 7.02016 3.04927 7.02607L3.13043 7.03495H3.29273L3.28915 7.02962L3.28372 7.02607L3.27831 7.02252L3.2747 7.01719L3.27111 7.01186L3.26568 7.00831L3.26027 7.00476L3.25667 6.99943L3.23863 6.99055L3.2206 6.98167L3.21701 6.97635L3.21158 6.97279L3.20617 6.96924L3.20256 6.96392L3.18453 6.95504L3.1665 6.94616L3.16291 6.94083C3.1593 6.93845 3.1076 6.90057 3.00779 6.82718C2.9092 6.75259 2.80581 6.65612 2.6976 6.53772C2.5894 6.41933 2.48119 6.29502 2.37299 6.1648C2.26458 6.03429 2.16803 5.89464 2.08444 5.74749C2.00029 5.59951 1.91131 5.41126 1.81753 5.18278C1.72496 4.95548 1.65463 4.7264 1.60653 4.49555C1.55845 4.26469 1.5314 4.0368 1.52538 3.81186C1.51937 3.58692 1.52538 3.39455 1.54341 3.23473C1.56145 3.0749 1.59751 2.89436 1.65162 2.69311C1.70572 2.49185 1.78388 2.27876 1.88606 2.05382L2.03935 1.71641L2.04837 1.68978L2.05739 1.66314L2.06282 1.65959L2.0664 1.65426L2.07001 1.64893L2.07542 1.64538L2.08085 1.64893L2.08444 1.65426L2.08805 1.65959L2.09346 1.66314L2.09888 1.66669L2.10247 1.67202L2.10608 1.67734L2.11149 1.6809L2.12051 1.69865L2.12952 1.71641L2.13495 1.71996L2.13854 1.72529L2.382 1.99166C2.54431 2.16924 2.73668 2.36755 2.9591 2.58656C3.18154 2.80557 3.30476 2.91922 3.3288 2.92751C3.35286 2.93698 3.38291 2.9642 3.41897 3.0092C3.45504 3.05301 3.57528 3.15778 3.77966 3.32352C3.98406 3.48925 4.25156 3.68164 4.58218 3.90065C4.91282 4.11966 5.27952 4.33572 5.68227 4.54882C6.08505 4.76192 6.51787 4.95429 6.98074 5.12596C7.44363 5.29762 7.76824 5.41009 7.95459 5.46336C8.14096 5.51663 8.45955 5.5847 8.91041 5.66758C9.36126 5.75045 9.70092 5.80373 9.92934 5.8274C10.1578 5.85107 10.3141 5.86469 10.3982 5.86824L10.5245 5.8718L10.5209 5.84516L10.5155 5.81852L10.4794 5.59655C10.4553 5.44857 10.4433 5.24139 10.4433 4.97501C10.4433 4.70864 10.4644 4.463 10.5064 4.23806C10.5485 4.01311 10.6117 3.78523 10.6958 3.55437C10.78 3.32352 10.8623 3.13823 10.9429 2.99854C11.0246 2.86003 11.1316 2.70198 11.2639 2.5244C11.3961 2.34682 11.5675 2.16333 11.7779 1.9739C11.9883 1.78448 12.2287 1.61578 12.4992 1.4678C12.7697 1.31982 13.0192 1.20734 13.2476 1.1304C13.4761 1.05345 13.6685 1.00313 13.8247 0.979454C13.981 0.955782 14.0592 0.942162 14.0592 0.93861V0.93861Z" />
</svg>
