<svg width="198" height="210" viewBox="0 0 198 210" fill="none" xmlns="http://www.w3.org/2000/svg">
<path d="M160.067 181.005C158.833 181.006 157.313 181.856 155.796 182.861" stroke="#92278F" stroke-opacity="0.2" stroke-width="2" stroke-miterlimit="10" stroke-linecap="round"/>
<path d="M147.631 187.345C145.466 188.207 143.265 188.987 141.1 189.771C137.586 191.044 134.536 191.3 130.831 191.237C126.662 191.167 123.145 192.592 119.075 192.754C102.149 193.428 86.2176 191.178 69.9711 186.67C65.7003 185.484 61.6901 184.804 57.7521 182.57C52.368 179.515 45.351 175.475 41.6407 170.478C37.0715 164.323 31.2304 160.432 25.8542 155.051C21.1186 150.311 16.6954 144.319 13.7906 138.246C10.4399 131.24 6.86465 122.241 5.41382 114.596C4.79203 111.313 4.96789 108.111 4.03207 104.859C3.27054 102.209 2.27347 100.198 2.09447 97.3855C1.67681 90.8693 2.20125 84.1427 2.16984 77.6061C2.11489 66.4626 5.41853 57.1846 9.48054 46.8686C10.7257 43.7078 11.6756 40.3963 13.7514 37.6532C15.7345 35.0326 18.7304 33.0747 20.8124 30.4478C25.6328 24.365 30.2962 19.8554 36.8877 15.7605C45.1751 10.6119 53.9648 6.8545 63.6528 5.59837C70.2804 4.73949 76.0697 1.40126 82.98 1.10293C90.2655 0.788895 97.7301 1.04326 104.51 4.02657C114.113 8.25189 124.662 13.7051 132.002 21.2875C136.342 25.7687 140.129 31.1685 143.726 36.2668C148.688 43.2996 149.158 54.2609 150.298 62.5781C152.501 78.6299 143.444 93.1005 134.039 105.081C125.315 116.191 112.791 122.587 98.4115 122.588C90.8905 122.59 81.7238 122.229 75.2375 117.871C67.0255 112.355 60.3837 105.835 55.0922 97.3682C49.8432 88.9725 45.0667 78.1807 47.3152 68.138C49.347 59.0656 51.7934 50.3606 59.5578 45.0079C67.0962 39.8123 75.4494 38.2609 83.9644 41.6776C91.8372 44.8367 95.1048 50.6165 96.4048 57.6131" stroke="#92278F" stroke-opacity="0.2" stroke-width="2" stroke-miterlimit="10" stroke-linecap="round" stroke-dasharray="5.95 5.95"/>
<path d="M96.9953 62.2513C97.1146 63.787 97.1759 65.3618 97.1994 66.9634" stroke="#92278F" stroke-opacity="0.2" stroke-width="2" stroke-miterlimit="10" stroke-linecap="round"/>
<path d="M48.2391 156.435L52.9909 157.78H69.6809V155.245H51.1951L48.2391 156.435Z" fill="#F85E9F"/>
<path d="M65.4023 155.72V161.055H70.1557V154.928L65.4023 155.72Z" fill="#F85E9F"/>
<path d="M50.667 162.992C50.5597 162.992 50.4731 162.905 50.4731 162.798V155.721C50.4731 155.613 50.5597 155.526 50.667 155.526C50.774 155.526 50.8609 155.613 50.8609 155.721V162.798C50.8609 162.905 50.7744 162.992 50.667 162.992Z" fill="#F85E9F"/>
<path d="M54.7339 162.992C54.6266 162.992 54.5396 162.905 54.5396 162.798V155.721C54.5396 155.613 54.6266 155.526 54.7339 155.526C54.8409 155.526 54.9279 155.613 54.9279 155.721V162.798C54.9279 162.905 54.8413 162.992 54.7339 162.992Z" fill="#F85E9F"/>
<path d="M64.7916 146.816L68.8707 148.472H79.6006H81.9528V144.882H68.169L64.7916 146.816Z" fill="#F85E9F"/>
<path d="M75.3373 147.564H74.9495V150.906H75.3373V147.564Z" fill="#F85E9F"/>
<path d="M82.2642 136.126L85.3365 138.237H88.0248V135.71H84.0574L82.2642 136.126Z" fill="#F85E9F"/>
<path d="M99.1289 136.126L101.349 138.154H95.695L91.6508 142.776H83.4384L85.2539 140.96L90.6964 135.71L99.1289 136.126Z" fill="#F85E9F"/>
<path d="M97.0035 135.71H96.6152V143.132H97.0035V135.71Z" fill="#F85E9F"/>
<path d="M90.1702 135.71H89.782V143.132H90.1702V135.71Z" fill="#F85E9F"/>
<path d="M86.0699 122.421H85.6821V135.71H86.0699V122.421Z" fill="#F85E9F"/>
<path d="M94.019 133.953V132.91H99.016V132.522H98.1396V130.905H99.016V130.517H94.2548V130.905H95.4807V132.522H94.0194V126.557H93.6311V132.522H93.0834V129.437V129.243V129.048H91.9477V125.426H93.3244V125.038H91.9477V122.311H93.3244V121.923H91.9477V118H91.5598V121.923H89.8873V122.311H91.0893V125.038H90.5545V125.426H91.5598V129.048H91.1171L90.495 127.814C90.6207 127.505 90.6975 127.144 90.6975 126.755C90.6975 125.637 90.0997 124.731 89.362 124.731C88.6239 124.731 88.026 125.637 88.026 126.755C88.026 127.871 88.6239 128.777 89.362 128.777C89.4262 128.777 89.4881 128.762 89.55 128.748V129.048H88.0256V129.437H90.4241V132.521H88.9561V132.91H90.4241V135.294H93.0834V134.342H93.6311V135.71H94.0194V134.342H100.592V133.953H94.019ZM91.4768 125.038V122.312H91.5586V125.038H91.4768ZM89.9371 128.572C90.0597 128.483 90.171 128.369 90.2693 128.23L90.6815 129.049H89.9375V128.572H89.9371ZM93.0826 133.953V132.91H93.6303V133.953H93.0826Z" fill="#F85E9F"/>
<path d="M77.194 154.465L73.6402 163.29H116.707V154.919L77.194 154.465Z" fill="#F85E9F"/>
<path d="M99.5238 155.564H94.7634V162.682H99.5238V155.564Z" fill="#F79FC4"/>
<path d="M102.567 155.564H101.13V162.682H102.567V155.564Z" fill="#F79FC4"/>
<path d="M128.161 146.442H82.2642V153.042H128.161V146.442Z" fill="#F85E9F"/>
<path d="M107.19 146.442H104.094L100.499 153.043H103.596L107.19 146.442Z" fill="#F2F2F2"/>
<path d="M101.91 146.442H100.585L96.9909 153.043H98.3155L101.91 146.442Z" fill="#F2F2F2"/>
<path d="M94.238 153.043L97.8329 146.442H94.7363L91.1418 153.043H94.238Z" fill="#F2F2F2"/>
<path d="M120.625 146.442H119.3L115.706 153.043H117.031L120.625 146.442Z" fill="#F2F2F2"/>
<path d="M116.548 146.442H113.451L109.856 153.043H112.953L116.548 146.442Z" fill="#F2F2F2"/>
<path d="M111.268 146.442H109.943L106.349 153.043H107.673L111.268 146.442Z" fill="#F2F2F2"/>
<path d="M63.5614 161.649C63.5614 161.649 72.5079 150.618 79.6652 146.816H64.7916L69.9359 142.566C69.9359 142.566 121.266 140.442 130.996 147.376H99.6828C99.6828 147.376 82.7959 147.071 77.0924 161.65L63.5614 161.649Z" fill="#F79FC4"/>
<path d="M71.2671 146.152H70.491V154.465H71.2671V146.152Z" fill="#F79FC4"/>
<path d="M161.525 172H39C39 172 44.792 162.372 47.7933 161.649H105.556C105.556 161.649 112.653 161.466 114.778 156.434H48.2392L53.0478 152.408H149.669L152.241 154.42H177.067C177.067 154.42 166.894 161.62 161.525 172Z" fill="#FF8BBC"/>
<path d="M144.722 167.784H41.7769C40.1937 170.017 39 172 39 172H161.525C166.894 161.62 177.068 154.42 177.068 154.42H163.357C156.527 167.413 144.722 167.784 144.722 167.784Z" fill="#92278F" fill-opacity="0.2"/>
<path d="M86.4257 142.259C86.4257 142.259 91.5845 136.791 93.0827 136.126H87.5348C87.5348 136.126 82.1534 138.235 78.2701 142.34L86.4257 142.259Z" fill="#FF8BBC"/>
<path d="M82.2642 136.126H99.1289L97.2785 135.294H84.8158C84.8158 135.294 82.8742 135.349 82.2642 136.126Z" fill="#F79FC4"/>
<path d="M156.122 172H160.205C160.962 166.568 162.645 162.547 162.645 162.547H158.561C158.561 162.547 156.879 166.568 156.122 172Z" fill="#FF8BFA"/>
<path d="M119.798 156.434H117.892V158.433H119.798V156.434Z" fill="#F85E9F"/>
<path d="M147.462 156.434H145.557V158.433H147.462V156.434Z" fill="#F85E9F"/>
<path d="M127.851 156.434H125.946V158.433H127.851V156.434Z" fill="#F85E9F"/>
<path d="M130.618 156.434H128.712V158.433H130.618V156.434Z" fill="#F85E9F"/>
<path d="M133.384 156.434H131.479V158.433H133.384V156.434Z" fill="#F85E9F"/>
<path d="M81.058 166.167H79.3848V167.245H81.058V166.167Z" fill="#F85E9F"/>
<path d="M89.3518 166.167H87.6782V167.245H89.3518V166.167Z" fill="#F85E9F"/>
<path d="M91.695 166.167H90.0214V167.245H91.695V166.167Z" fill="#F85E9F"/>
<path d="M94.0382 166.167H92.3645V167.245H94.0382V166.167Z" fill="#F85E9F"/>
<path d="M100.361 166.167H98.6874V167.245H100.361V166.167Z" fill="#F85E9F"/>
<path d="M112.56 166.167H110.886V167.245H112.56V166.167Z" fill="#F85E9F"/>
<path d="M115.052 166.167H113.378V167.245H115.052V166.167Z" fill="#F85E9F"/>
<path d="M117.544 166.167H115.87V167.245H117.544V166.167Z" fill="#F85E9F"/>
<path d="M129.335 165.886H127.014V166.965H129.335V165.886Z" fill="#F85E9F"/>
<path d="M137.331 165.886H135.011V166.965H137.331V165.886Z" fill="#F85E9F"/>
<path d="M114.215 165.137H53.6566C53.4423 165.137 53.2687 164.963 53.2687 164.748C53.2687 164.534 53.4423 164.36 53.6566 164.36H114.215C114.43 164.36 114.603 164.534 114.603 164.748C114.603 164.963 114.43 165.137 114.215 165.137Z" fill="#F85E9F"/>
<path d="M102.567 150.673V151.139H103.39V152.408H103.856V151.139H106.13V152.408H106.596V151.139H108.87V152.408H109.336V151.139H111.61V152.408H112.076V151.139H114.35V152.408H114.815V151.139H117.09V152.408H117.556V151.139H119.83V152.408H120.296V151.139H122.57V152.408H123.036V151.139H125.31V152.408H125.776V151.139H128.05V152.408H128.515V151.139H130.79V152.408H131.255V151.139H133.53V152.408H133.996V151.139H136.27V152.408H136.735V151.139H139.01V152.408H139.476V151.139H141.75V152.408H142.215V151.139H144.49V152.408H144.955V151.139H147.23V152.408H147.695V151.139H149.384V150.673H102.567Z" fill="#F85E9F"/>
<path d="M74.8566 151.478H52.9906C52.8832 151.478 52.7963 151.391 52.7963 151.284C52.7963 151.176 52.8832 151.089 52.9906 151.089H74.8566C74.9639 151.089 75.0509 151.176 75.0509 151.284C75.0509 151.391 74.9643 151.478 74.8566 151.478Z" fill="#F85E9F"/>
<path d="M142.04 166.383C143.626 166.394 145.193 166.383 146.75 166.386" stroke="#92278F" stroke-opacity="0.2" stroke-width="2" stroke-miterlimit="10" stroke-linecap="round"/>
<path d="M156.526 166.955C156.755 166.989 156.985 167.024 157.214 167.063C163.049 168.029 168.814 169.619 174.673 170.445C179.253 171.092 183.897 172.204 188.495 172.267C190.239 172.29 195.628 171.31 196.889 172.364C199.558 174.597 194.507 180.13 193.207 182.066C190.626 185.907 189.049 190.193 186.633 194.108C185.252 196.342 183.277 197.933 181.61 199.845" stroke="#92278F" stroke-opacity="0.2" stroke-width="2" stroke-miterlimit="10" stroke-linecap="round" stroke-dasharray="6.24 6.24"/>
<path d="M179.156 204.047C178.705 205.534 178.553 207.074 178.267 208.671C177.361 208.885 176.981 208.436 177.13 207.321" stroke="#92278F" stroke-opacity="0.2" stroke-width="2" stroke-miterlimit="10" stroke-linecap="round"/>
</svg>
