<svg width="21" height="15" viewBox="0 0 21 15"  xmlns="http://www.w3.org/2000/svg">
<path d="M11.2263 14.9167L7.12304 14.8408C5.7945 14.8143 4.46266 14.8671 3.16018 14.593C1.1788 14.1834 1.03843 12.175 0.891553 10.4903C0.689167 8.1219 0.767516 5.71049 1.14944 3.36183C1.36506 2.04399 2.21357 1.25763 3.52578 1.17206C7.95542 0.861504 12.4145 0.898308 16.8344 1.04319C17.3011 1.05647 17.7711 1.12907 18.2314 1.2117C20.5035 1.61472 20.5589 3.89067 20.7061 5.8066C20.853 7.7423 20.791 9.68794 20.5103 11.6105C20.285 13.2022 19.8541 14.5371 18.0355 14.666C15.757 14.8345 13.5308 14.9701 11.2458 14.927C11.2459 14.9167 11.2328 14.9167 11.2263 14.9167ZM8.81396 10.8867C10.531 9.88909 12.2153 8.90806 13.9226 7.91709C12.2023 6.91944 10.5212 5.93841 8.81396 4.94744V10.8867Z" />
</svg>
